G04 EAGLE Gerber RS-274X export*
G75*
%MOMM*%
%FSLAX34Y34*%
%LPD*%
%INBoard Outline*%
%IPPOS*%
%AMOC8*
5,1,8,0,0,1.08239X$1,22.5*%
G01*
%ADD10C,0.000000*%
%ADD11C,0.254000*%


D10*
X0Y0D02*
X500000Y0D01*
X500000Y500000D01*
X0Y500000D01*
X0Y0D01*
X30000Y450000D02*
X30006Y450491D01*
X30024Y450981D01*
X30054Y451471D01*
X30096Y451960D01*
X30150Y452448D01*
X30216Y452935D01*
X30294Y453419D01*
X30384Y453902D01*
X30486Y454382D01*
X30599Y454860D01*
X30724Y455334D01*
X30861Y455806D01*
X31009Y456274D01*
X31169Y456738D01*
X31340Y457198D01*
X31522Y457654D01*
X31716Y458105D01*
X31920Y458551D01*
X32136Y458992D01*
X32362Y459428D01*
X32598Y459858D01*
X32845Y460282D01*
X33103Y460700D01*
X33371Y461111D01*
X33648Y461516D01*
X33936Y461914D01*
X34233Y462305D01*
X34540Y462688D01*
X34856Y463063D01*
X35181Y463431D01*
X35515Y463791D01*
X35858Y464142D01*
X36209Y464485D01*
X36569Y464819D01*
X36937Y465144D01*
X37312Y465460D01*
X37695Y465767D01*
X38086Y466064D01*
X38484Y466352D01*
X38889Y466629D01*
X39300Y466897D01*
X39718Y467155D01*
X40142Y467402D01*
X40572Y467638D01*
X41008Y467864D01*
X41449Y468080D01*
X41895Y468284D01*
X42346Y468478D01*
X42802Y468660D01*
X43262Y468831D01*
X43726Y468991D01*
X44194Y469139D01*
X44666Y469276D01*
X45140Y469401D01*
X45618Y469514D01*
X46098Y469616D01*
X46581Y469706D01*
X47065Y469784D01*
X47552Y469850D01*
X48040Y469904D01*
X48529Y469946D01*
X49019Y469976D01*
X49509Y469994D01*
X50000Y470000D01*
X50491Y469994D01*
X50981Y469976D01*
X51471Y469946D01*
X51960Y469904D01*
X52448Y469850D01*
X52935Y469784D01*
X53419Y469706D01*
X53902Y469616D01*
X54382Y469514D01*
X54860Y469401D01*
X55334Y469276D01*
X55806Y469139D01*
X56274Y468991D01*
X56738Y468831D01*
X57198Y468660D01*
X57654Y468478D01*
X58105Y468284D01*
X58551Y468080D01*
X58992Y467864D01*
X59428Y467638D01*
X59858Y467402D01*
X60282Y467155D01*
X60700Y466897D01*
X61111Y466629D01*
X61516Y466352D01*
X61914Y466064D01*
X62305Y465767D01*
X62688Y465460D01*
X63063Y465144D01*
X63431Y464819D01*
X63791Y464485D01*
X64142Y464142D01*
X64485Y463791D01*
X64819Y463431D01*
X65144Y463063D01*
X65460Y462688D01*
X65767Y462305D01*
X66064Y461914D01*
X66352Y461516D01*
X66629Y461111D01*
X66897Y460700D01*
X67155Y460282D01*
X67402Y459858D01*
X67638Y459428D01*
X67864Y458992D01*
X68080Y458551D01*
X68284Y458105D01*
X68478Y457654D01*
X68660Y457198D01*
X68831Y456738D01*
X68991Y456274D01*
X69139Y455806D01*
X69276Y455334D01*
X69401Y454860D01*
X69514Y454382D01*
X69616Y453902D01*
X69706Y453419D01*
X69784Y452935D01*
X69850Y452448D01*
X69904Y451960D01*
X69946Y451471D01*
X69976Y450981D01*
X69994Y450491D01*
X70000Y450000D01*
X69994Y449509D01*
X69976Y449019D01*
X69946Y448529D01*
X69904Y448040D01*
X69850Y447552D01*
X69784Y447065D01*
X69706Y446581D01*
X69616Y446098D01*
X69514Y445618D01*
X69401Y445140D01*
X69276Y444666D01*
X69139Y444194D01*
X68991Y443726D01*
X68831Y443262D01*
X68660Y442802D01*
X68478Y442346D01*
X68284Y441895D01*
X68080Y441449D01*
X67864Y441008D01*
X67638Y440572D01*
X67402Y440142D01*
X67155Y439718D01*
X66897Y439300D01*
X66629Y438889D01*
X66352Y438484D01*
X66064Y438086D01*
X65767Y437695D01*
X65460Y437312D01*
X65144Y436937D01*
X64819Y436569D01*
X64485Y436209D01*
X64142Y435858D01*
X63791Y435515D01*
X63431Y435181D01*
X63063Y434856D01*
X62688Y434540D01*
X62305Y434233D01*
X61914Y433936D01*
X61516Y433648D01*
X61111Y433371D01*
X60700Y433103D01*
X60282Y432845D01*
X59858Y432598D01*
X59428Y432362D01*
X58992Y432136D01*
X58551Y431920D01*
X58105Y431716D01*
X57654Y431522D01*
X57198Y431340D01*
X56738Y431169D01*
X56274Y431009D01*
X55806Y430861D01*
X55334Y430724D01*
X54860Y430599D01*
X54382Y430486D01*
X53902Y430384D01*
X53419Y430294D01*
X52935Y430216D01*
X52448Y430150D01*
X51960Y430096D01*
X51471Y430054D01*
X50981Y430024D01*
X50491Y430006D01*
X50000Y430000D01*
X49509Y430006D01*
X49019Y430024D01*
X48529Y430054D01*
X48040Y430096D01*
X47552Y430150D01*
X47065Y430216D01*
X46581Y430294D01*
X46098Y430384D01*
X45618Y430486D01*
X45140Y430599D01*
X44666Y430724D01*
X44194Y430861D01*
X43726Y431009D01*
X43262Y431169D01*
X42802Y431340D01*
X42346Y431522D01*
X41895Y431716D01*
X41449Y431920D01*
X41008Y432136D01*
X40572Y432362D01*
X40142Y432598D01*
X39718Y432845D01*
X39300Y433103D01*
X38889Y433371D01*
X38484Y433648D01*
X38086Y433936D01*
X37695Y434233D01*
X37312Y434540D01*
X36937Y434856D01*
X36569Y435181D01*
X36209Y435515D01*
X35858Y435858D01*
X35515Y436209D01*
X35181Y436569D01*
X34856Y436937D01*
X34540Y437312D01*
X34233Y437695D01*
X33936Y438086D01*
X33648Y438484D01*
X33371Y438889D01*
X33103Y439300D01*
X32845Y439718D01*
X32598Y440142D01*
X32362Y440572D01*
X32136Y441008D01*
X31920Y441449D01*
X31716Y441895D01*
X31522Y442346D01*
X31340Y442802D01*
X31169Y443262D01*
X31009Y443726D01*
X30861Y444194D01*
X30724Y444666D01*
X30599Y445140D01*
X30486Y445618D01*
X30384Y446098D01*
X30294Y446581D01*
X30216Y447065D01*
X30150Y447552D01*
X30096Y448040D01*
X30054Y448529D01*
X30024Y449019D01*
X30006Y449509D01*
X30000Y450000D01*
X430000Y450000D02*
X430006Y450491D01*
X430024Y450981D01*
X430054Y451471D01*
X430096Y451960D01*
X430150Y452448D01*
X430216Y452935D01*
X430294Y453419D01*
X430384Y453902D01*
X430486Y454382D01*
X430599Y454860D01*
X430724Y455334D01*
X430861Y455806D01*
X431009Y456274D01*
X431169Y456738D01*
X431340Y457198D01*
X431522Y457654D01*
X431716Y458105D01*
X431920Y458551D01*
X432136Y458992D01*
X432362Y459428D01*
X432598Y459858D01*
X432845Y460282D01*
X433103Y460700D01*
X433371Y461111D01*
X433648Y461516D01*
X433936Y461914D01*
X434233Y462305D01*
X434540Y462688D01*
X434856Y463063D01*
X435181Y463431D01*
X435515Y463791D01*
X435858Y464142D01*
X436209Y464485D01*
X436569Y464819D01*
X436937Y465144D01*
X437312Y465460D01*
X437695Y465767D01*
X438086Y466064D01*
X438484Y466352D01*
X438889Y466629D01*
X439300Y466897D01*
X439718Y467155D01*
X440142Y467402D01*
X440572Y467638D01*
X441008Y467864D01*
X441449Y468080D01*
X441895Y468284D01*
X442346Y468478D01*
X442802Y468660D01*
X443262Y468831D01*
X443726Y468991D01*
X444194Y469139D01*
X444666Y469276D01*
X445140Y469401D01*
X445618Y469514D01*
X446098Y469616D01*
X446581Y469706D01*
X447065Y469784D01*
X447552Y469850D01*
X448040Y469904D01*
X448529Y469946D01*
X449019Y469976D01*
X449509Y469994D01*
X450000Y470000D01*
X450491Y469994D01*
X450981Y469976D01*
X451471Y469946D01*
X451960Y469904D01*
X452448Y469850D01*
X452935Y469784D01*
X453419Y469706D01*
X453902Y469616D01*
X454382Y469514D01*
X454860Y469401D01*
X455334Y469276D01*
X455806Y469139D01*
X456274Y468991D01*
X456738Y468831D01*
X457198Y468660D01*
X457654Y468478D01*
X458105Y468284D01*
X458551Y468080D01*
X458992Y467864D01*
X459428Y467638D01*
X459858Y467402D01*
X460282Y467155D01*
X460700Y466897D01*
X461111Y466629D01*
X461516Y466352D01*
X461914Y466064D01*
X462305Y465767D01*
X462688Y465460D01*
X463063Y465144D01*
X463431Y464819D01*
X463791Y464485D01*
X464142Y464142D01*
X464485Y463791D01*
X464819Y463431D01*
X465144Y463063D01*
X465460Y462688D01*
X465767Y462305D01*
X466064Y461914D01*
X466352Y461516D01*
X466629Y461111D01*
X466897Y460700D01*
X467155Y460282D01*
X467402Y459858D01*
X467638Y459428D01*
X467864Y458992D01*
X468080Y458551D01*
X468284Y458105D01*
X468478Y457654D01*
X468660Y457198D01*
X468831Y456738D01*
X468991Y456274D01*
X469139Y455806D01*
X469276Y455334D01*
X469401Y454860D01*
X469514Y454382D01*
X469616Y453902D01*
X469706Y453419D01*
X469784Y452935D01*
X469850Y452448D01*
X469904Y451960D01*
X469946Y451471D01*
X469976Y450981D01*
X469994Y450491D01*
X470000Y450000D01*
X469994Y449509D01*
X469976Y449019D01*
X469946Y448529D01*
X469904Y448040D01*
X469850Y447552D01*
X469784Y447065D01*
X469706Y446581D01*
X469616Y446098D01*
X469514Y445618D01*
X469401Y445140D01*
X469276Y444666D01*
X469139Y444194D01*
X468991Y443726D01*
X468831Y443262D01*
X468660Y442802D01*
X468478Y442346D01*
X468284Y441895D01*
X468080Y441449D01*
X467864Y441008D01*
X467638Y440572D01*
X467402Y440142D01*
X467155Y439718D01*
X466897Y439300D01*
X466629Y438889D01*
X466352Y438484D01*
X466064Y438086D01*
X465767Y437695D01*
X465460Y437312D01*
X465144Y436937D01*
X464819Y436569D01*
X464485Y436209D01*
X464142Y435858D01*
X463791Y435515D01*
X463431Y435181D01*
X463063Y434856D01*
X462688Y434540D01*
X462305Y434233D01*
X461914Y433936D01*
X461516Y433648D01*
X461111Y433371D01*
X460700Y433103D01*
X460282Y432845D01*
X459858Y432598D01*
X459428Y432362D01*
X458992Y432136D01*
X458551Y431920D01*
X458105Y431716D01*
X457654Y431522D01*
X457198Y431340D01*
X456738Y431169D01*
X456274Y431009D01*
X455806Y430861D01*
X455334Y430724D01*
X454860Y430599D01*
X454382Y430486D01*
X453902Y430384D01*
X453419Y430294D01*
X452935Y430216D01*
X452448Y430150D01*
X451960Y430096D01*
X451471Y430054D01*
X450981Y430024D01*
X450491Y430006D01*
X450000Y430000D01*
X449509Y430006D01*
X449019Y430024D01*
X448529Y430054D01*
X448040Y430096D01*
X447552Y430150D01*
X447065Y430216D01*
X446581Y430294D01*
X446098Y430384D01*
X445618Y430486D01*
X445140Y430599D01*
X444666Y430724D01*
X444194Y430861D01*
X443726Y431009D01*
X443262Y431169D01*
X442802Y431340D01*
X442346Y431522D01*
X441895Y431716D01*
X441449Y431920D01*
X441008Y432136D01*
X440572Y432362D01*
X440142Y432598D01*
X439718Y432845D01*
X439300Y433103D01*
X438889Y433371D01*
X438484Y433648D01*
X438086Y433936D01*
X437695Y434233D01*
X437312Y434540D01*
X436937Y434856D01*
X436569Y435181D01*
X436209Y435515D01*
X435858Y435858D01*
X435515Y436209D01*
X435181Y436569D01*
X434856Y436937D01*
X434540Y437312D01*
X434233Y437695D01*
X433936Y438086D01*
X433648Y438484D01*
X433371Y438889D01*
X433103Y439300D01*
X432845Y439718D01*
X432598Y440142D01*
X432362Y440572D01*
X432136Y441008D01*
X431920Y441449D01*
X431716Y441895D01*
X431522Y442346D01*
X431340Y442802D01*
X431169Y443262D01*
X431009Y443726D01*
X430861Y444194D01*
X430724Y444666D01*
X430599Y445140D01*
X430486Y445618D01*
X430384Y446098D01*
X430294Y446581D01*
X430216Y447065D01*
X430150Y447552D01*
X430096Y448040D01*
X430054Y448529D01*
X430024Y449019D01*
X430006Y449509D01*
X430000Y450000D01*
X30000Y50000D02*
X30006Y50491D01*
X30024Y50981D01*
X30054Y51471D01*
X30096Y51960D01*
X30150Y52448D01*
X30216Y52935D01*
X30294Y53419D01*
X30384Y53902D01*
X30486Y54382D01*
X30599Y54860D01*
X30724Y55334D01*
X30861Y55806D01*
X31009Y56274D01*
X31169Y56738D01*
X31340Y57198D01*
X31522Y57654D01*
X31716Y58105D01*
X31920Y58551D01*
X32136Y58992D01*
X32362Y59428D01*
X32598Y59858D01*
X32845Y60282D01*
X33103Y60700D01*
X33371Y61111D01*
X33648Y61516D01*
X33936Y61914D01*
X34233Y62305D01*
X34540Y62688D01*
X34856Y63063D01*
X35181Y63431D01*
X35515Y63791D01*
X35858Y64142D01*
X36209Y64485D01*
X36569Y64819D01*
X36937Y65144D01*
X37312Y65460D01*
X37695Y65767D01*
X38086Y66064D01*
X38484Y66352D01*
X38889Y66629D01*
X39300Y66897D01*
X39718Y67155D01*
X40142Y67402D01*
X40572Y67638D01*
X41008Y67864D01*
X41449Y68080D01*
X41895Y68284D01*
X42346Y68478D01*
X42802Y68660D01*
X43262Y68831D01*
X43726Y68991D01*
X44194Y69139D01*
X44666Y69276D01*
X45140Y69401D01*
X45618Y69514D01*
X46098Y69616D01*
X46581Y69706D01*
X47065Y69784D01*
X47552Y69850D01*
X48040Y69904D01*
X48529Y69946D01*
X49019Y69976D01*
X49509Y69994D01*
X50000Y70000D01*
X50491Y69994D01*
X50981Y69976D01*
X51471Y69946D01*
X51960Y69904D01*
X52448Y69850D01*
X52935Y69784D01*
X53419Y69706D01*
X53902Y69616D01*
X54382Y69514D01*
X54860Y69401D01*
X55334Y69276D01*
X55806Y69139D01*
X56274Y68991D01*
X56738Y68831D01*
X57198Y68660D01*
X57654Y68478D01*
X58105Y68284D01*
X58551Y68080D01*
X58992Y67864D01*
X59428Y67638D01*
X59858Y67402D01*
X60282Y67155D01*
X60700Y66897D01*
X61111Y66629D01*
X61516Y66352D01*
X61914Y66064D01*
X62305Y65767D01*
X62688Y65460D01*
X63063Y65144D01*
X63431Y64819D01*
X63791Y64485D01*
X64142Y64142D01*
X64485Y63791D01*
X64819Y63431D01*
X65144Y63063D01*
X65460Y62688D01*
X65767Y62305D01*
X66064Y61914D01*
X66352Y61516D01*
X66629Y61111D01*
X66897Y60700D01*
X67155Y60282D01*
X67402Y59858D01*
X67638Y59428D01*
X67864Y58992D01*
X68080Y58551D01*
X68284Y58105D01*
X68478Y57654D01*
X68660Y57198D01*
X68831Y56738D01*
X68991Y56274D01*
X69139Y55806D01*
X69276Y55334D01*
X69401Y54860D01*
X69514Y54382D01*
X69616Y53902D01*
X69706Y53419D01*
X69784Y52935D01*
X69850Y52448D01*
X69904Y51960D01*
X69946Y51471D01*
X69976Y50981D01*
X69994Y50491D01*
X70000Y50000D01*
X69994Y49509D01*
X69976Y49019D01*
X69946Y48529D01*
X69904Y48040D01*
X69850Y47552D01*
X69784Y47065D01*
X69706Y46581D01*
X69616Y46098D01*
X69514Y45618D01*
X69401Y45140D01*
X69276Y44666D01*
X69139Y44194D01*
X68991Y43726D01*
X68831Y43262D01*
X68660Y42802D01*
X68478Y42346D01*
X68284Y41895D01*
X68080Y41449D01*
X67864Y41008D01*
X67638Y40572D01*
X67402Y40142D01*
X67155Y39718D01*
X66897Y39300D01*
X66629Y38889D01*
X66352Y38484D01*
X66064Y38086D01*
X65767Y37695D01*
X65460Y37312D01*
X65144Y36937D01*
X64819Y36569D01*
X64485Y36209D01*
X64142Y35858D01*
X63791Y35515D01*
X63431Y35181D01*
X63063Y34856D01*
X62688Y34540D01*
X62305Y34233D01*
X61914Y33936D01*
X61516Y33648D01*
X61111Y33371D01*
X60700Y33103D01*
X60282Y32845D01*
X59858Y32598D01*
X59428Y32362D01*
X58992Y32136D01*
X58551Y31920D01*
X58105Y31716D01*
X57654Y31522D01*
X57198Y31340D01*
X56738Y31169D01*
X56274Y31009D01*
X55806Y30861D01*
X55334Y30724D01*
X54860Y30599D01*
X54382Y30486D01*
X53902Y30384D01*
X53419Y30294D01*
X52935Y30216D01*
X52448Y30150D01*
X51960Y30096D01*
X51471Y30054D01*
X50981Y30024D01*
X50491Y30006D01*
X50000Y30000D01*
X49509Y30006D01*
X49019Y30024D01*
X48529Y30054D01*
X48040Y30096D01*
X47552Y30150D01*
X47065Y30216D01*
X46581Y30294D01*
X46098Y30384D01*
X45618Y30486D01*
X45140Y30599D01*
X44666Y30724D01*
X44194Y30861D01*
X43726Y31009D01*
X43262Y31169D01*
X42802Y31340D01*
X42346Y31522D01*
X41895Y31716D01*
X41449Y31920D01*
X41008Y32136D01*
X40572Y32362D01*
X40142Y32598D01*
X39718Y32845D01*
X39300Y33103D01*
X38889Y33371D01*
X38484Y33648D01*
X38086Y33936D01*
X37695Y34233D01*
X37312Y34540D01*
X36937Y34856D01*
X36569Y35181D01*
X36209Y35515D01*
X35858Y35858D01*
X35515Y36209D01*
X35181Y36569D01*
X34856Y36937D01*
X34540Y37312D01*
X34233Y37695D01*
X33936Y38086D01*
X33648Y38484D01*
X33371Y38889D01*
X33103Y39300D01*
X32845Y39718D01*
X32598Y40142D01*
X32362Y40572D01*
X32136Y41008D01*
X31920Y41449D01*
X31716Y41895D01*
X31522Y42346D01*
X31340Y42802D01*
X31169Y43262D01*
X31009Y43726D01*
X30861Y44194D01*
X30724Y44666D01*
X30599Y45140D01*
X30486Y45618D01*
X30384Y46098D01*
X30294Y46581D01*
X30216Y47065D01*
X30150Y47552D01*
X30096Y48040D01*
X30054Y48529D01*
X30024Y49019D01*
X30006Y49509D01*
X30000Y50000D01*
X430000Y50000D02*
X430006Y50491D01*
X430024Y50981D01*
X430054Y51471D01*
X430096Y51960D01*
X430150Y52448D01*
X430216Y52935D01*
X430294Y53419D01*
X430384Y53902D01*
X430486Y54382D01*
X430599Y54860D01*
X430724Y55334D01*
X430861Y55806D01*
X431009Y56274D01*
X431169Y56738D01*
X431340Y57198D01*
X431522Y57654D01*
X431716Y58105D01*
X431920Y58551D01*
X432136Y58992D01*
X432362Y59428D01*
X432598Y59858D01*
X432845Y60282D01*
X433103Y60700D01*
X433371Y61111D01*
X433648Y61516D01*
X433936Y61914D01*
X434233Y62305D01*
X434540Y62688D01*
X434856Y63063D01*
X435181Y63431D01*
X435515Y63791D01*
X435858Y64142D01*
X436209Y64485D01*
X436569Y64819D01*
X436937Y65144D01*
X437312Y65460D01*
X437695Y65767D01*
X438086Y66064D01*
X438484Y66352D01*
X438889Y66629D01*
X439300Y66897D01*
X439718Y67155D01*
X440142Y67402D01*
X440572Y67638D01*
X441008Y67864D01*
X441449Y68080D01*
X441895Y68284D01*
X442346Y68478D01*
X442802Y68660D01*
X443262Y68831D01*
X443726Y68991D01*
X444194Y69139D01*
X444666Y69276D01*
X445140Y69401D01*
X445618Y69514D01*
X446098Y69616D01*
X446581Y69706D01*
X447065Y69784D01*
X447552Y69850D01*
X448040Y69904D01*
X448529Y69946D01*
X449019Y69976D01*
X449509Y69994D01*
X450000Y70000D01*
X450491Y69994D01*
X450981Y69976D01*
X451471Y69946D01*
X451960Y69904D01*
X452448Y69850D01*
X452935Y69784D01*
X453419Y69706D01*
X453902Y69616D01*
X454382Y69514D01*
X454860Y69401D01*
X455334Y69276D01*
X455806Y69139D01*
X456274Y68991D01*
X456738Y68831D01*
X457198Y68660D01*
X457654Y68478D01*
X458105Y68284D01*
X458551Y68080D01*
X458992Y67864D01*
X459428Y67638D01*
X459858Y67402D01*
X460282Y67155D01*
X460700Y66897D01*
X461111Y66629D01*
X461516Y66352D01*
X461914Y66064D01*
X462305Y65767D01*
X462688Y65460D01*
X463063Y65144D01*
X463431Y64819D01*
X463791Y64485D01*
X464142Y64142D01*
X464485Y63791D01*
X464819Y63431D01*
X465144Y63063D01*
X465460Y62688D01*
X465767Y62305D01*
X466064Y61914D01*
X466352Y61516D01*
X466629Y61111D01*
X466897Y60700D01*
X467155Y60282D01*
X467402Y59858D01*
X467638Y59428D01*
X467864Y58992D01*
X468080Y58551D01*
X468284Y58105D01*
X468478Y57654D01*
X468660Y57198D01*
X468831Y56738D01*
X468991Y56274D01*
X469139Y55806D01*
X469276Y55334D01*
X469401Y54860D01*
X469514Y54382D01*
X469616Y53902D01*
X469706Y53419D01*
X469784Y52935D01*
X469850Y52448D01*
X469904Y51960D01*
X469946Y51471D01*
X469976Y50981D01*
X469994Y50491D01*
X470000Y50000D01*
X469994Y49509D01*
X469976Y49019D01*
X469946Y48529D01*
X469904Y48040D01*
X469850Y47552D01*
X469784Y47065D01*
X469706Y46581D01*
X469616Y46098D01*
X469514Y45618D01*
X469401Y45140D01*
X469276Y44666D01*
X469139Y44194D01*
X468991Y43726D01*
X468831Y43262D01*
X468660Y42802D01*
X468478Y42346D01*
X468284Y41895D01*
X468080Y41449D01*
X467864Y41008D01*
X467638Y40572D01*
X467402Y40142D01*
X467155Y39718D01*
X466897Y39300D01*
X466629Y38889D01*
X466352Y38484D01*
X466064Y38086D01*
X465767Y37695D01*
X465460Y37312D01*
X465144Y36937D01*
X464819Y36569D01*
X464485Y36209D01*
X464142Y35858D01*
X463791Y35515D01*
X463431Y35181D01*
X463063Y34856D01*
X462688Y34540D01*
X462305Y34233D01*
X461914Y33936D01*
X461516Y33648D01*
X461111Y33371D01*
X460700Y33103D01*
X460282Y32845D01*
X459858Y32598D01*
X459428Y32362D01*
X458992Y32136D01*
X458551Y31920D01*
X458105Y31716D01*
X457654Y31522D01*
X457198Y31340D01*
X456738Y31169D01*
X456274Y31009D01*
X455806Y30861D01*
X455334Y30724D01*
X454860Y30599D01*
X454382Y30486D01*
X453902Y30384D01*
X453419Y30294D01*
X452935Y30216D01*
X452448Y30150D01*
X451960Y30096D01*
X451471Y30054D01*
X450981Y30024D01*
X450491Y30006D01*
X450000Y30000D01*
X449509Y30006D01*
X449019Y30024D01*
X448529Y30054D01*
X448040Y30096D01*
X447552Y30150D01*
X447065Y30216D01*
X446581Y30294D01*
X446098Y30384D01*
X445618Y30486D01*
X445140Y30599D01*
X444666Y30724D01*
X444194Y30861D01*
X443726Y31009D01*
X443262Y31169D01*
X442802Y31340D01*
X442346Y31522D01*
X441895Y31716D01*
X441449Y31920D01*
X441008Y32136D01*
X440572Y32362D01*
X440142Y32598D01*
X439718Y32845D01*
X439300Y33103D01*
X438889Y33371D01*
X438484Y33648D01*
X438086Y33936D01*
X437695Y34233D01*
X437312Y34540D01*
X436937Y34856D01*
X436569Y35181D01*
X436209Y35515D01*
X435858Y35858D01*
X435515Y36209D01*
X435181Y36569D01*
X434856Y36937D01*
X434540Y37312D01*
X434233Y37695D01*
X433936Y38086D01*
X433648Y38484D01*
X433371Y38889D01*
X433103Y39300D01*
X432845Y39718D01*
X432598Y40142D01*
X432362Y40572D01*
X432136Y41008D01*
X431920Y41449D01*
X431716Y41895D01*
X431522Y42346D01*
X431340Y42802D01*
X431169Y43262D01*
X431009Y43726D01*
X430861Y44194D01*
X430724Y44666D01*
X430599Y45140D01*
X430486Y45618D01*
X430384Y46098D01*
X430294Y46581D01*
X430216Y47065D01*
X430150Y47552D01*
X430096Y48040D01*
X430054Y48529D01*
X430024Y49019D01*
X430006Y49509D01*
X430000Y50000D01*
D11*
X0Y0D02*
X500000Y0D01*
X500000Y500000D01*
X0Y500000D01*
X0Y0D01*
X70000Y449396D02*
X69927Y448189D01*
X69781Y446989D01*
X69563Y445800D01*
X69274Y444627D01*
X68915Y443473D01*
X68486Y442343D01*
X67990Y441241D01*
X67428Y440170D01*
X66803Y439136D01*
X66116Y438141D01*
X65371Y437190D01*
X64569Y436285D01*
X63715Y435431D01*
X62810Y434629D01*
X61859Y433884D01*
X60864Y433197D01*
X59830Y432572D01*
X58759Y432010D01*
X57657Y431514D01*
X56527Y431085D01*
X55373Y430726D01*
X54200Y430437D01*
X53011Y430219D01*
X51811Y430073D01*
X50604Y430000D01*
X49396Y430000D01*
X48189Y430073D01*
X46989Y430219D01*
X45800Y430437D01*
X44627Y430726D01*
X43473Y431085D01*
X42343Y431514D01*
X41241Y432010D01*
X40170Y432572D01*
X39136Y433197D01*
X38141Y433884D01*
X37190Y434629D01*
X36285Y435431D01*
X35431Y436285D01*
X34629Y437190D01*
X33884Y438141D01*
X33197Y439136D01*
X32572Y440170D01*
X32010Y441241D01*
X31514Y442343D01*
X31085Y443473D01*
X30726Y444627D01*
X30437Y445800D01*
X30219Y446989D01*
X30073Y448189D01*
X30000Y449396D01*
X30000Y450604D01*
X30073Y451811D01*
X30219Y453011D01*
X30437Y454200D01*
X30726Y455373D01*
X31085Y456527D01*
X31514Y457657D01*
X32010Y458759D01*
X32572Y459830D01*
X33197Y460864D01*
X33884Y461859D01*
X34629Y462810D01*
X35431Y463715D01*
X36285Y464569D01*
X37190Y465371D01*
X38141Y466116D01*
X39136Y466803D01*
X40170Y467428D01*
X41241Y467990D01*
X42343Y468486D01*
X43473Y468915D01*
X44627Y469274D01*
X45800Y469563D01*
X46989Y469781D01*
X48189Y469927D01*
X49396Y470000D01*
X50604Y470000D01*
X51811Y469927D01*
X53011Y469781D01*
X54200Y469563D01*
X55373Y469274D01*
X56527Y468915D01*
X57657Y468486D01*
X58759Y467990D01*
X59830Y467428D01*
X60864Y466803D01*
X61859Y466116D01*
X62810Y465371D01*
X63715Y464569D01*
X64569Y463715D01*
X65371Y462810D01*
X66116Y461859D01*
X66803Y460864D01*
X67428Y459830D01*
X67990Y458759D01*
X68486Y457657D01*
X68915Y456527D01*
X69274Y455373D01*
X69563Y454200D01*
X69781Y453011D01*
X69927Y451811D01*
X70000Y450604D01*
X70000Y449396D01*
X470000Y449396D02*
X469927Y448189D01*
X469781Y446989D01*
X469563Y445800D01*
X469274Y444627D01*
X468915Y443473D01*
X468486Y442343D01*
X467990Y441241D01*
X467428Y440170D01*
X466803Y439136D01*
X466116Y438141D01*
X465371Y437190D01*
X464569Y436285D01*
X463715Y435431D01*
X462810Y434629D01*
X461859Y433884D01*
X460864Y433197D01*
X459830Y432572D01*
X458759Y432010D01*
X457657Y431514D01*
X456527Y431085D01*
X455373Y430726D01*
X454200Y430437D01*
X453011Y430219D01*
X451811Y430073D01*
X450604Y430000D01*
X449396Y430000D01*
X448189Y430073D01*
X446989Y430219D01*
X445800Y430437D01*
X444627Y430726D01*
X443473Y431085D01*
X442343Y431514D01*
X441241Y432010D01*
X440170Y432572D01*
X439136Y433197D01*
X438141Y433884D01*
X437190Y434629D01*
X436285Y435431D01*
X435431Y436285D01*
X434629Y437190D01*
X433884Y438141D01*
X433197Y439136D01*
X432572Y440170D01*
X432010Y441241D01*
X431514Y442343D01*
X431085Y443473D01*
X430726Y444627D01*
X430437Y445800D01*
X430219Y446989D01*
X430073Y448189D01*
X430000Y449396D01*
X430000Y450604D01*
X430073Y451811D01*
X430219Y453011D01*
X430437Y454200D01*
X430726Y455373D01*
X431085Y456527D01*
X431514Y457657D01*
X432010Y458759D01*
X432572Y459830D01*
X433197Y460864D01*
X433884Y461859D01*
X434629Y462810D01*
X435431Y463715D01*
X436285Y464569D01*
X437190Y465371D01*
X438141Y466116D01*
X439136Y466803D01*
X440170Y467428D01*
X441241Y467990D01*
X442343Y468486D01*
X443473Y468915D01*
X444627Y469274D01*
X445800Y469563D01*
X446989Y469781D01*
X448189Y469927D01*
X449396Y470000D01*
X450604Y470000D01*
X451811Y469927D01*
X453011Y469781D01*
X454200Y469563D01*
X455373Y469274D01*
X456527Y468915D01*
X457657Y468486D01*
X458759Y467990D01*
X459830Y467428D01*
X460864Y466803D01*
X461859Y466116D01*
X462810Y465371D01*
X463715Y464569D01*
X464569Y463715D01*
X465371Y462810D01*
X466116Y461859D01*
X466803Y460864D01*
X467428Y459830D01*
X467990Y458759D01*
X468486Y457657D01*
X468915Y456527D01*
X469274Y455373D01*
X469563Y454200D01*
X469781Y453011D01*
X469927Y451811D01*
X470000Y450604D01*
X470000Y449396D01*
X70000Y49396D02*
X69927Y48189D01*
X69781Y46989D01*
X69563Y45800D01*
X69274Y44627D01*
X68915Y43473D01*
X68486Y42343D01*
X67990Y41241D01*
X67428Y40170D01*
X66803Y39136D01*
X66116Y38141D01*
X65371Y37190D01*
X64569Y36285D01*
X63715Y35431D01*
X62810Y34629D01*
X61859Y33884D01*
X60864Y33197D01*
X59830Y32572D01*
X58759Y32010D01*
X57657Y31514D01*
X56527Y31085D01*
X55373Y30726D01*
X54200Y30437D01*
X53011Y30219D01*
X51811Y30073D01*
X50604Y30000D01*
X49396Y30000D01*
X48189Y30073D01*
X46989Y30219D01*
X45800Y30437D01*
X44627Y30726D01*
X43473Y31085D01*
X42343Y31514D01*
X41241Y32010D01*
X40170Y32572D01*
X39136Y33197D01*
X38141Y33884D01*
X37190Y34629D01*
X36285Y35431D01*
X35431Y36285D01*
X34629Y37190D01*
X33884Y38141D01*
X33197Y39136D01*
X32572Y40170D01*
X32010Y41241D01*
X31514Y42343D01*
X31085Y43473D01*
X30726Y44627D01*
X30437Y45800D01*
X30219Y46989D01*
X30073Y48189D01*
X30000Y49396D01*
X30000Y50604D01*
X30073Y51811D01*
X30219Y53011D01*
X30437Y54200D01*
X30726Y55373D01*
X31085Y56527D01*
X31514Y57657D01*
X32010Y58759D01*
X32572Y59830D01*
X33197Y60864D01*
X33884Y61859D01*
X34629Y62810D01*
X35431Y63715D01*
X36285Y64569D01*
X37190Y65371D01*
X38141Y66116D01*
X39136Y66803D01*
X40170Y67428D01*
X41241Y67990D01*
X42343Y68486D01*
X43473Y68915D01*
X44627Y69274D01*
X45800Y69563D01*
X46989Y69781D01*
X48189Y69927D01*
X49396Y70000D01*
X50604Y70000D01*
X51811Y69927D01*
X53011Y69781D01*
X54200Y69563D01*
X55373Y69274D01*
X56527Y68915D01*
X57657Y68486D01*
X58759Y67990D01*
X59830Y67428D01*
X60864Y66803D01*
X61859Y66116D01*
X62810Y65371D01*
X63715Y64569D01*
X64569Y63715D01*
X65371Y62810D01*
X66116Y61859D01*
X66803Y60864D01*
X67428Y59830D01*
X67990Y58759D01*
X68486Y57657D01*
X68915Y56527D01*
X69274Y55373D01*
X69563Y54200D01*
X69781Y53011D01*
X69927Y51811D01*
X70000Y50604D01*
X70000Y49396D01*
X470000Y49396D02*
X469927Y48189D01*
X469781Y46989D01*
X469563Y45800D01*
X469274Y44627D01*
X468915Y43473D01*
X468486Y42343D01*
X467990Y41241D01*
X467428Y40170D01*
X466803Y39136D01*
X466116Y38141D01*
X465371Y37190D01*
X464569Y36285D01*
X463715Y35431D01*
X462810Y34629D01*
X461859Y33884D01*
X460864Y33197D01*
X459830Y32572D01*
X458759Y32010D01*
X457657Y31514D01*
X456527Y31085D01*
X455373Y30726D01*
X454200Y30437D01*
X453011Y30219D01*
X451811Y30073D01*
X450604Y30000D01*
X449396Y30000D01*
X448189Y30073D01*
X446989Y30219D01*
X445800Y30437D01*
X444627Y30726D01*
X443473Y31085D01*
X442343Y31514D01*
X441241Y32010D01*
X440170Y32572D01*
X439136Y33197D01*
X438141Y33884D01*
X437190Y34629D01*
X436285Y35431D01*
X435431Y36285D01*
X434629Y37190D01*
X433884Y38141D01*
X433197Y39136D01*
X432572Y40170D01*
X432010Y41241D01*
X431514Y42343D01*
X431085Y43473D01*
X430726Y44627D01*
X430437Y45800D01*
X430219Y46989D01*
X430073Y48189D01*
X430000Y49396D01*
X430000Y50604D01*
X430073Y51811D01*
X430219Y53011D01*
X430437Y54200D01*
X430726Y55373D01*
X431085Y56527D01*
X431514Y57657D01*
X432010Y58759D01*
X432572Y59830D01*
X433197Y60864D01*
X433884Y61859D01*
X434629Y62810D01*
X435431Y63715D01*
X436285Y64569D01*
X437190Y65371D01*
X438141Y66116D01*
X439136Y66803D01*
X440170Y67428D01*
X441241Y67990D01*
X442343Y68486D01*
X443473Y68915D01*
X444627Y69274D01*
X445800Y69563D01*
X446989Y69781D01*
X448189Y69927D01*
X449396Y70000D01*
X450604Y70000D01*
X451811Y69927D01*
X453011Y69781D01*
X454200Y69563D01*
X455373Y69274D01*
X456527Y68915D01*
X457657Y68486D01*
X458759Y67990D01*
X459830Y67428D01*
X460864Y66803D01*
X461859Y66116D01*
X462810Y65371D01*
X463715Y64569D01*
X464569Y63715D01*
X465371Y62810D01*
X466116Y61859D01*
X466803Y60864D01*
X467428Y59830D01*
X467990Y58759D01*
X468486Y57657D01*
X468915Y56527D01*
X469274Y55373D01*
X469563Y54200D01*
X469781Y53011D01*
X469927Y51811D01*
X470000Y50604D01*
X470000Y49396D01*
M02*
