M48
;GenerationSoftware,Autodesk,EAGLE,9.6.2*%
;CreationDate,2026-07-16T19:16:07Z*%
FMAT,2
ICI,OFF
METRIC,TZ,000.000
T3C1.016
T2C1.700
T1C4.000
%
G90
M71
T1
X5000Y45000
X45000Y45000
X5000Y5000
X45000Y5000
T2
X35000Y41910
X31040Y41910
X34850Y7620
X38810Y7620
T3
X8890Y35560
X11430Y35560
X13970Y35560
X8890Y26670
X11430Y26670
X13970Y26670
X8890Y19050
X11430Y19050
X13970Y19050
X8890Y10160
X11430Y10160
X13970Y10160
X22860Y7620
X25400Y7620
M30