G04 EAGLE Gerber RS-274X export*
G75*
%MOMM*%
%FSLAX34Y34*%
%LPD*%
%INBottom Copper*%
%IPPOS*%
%AMOC8*
5,1,8,0,0,1.08239X$1,22.5*%
G01*
%ADD10C,2.550000*%
%ADD11C,1.524000*%
%ADD12C,0.406400*%
%ADD13C,0.609600*%

G36*
X435106Y10167D02*
X435106Y10167D01*
X435226Y10165D01*
X435461Y10187D01*
X435698Y10201D01*
X435816Y10221D01*
X435935Y10232D01*
X436167Y10280D01*
X436400Y10320D01*
X436515Y10353D01*
X436633Y10378D01*
X436858Y10452D01*
X437085Y10517D01*
X437195Y10563D01*
X437309Y10601D01*
X437524Y10700D01*
X437743Y10790D01*
X437848Y10848D01*
X437957Y10898D01*
X438160Y11021D01*
X438366Y11135D01*
X438464Y11204D01*
X438567Y11266D01*
X438755Y11411D01*
X438947Y11547D01*
X439036Y11627D01*
X439131Y11700D01*
X439302Y11865D01*
X439478Y12022D01*
X439558Y12112D01*
X439644Y12195D01*
X439795Y12377D01*
X439953Y12554D01*
X440022Y12652D01*
X440098Y12744D01*
X440227Y12942D01*
X440365Y13135D01*
X440423Y13240D01*
X440488Y13340D01*
X440594Y13551D01*
X440709Y13759D01*
X440755Y13870D01*
X440808Y13977D01*
X440890Y14198D01*
X440981Y14417D01*
X441014Y14533D01*
X441056Y14645D01*
X441112Y14874D01*
X441178Y15102D01*
X441198Y15220D01*
X441226Y15336D01*
X441257Y15571D01*
X441296Y15804D01*
X441303Y15924D01*
X441319Y16043D01*
X441323Y16279D01*
X441336Y16516D01*
X441329Y16635D01*
X441331Y16755D01*
X441309Y16991D01*
X441295Y17227D01*
X441275Y17345D01*
X441264Y17464D01*
X441215Y17696D01*
X441175Y17929D01*
X441142Y18044D01*
X441117Y18162D01*
X441043Y18386D01*
X440977Y18614D01*
X440931Y18724D01*
X440894Y18838D01*
X440794Y19053D01*
X440704Y19271D01*
X440646Y19376D01*
X440596Y19485D01*
X440473Y19687D01*
X440358Y19895D01*
X440289Y19992D01*
X440227Y20095D01*
X440083Y20282D01*
X439945Y20475D01*
X439866Y20564D01*
X439792Y20659D01*
X439628Y20830D01*
X439470Y21006D01*
X439381Y21085D01*
X439297Y21172D01*
X439115Y21322D01*
X438938Y21480D01*
X438840Y21549D01*
X438748Y21625D01*
X438545Y21758D01*
X438357Y21891D01*
X438258Y21945D01*
X438161Y22009D01*
X431481Y25865D01*
X425865Y31481D01*
X421895Y38358D01*
X419839Y46029D01*
X419839Y53971D01*
X421895Y61642D01*
X425865Y68519D01*
X431481Y74135D01*
X438358Y78105D01*
X446029Y80161D01*
X453971Y80161D01*
X461642Y78105D01*
X468519Y74135D01*
X474135Y68519D01*
X477991Y61839D01*
X478057Y61739D01*
X478115Y61634D01*
X478252Y61441D01*
X478382Y61243D01*
X478458Y61150D01*
X478528Y61053D01*
X478685Y60877D01*
X478836Y60694D01*
X478923Y60611D01*
X479002Y60522D01*
X479179Y60364D01*
X479349Y60200D01*
X479445Y60127D01*
X479534Y60047D01*
X479727Y59911D01*
X479915Y59767D01*
X480017Y59705D01*
X480115Y59635D01*
X480323Y59521D01*
X480525Y59399D01*
X480634Y59349D01*
X480739Y59291D01*
X480957Y59201D01*
X481173Y59102D01*
X481287Y59065D01*
X481397Y59019D01*
X481625Y58954D01*
X481849Y58880D01*
X481967Y58856D01*
X482082Y58822D01*
X482315Y58783D01*
X482547Y58735D01*
X482666Y58724D01*
X482784Y58704D01*
X483021Y58691D01*
X483256Y58669D01*
X483376Y58671D01*
X483496Y58664D01*
X483732Y58678D01*
X483969Y58682D01*
X484087Y58698D01*
X484207Y58705D01*
X484440Y58745D01*
X484675Y58776D01*
X484791Y58805D01*
X484909Y58825D01*
X485137Y58891D01*
X485366Y58948D01*
X485478Y58990D01*
X485594Y59023D01*
X485812Y59114D01*
X486034Y59196D01*
X486141Y59250D01*
X486251Y59296D01*
X486459Y59411D01*
X486670Y59518D01*
X486770Y59583D01*
X486875Y59642D01*
X487067Y59779D01*
X487265Y59909D01*
X487358Y59985D01*
X487455Y60055D01*
X487631Y60212D01*
X487813Y60364D01*
X487896Y60450D01*
X487986Y60530D01*
X488143Y60707D01*
X488307Y60877D01*
X488380Y60972D01*
X488460Y61062D01*
X488596Y61255D01*
X488740Y61443D01*
X488802Y61546D01*
X488871Y61643D01*
X488985Y61850D01*
X489107Y62054D01*
X489157Y62163D01*
X489215Y62268D01*
X489305Y62486D01*
X489403Y62701D01*
X489441Y62815D01*
X489486Y62926D01*
X489551Y63153D01*
X489625Y63378D01*
X489649Y63496D01*
X489682Y63611D01*
X489722Y63844D01*
X489770Y64076D01*
X489781Y64195D01*
X489801Y64314D01*
X489814Y64556D01*
X489835Y64785D01*
X489833Y64898D01*
X489839Y65014D01*
X489839Y434987D01*
X489833Y435106D01*
X489835Y435226D01*
X489813Y435461D01*
X489799Y435698D01*
X489779Y435816D01*
X489768Y435935D01*
X489719Y436167D01*
X489680Y436400D01*
X489647Y436515D01*
X489622Y436633D01*
X489548Y436858D01*
X489483Y437085D01*
X489437Y437195D01*
X489399Y437309D01*
X489300Y437524D01*
X489210Y437743D01*
X489152Y437848D01*
X489102Y437957D01*
X488980Y438159D01*
X488865Y438366D01*
X488796Y438464D01*
X488734Y438567D01*
X488589Y438755D01*
X488453Y438947D01*
X488373Y439036D01*
X488300Y439131D01*
X488135Y439302D01*
X487978Y439478D01*
X487888Y439558D01*
X487805Y439644D01*
X487623Y439795D01*
X487446Y439953D01*
X487348Y440022D01*
X487256Y440098D01*
X487058Y440228D01*
X486865Y440365D01*
X486760Y440423D01*
X486660Y440488D01*
X486448Y440594D01*
X486241Y440709D01*
X486130Y440755D01*
X486023Y440808D01*
X485802Y440890D01*
X485583Y440981D01*
X485467Y441014D01*
X485355Y441056D01*
X485126Y441112D01*
X484898Y441178D01*
X484780Y441198D01*
X484664Y441226D01*
X484429Y441257D01*
X484196Y441296D01*
X484076Y441303D01*
X483957Y441319D01*
X483721Y441323D01*
X483484Y441336D01*
X483364Y441329D01*
X483245Y441331D01*
X483009Y441309D01*
X482773Y441295D01*
X482655Y441275D01*
X482536Y441264D01*
X482304Y441215D01*
X482071Y441175D01*
X481956Y441142D01*
X481838Y441117D01*
X481614Y441043D01*
X481386Y440977D01*
X481276Y440931D01*
X481162Y440894D01*
X480947Y440794D01*
X480729Y440704D01*
X480624Y440646D01*
X480515Y440596D01*
X480312Y440473D01*
X480105Y440358D01*
X480008Y440289D01*
X479905Y440227D01*
X479718Y440082D01*
X479525Y439945D01*
X479436Y439866D01*
X479341Y439792D01*
X479170Y439628D01*
X478994Y439470D01*
X478915Y439381D01*
X478828Y439297D01*
X478678Y439115D01*
X478520Y438938D01*
X478451Y438840D01*
X478375Y438748D01*
X478242Y438545D01*
X478109Y438357D01*
X478055Y438258D01*
X477991Y438161D01*
X474135Y431481D01*
X468519Y425865D01*
X461642Y421895D01*
X453971Y419839D01*
X446029Y419839D01*
X438358Y421895D01*
X431481Y425865D01*
X425865Y431481D01*
X421895Y438358D01*
X419839Y446029D01*
X419839Y453971D01*
X421895Y461642D01*
X425865Y468519D01*
X431481Y474135D01*
X438161Y477991D01*
X438261Y478057D01*
X438366Y478115D01*
X438559Y478252D01*
X438757Y478382D01*
X438850Y478458D01*
X438947Y478528D01*
X439123Y478685D01*
X439306Y478836D01*
X439389Y478923D01*
X439478Y479002D01*
X439636Y479179D01*
X439800Y479349D01*
X439873Y479445D01*
X439953Y479534D01*
X440089Y479727D01*
X440233Y479915D01*
X440295Y480017D01*
X440365Y480115D01*
X440479Y480323D01*
X440601Y480525D01*
X440651Y480634D01*
X440709Y480739D01*
X440799Y480957D01*
X440898Y481173D01*
X440935Y481287D01*
X440981Y481397D01*
X441046Y481625D01*
X441120Y481849D01*
X441144Y481967D01*
X441178Y482082D01*
X441217Y482315D01*
X441265Y482547D01*
X441276Y482666D01*
X441296Y482784D01*
X441309Y483021D01*
X441331Y483256D01*
X441329Y483376D01*
X441336Y483496D01*
X441322Y483732D01*
X441318Y483969D01*
X441302Y484087D01*
X441295Y484207D01*
X441255Y484440D01*
X441224Y484675D01*
X441195Y484791D01*
X441175Y484909D01*
X441109Y485137D01*
X441052Y485366D01*
X441010Y485478D01*
X440977Y485594D01*
X440886Y485812D01*
X440804Y486034D01*
X440750Y486141D01*
X440704Y486251D01*
X440589Y486459D01*
X440482Y486670D01*
X440417Y486770D01*
X440358Y486875D01*
X440221Y487067D01*
X440091Y487265D01*
X440015Y487358D01*
X439945Y487455D01*
X439788Y487631D01*
X439636Y487813D01*
X439550Y487896D01*
X439470Y487986D01*
X439293Y488143D01*
X439123Y488307D01*
X439028Y488380D01*
X438938Y488460D01*
X438745Y488596D01*
X438557Y488740D01*
X438454Y488802D01*
X438357Y488871D01*
X438150Y488985D01*
X437946Y489107D01*
X437837Y489157D01*
X437732Y489215D01*
X437514Y489305D01*
X437299Y489403D01*
X437185Y489441D01*
X437074Y489486D01*
X436847Y489551D01*
X436622Y489625D01*
X436504Y489649D01*
X436389Y489682D01*
X436156Y489722D01*
X435924Y489770D01*
X435805Y489781D01*
X435686Y489801D01*
X435444Y489814D01*
X435215Y489835D01*
X435102Y489833D01*
X434986Y489839D01*
X65013Y489839D01*
X64894Y489833D01*
X64774Y489835D01*
X64539Y489813D01*
X64302Y489799D01*
X64184Y489779D01*
X64065Y489768D01*
X63833Y489719D01*
X63600Y489680D01*
X63485Y489647D01*
X63367Y489622D01*
X63142Y489548D01*
X62915Y489483D01*
X62805Y489437D01*
X62691Y489399D01*
X62476Y489300D01*
X62257Y489210D01*
X62152Y489152D01*
X62043Y489102D01*
X61841Y488979D01*
X61634Y488865D01*
X61536Y488796D01*
X61433Y488734D01*
X61245Y488589D01*
X61053Y488453D01*
X60964Y488373D01*
X60869Y488300D01*
X60698Y488135D01*
X60522Y487978D01*
X60442Y487888D01*
X60356Y487805D01*
X60205Y487623D01*
X60047Y487446D01*
X59978Y487348D01*
X59902Y487256D01*
X59772Y487058D01*
X59635Y486865D01*
X59577Y486760D01*
X59512Y486660D01*
X59406Y486448D01*
X59291Y486241D01*
X59245Y486130D01*
X59192Y486023D01*
X59110Y485802D01*
X59019Y485583D01*
X58986Y485467D01*
X58944Y485355D01*
X58888Y485126D01*
X58822Y484898D01*
X58802Y484780D01*
X58774Y484664D01*
X58743Y484429D01*
X58704Y484196D01*
X58697Y484076D01*
X58681Y483957D01*
X58677Y483721D01*
X58664Y483484D01*
X58671Y483364D01*
X58669Y483245D01*
X58691Y483009D01*
X58705Y482773D01*
X58725Y482655D01*
X58736Y482536D01*
X58785Y482304D01*
X58825Y482071D01*
X58858Y481956D01*
X58883Y481838D01*
X58957Y481614D01*
X59023Y481386D01*
X59069Y481276D01*
X59106Y481162D01*
X59206Y480947D01*
X59296Y480729D01*
X59354Y480624D01*
X59404Y480515D01*
X59527Y480312D01*
X59642Y480105D01*
X59711Y480008D01*
X59773Y479905D01*
X59918Y479718D01*
X60055Y479525D01*
X60134Y479436D01*
X60208Y479341D01*
X60372Y479170D01*
X60530Y478994D01*
X60619Y478915D01*
X60703Y478828D01*
X60885Y478678D01*
X61062Y478520D01*
X61160Y478451D01*
X61252Y478375D01*
X61455Y478242D01*
X61643Y478109D01*
X61742Y478055D01*
X61839Y477991D01*
X68519Y474135D01*
X74135Y468519D01*
X78105Y461642D01*
X80161Y453971D01*
X80161Y446029D01*
X78105Y438358D01*
X74135Y431481D01*
X68519Y425865D01*
X61642Y421895D01*
X53971Y419839D01*
X46029Y419839D01*
X38358Y421895D01*
X31481Y425865D01*
X25865Y431481D01*
X22009Y438161D01*
X21943Y438261D01*
X21885Y438366D01*
X21748Y438559D01*
X21618Y438757D01*
X21542Y438850D01*
X21472Y438947D01*
X21315Y439123D01*
X21164Y439306D01*
X21077Y439389D01*
X20998Y439478D01*
X20821Y439636D01*
X20651Y439800D01*
X20555Y439873D01*
X20466Y439953D01*
X20273Y440089D01*
X20085Y440233D01*
X19983Y440295D01*
X19885Y440365D01*
X19677Y440479D01*
X19475Y440601D01*
X19366Y440651D01*
X19261Y440709D01*
X19043Y440799D01*
X18827Y440898D01*
X18713Y440935D01*
X18603Y440981D01*
X18375Y441046D01*
X18151Y441120D01*
X18033Y441144D01*
X17918Y441178D01*
X17685Y441217D01*
X17453Y441265D01*
X17334Y441276D01*
X17216Y441296D01*
X16979Y441309D01*
X16744Y441331D01*
X16624Y441329D01*
X16504Y441336D01*
X16268Y441322D01*
X16031Y441318D01*
X15913Y441302D01*
X15793Y441295D01*
X15560Y441255D01*
X15325Y441224D01*
X15209Y441195D01*
X15091Y441175D01*
X14863Y441109D01*
X14634Y441052D01*
X14522Y441010D01*
X14406Y440977D01*
X14188Y440886D01*
X13966Y440804D01*
X13859Y440750D01*
X13749Y440704D01*
X13541Y440589D01*
X13330Y440482D01*
X13230Y440417D01*
X13125Y440358D01*
X12933Y440221D01*
X12735Y440091D01*
X12642Y440015D01*
X12545Y439945D01*
X12369Y439788D01*
X12187Y439636D01*
X12104Y439550D01*
X12014Y439470D01*
X11857Y439293D01*
X11693Y439123D01*
X11620Y439028D01*
X11540Y438938D01*
X11404Y438745D01*
X11260Y438557D01*
X11198Y438454D01*
X11129Y438357D01*
X11015Y438150D01*
X10893Y437946D01*
X10843Y437837D01*
X10785Y437732D01*
X10695Y437514D01*
X10597Y437299D01*
X10559Y437185D01*
X10514Y437074D01*
X10449Y436847D01*
X10375Y436622D01*
X10351Y436504D01*
X10318Y436389D01*
X10278Y436156D01*
X10230Y435924D01*
X10219Y435805D01*
X10199Y435686D01*
X10186Y435444D01*
X10165Y435215D01*
X10167Y435102D01*
X10161Y434986D01*
X10161Y65014D01*
X10167Y64894D01*
X10165Y64774D01*
X10187Y64539D01*
X10201Y64302D01*
X10221Y64184D01*
X10232Y64065D01*
X10280Y63833D01*
X10320Y63600D01*
X10353Y63485D01*
X10378Y63367D01*
X10452Y63142D01*
X10517Y62915D01*
X10563Y62805D01*
X10601Y62691D01*
X10700Y62476D01*
X10790Y62257D01*
X10848Y62152D01*
X10898Y62043D01*
X11021Y61840D01*
X11135Y61634D01*
X11204Y61536D01*
X11266Y61433D01*
X11411Y61245D01*
X11547Y61053D01*
X11627Y60964D01*
X11700Y60869D01*
X11865Y60698D01*
X12022Y60522D01*
X12112Y60442D01*
X12195Y60356D01*
X12377Y60205D01*
X12554Y60047D01*
X12652Y59978D01*
X12744Y59902D01*
X12942Y59773D01*
X13135Y59635D01*
X13240Y59577D01*
X13340Y59512D01*
X13551Y59406D01*
X13759Y59291D01*
X13870Y59245D01*
X13977Y59192D01*
X14198Y59110D01*
X14417Y59019D01*
X14533Y58986D01*
X14645Y58944D01*
X14874Y58888D01*
X15102Y58822D01*
X15220Y58802D01*
X15336Y58774D01*
X15571Y58743D01*
X15804Y58704D01*
X15924Y58697D01*
X16043Y58681D01*
X16279Y58677D01*
X16516Y58664D01*
X16636Y58671D01*
X16755Y58669D01*
X16991Y58691D01*
X17227Y58705D01*
X17345Y58725D01*
X17464Y58736D01*
X17696Y58785D01*
X17929Y58825D01*
X18044Y58858D01*
X18162Y58883D01*
X18386Y58957D01*
X18614Y59023D01*
X18724Y59069D01*
X18838Y59106D01*
X19053Y59206D01*
X19271Y59296D01*
X19376Y59354D01*
X19485Y59404D01*
X19687Y59527D01*
X19895Y59642D01*
X19992Y59711D01*
X20095Y59773D01*
X20282Y59917D01*
X20475Y60055D01*
X20564Y60134D01*
X20659Y60208D01*
X20830Y60372D01*
X21006Y60530D01*
X21085Y60619D01*
X21172Y60703D01*
X21322Y60885D01*
X21480Y61062D01*
X21549Y61160D01*
X21625Y61252D01*
X21758Y61455D01*
X21891Y61643D01*
X21945Y61742D01*
X22009Y61839D01*
X25865Y68519D01*
X31481Y74135D01*
X38358Y78105D01*
X46029Y80161D01*
X53971Y80161D01*
X61642Y78105D01*
X68519Y74135D01*
X74135Y68519D01*
X78105Y61642D01*
X80161Y53971D01*
X80161Y46029D01*
X78105Y38358D01*
X74135Y31481D01*
X68519Y25865D01*
X61839Y22009D01*
X61739Y21943D01*
X61634Y21885D01*
X61441Y21748D01*
X61243Y21618D01*
X61150Y21542D01*
X61053Y21472D01*
X60877Y21315D01*
X60694Y21164D01*
X60611Y21077D01*
X60522Y20998D01*
X60364Y20821D01*
X60200Y20651D01*
X60127Y20556D01*
X60047Y20466D01*
X59910Y20273D01*
X59767Y20085D01*
X59705Y19983D01*
X59635Y19885D01*
X59521Y19677D01*
X59399Y19475D01*
X59349Y19366D01*
X59291Y19261D01*
X59201Y19042D01*
X59102Y18827D01*
X59065Y18714D01*
X59019Y18603D01*
X58954Y18375D01*
X58880Y18151D01*
X58855Y18033D01*
X58822Y17918D01*
X58783Y17685D01*
X58735Y17453D01*
X58724Y17334D01*
X58704Y17216D01*
X58691Y16979D01*
X58669Y16744D01*
X58671Y16624D01*
X58664Y16504D01*
X58678Y16268D01*
X58682Y16031D01*
X58698Y15913D01*
X58705Y15793D01*
X58745Y15560D01*
X58776Y15325D01*
X58805Y15209D01*
X58825Y15091D01*
X58891Y14864D01*
X58948Y14634D01*
X58990Y14521D01*
X59023Y14406D01*
X59114Y14188D01*
X59196Y13966D01*
X59250Y13859D01*
X59296Y13749D01*
X59411Y13542D01*
X59518Y13330D01*
X59583Y13230D01*
X59642Y13125D01*
X59779Y12933D01*
X59909Y12735D01*
X59985Y12642D01*
X60055Y12545D01*
X60212Y12369D01*
X60364Y12187D01*
X60450Y12104D01*
X60530Y12014D01*
X60706Y11857D01*
X60877Y11693D01*
X60972Y11620D01*
X61062Y11540D01*
X61255Y11404D01*
X61443Y11260D01*
X61546Y11198D01*
X61643Y11129D01*
X61851Y11015D01*
X62054Y10893D01*
X62162Y10843D01*
X62267Y10785D01*
X62486Y10695D01*
X62701Y10597D01*
X62815Y10559D01*
X62926Y10514D01*
X63154Y10449D01*
X63378Y10375D01*
X63496Y10351D01*
X63611Y10318D01*
X63844Y10278D01*
X64076Y10230D01*
X64195Y10219D01*
X64314Y10199D01*
X64556Y10186D01*
X64785Y10165D01*
X64898Y10167D01*
X65013Y10161D01*
X434986Y10161D01*
X435106Y10167D01*
G37*
%LPC*%
G36*
X87081Y84835D02*
X87081Y84835D01*
X83720Y86227D01*
X81147Y88800D01*
X79755Y92161D01*
X79755Y111039D01*
X81147Y114400D01*
X82468Y115720D01*
X82470Y115723D01*
X82474Y115726D01*
X82707Y115988D01*
X82942Y116251D01*
X82945Y116255D01*
X82948Y116258D01*
X83152Y116547D01*
X83354Y116832D01*
X83357Y116836D01*
X83359Y116840D01*
X83527Y117144D01*
X83699Y117456D01*
X83701Y117460D01*
X83703Y117464D01*
X83834Y117782D01*
X83971Y118114D01*
X83973Y118118D01*
X83974Y118122D01*
X84069Y118455D01*
X84169Y118799D01*
X84169Y118803D01*
X84170Y118807D01*
X84228Y119153D01*
X84288Y119501D01*
X84288Y119505D01*
X84289Y119510D01*
X84327Y120210D01*
X84327Y171890D01*
X84327Y171894D01*
X84327Y171899D01*
X84307Y172252D01*
X84287Y172601D01*
X84287Y172606D01*
X84286Y172610D01*
X84228Y172947D01*
X84168Y173304D01*
X84167Y173308D01*
X84166Y173312D01*
X84064Y173664D01*
X83971Y173988D01*
X83969Y173992D01*
X83968Y173996D01*
X83837Y174310D01*
X83698Y174646D01*
X83696Y174650D01*
X83694Y174654D01*
X83524Y174961D01*
X83353Y175270D01*
X83351Y175273D01*
X83348Y175277D01*
X83136Y175576D01*
X82941Y175851D01*
X82938Y175854D01*
X82935Y175857D01*
X82468Y176380D01*
X81147Y177700D01*
X79755Y181061D01*
X79755Y199939D01*
X81147Y203300D01*
X82468Y204620D01*
X82470Y204623D01*
X82474Y204626D01*
X82703Y204884D01*
X82942Y205151D01*
X82945Y205155D01*
X82948Y205158D01*
X83149Y205443D01*
X83355Y205733D01*
X83357Y205736D01*
X83359Y205740D01*
X83530Y206050D01*
X83699Y206356D01*
X83701Y206360D01*
X83703Y206364D01*
X83837Y206689D01*
X83972Y207014D01*
X83973Y207019D01*
X83974Y207022D01*
X84071Y207361D01*
X84169Y207699D01*
X84169Y207703D01*
X84170Y207707D01*
X84230Y208064D01*
X84288Y208401D01*
X84288Y208406D01*
X84289Y208410D01*
X84327Y209110D01*
X84327Y248090D01*
X84327Y248094D01*
X84327Y248099D01*
X84307Y248452D01*
X84287Y248801D01*
X84287Y248806D01*
X84286Y248810D01*
X84228Y249147D01*
X84168Y249504D01*
X84167Y249508D01*
X84166Y249512D01*
X84064Y249864D01*
X83971Y250188D01*
X83969Y250192D01*
X83968Y250196D01*
X83837Y250510D01*
X83698Y250846D01*
X83696Y250850D01*
X83694Y250854D01*
X83524Y251161D01*
X83353Y251470D01*
X83351Y251473D01*
X83348Y251477D01*
X83136Y251776D01*
X82941Y252051D01*
X82938Y252054D01*
X82935Y252057D01*
X82468Y252580D01*
X81147Y253900D01*
X79755Y257261D01*
X79755Y276139D01*
X81147Y279500D01*
X82468Y280820D01*
X82470Y280823D01*
X82474Y280826D01*
X82707Y281088D01*
X82942Y281351D01*
X82945Y281355D01*
X82948Y281358D01*
X83149Y281643D01*
X83355Y281933D01*
X83357Y281936D01*
X83359Y281940D01*
X83530Y282250D01*
X83699Y282556D01*
X83701Y282560D01*
X83703Y282564D01*
X83837Y282889D01*
X83972Y283214D01*
X83973Y283219D01*
X83974Y283222D01*
X84071Y283561D01*
X84169Y283899D01*
X84169Y283903D01*
X84170Y283907D01*
X84230Y284264D01*
X84288Y284601D01*
X84288Y284606D01*
X84289Y284610D01*
X84327Y285310D01*
X84327Y336990D01*
X84327Y336994D01*
X84327Y336999D01*
X84307Y337347D01*
X84287Y337701D01*
X84287Y337706D01*
X84286Y337710D01*
X84228Y338047D01*
X84168Y338404D01*
X84167Y338408D01*
X84166Y338412D01*
X84064Y338764D01*
X83971Y339088D01*
X83969Y339092D01*
X83968Y339096D01*
X83837Y339410D01*
X83698Y339746D01*
X83696Y339750D01*
X83694Y339754D01*
X83524Y340061D01*
X83353Y340370D01*
X83351Y340373D01*
X83348Y340377D01*
X83137Y340675D01*
X82941Y340951D01*
X82938Y340954D01*
X82935Y340957D01*
X82468Y341480D01*
X81147Y342800D01*
X79755Y346161D01*
X79755Y365039D01*
X81147Y368400D01*
X83720Y370973D01*
X87081Y372365D01*
X90719Y372365D01*
X94080Y370973D01*
X96521Y368532D01*
X96567Y368490D01*
X96609Y368445D01*
X96832Y368254D01*
X97052Y368057D01*
X97103Y368021D01*
X97150Y367981D01*
X97393Y367815D01*
X97633Y367645D01*
X97687Y367615D01*
X97739Y367580D01*
X98000Y367442D01*
X98257Y367300D01*
X98314Y367277D01*
X98369Y367248D01*
X98644Y367140D01*
X98915Y367028D01*
X98975Y367011D01*
X99033Y366988D01*
X99317Y366912D01*
X99600Y366831D01*
X99661Y366820D01*
X99721Y366804D01*
X100012Y366761D01*
X100302Y366712D01*
X100364Y366708D01*
X100425Y366699D01*
X100720Y366688D01*
X101013Y366672D01*
X101075Y366676D01*
X101137Y366673D01*
X101430Y366696D01*
X101725Y366712D01*
X101786Y366723D01*
X101848Y366728D01*
X102136Y366783D01*
X102427Y366832D01*
X102487Y366849D01*
X102548Y366861D01*
X102828Y366948D01*
X103111Y367030D01*
X103169Y367054D01*
X103228Y367072D01*
X103497Y367190D01*
X103769Y367303D01*
X103824Y367333D01*
X103881Y367358D01*
X104136Y367506D01*
X104393Y367648D01*
X104443Y367684D01*
X104497Y367715D01*
X104734Y367890D01*
X104973Y368061D01*
X105020Y368102D01*
X105070Y368139D01*
X105285Y368340D01*
X105504Y368536D01*
X105545Y368582D01*
X105591Y368624D01*
X105792Y368858D01*
X105978Y369067D01*
X106011Y369113D01*
X106048Y369156D01*
X106644Y369934D01*
X107586Y370876D01*
X107951Y371155D01*
X107951Y355600D01*
X107951Y340045D01*
X107586Y340324D01*
X106644Y341266D01*
X106048Y342044D01*
X106007Y342091D01*
X105971Y342142D01*
X105775Y342361D01*
X105583Y342584D01*
X105537Y342626D01*
X105496Y342672D01*
X105276Y342868D01*
X105061Y343068D01*
X105011Y343105D01*
X104964Y343147D01*
X104724Y343316D01*
X104487Y343491D01*
X104434Y343522D01*
X104383Y343558D01*
X104125Y343700D01*
X103870Y343847D01*
X103814Y343872D01*
X103759Y343902D01*
X103487Y344015D01*
X103217Y344132D01*
X103158Y344150D01*
X103100Y344174D01*
X102817Y344255D01*
X102536Y344342D01*
X102476Y344353D01*
X102416Y344370D01*
X102125Y344420D01*
X101836Y344474D01*
X101775Y344479D01*
X101713Y344489D01*
X101419Y344505D01*
X101126Y344527D01*
X101064Y344525D01*
X101002Y344528D01*
X100708Y344511D01*
X100414Y344500D01*
X100353Y344491D01*
X100291Y344487D01*
X100001Y344437D01*
X99710Y344393D01*
X99649Y344377D01*
X99588Y344367D01*
X99306Y344285D01*
X99022Y344208D01*
X98964Y344186D01*
X98904Y344168D01*
X98633Y344055D01*
X98359Y343948D01*
X98304Y343919D01*
X98246Y343895D01*
X97989Y343752D01*
X97729Y343614D01*
X97678Y343579D01*
X97623Y343549D01*
X97384Y343379D01*
X97141Y343212D01*
X97094Y343172D01*
X97043Y343136D01*
X96814Y342931D01*
X96601Y342747D01*
X96563Y342706D01*
X96521Y342668D01*
X95332Y341480D01*
X95330Y341477D01*
X95326Y341474D01*
X95088Y341207D01*
X94858Y340948D01*
X94855Y340945D01*
X94852Y340942D01*
X94646Y340651D01*
X94445Y340367D01*
X94443Y340364D01*
X94441Y340360D01*
X94266Y340043D01*
X94101Y339744D01*
X94099Y339740D01*
X94097Y339736D01*
X93965Y339415D01*
X93828Y339086D01*
X93827Y339081D01*
X93826Y339078D01*
X93731Y338748D01*
X93631Y338401D01*
X93631Y338397D01*
X93630Y338393D01*
X93572Y338047D01*
X93512Y337699D01*
X93512Y337694D01*
X93511Y337690D01*
X93473Y336990D01*
X93473Y285310D01*
X93473Y285306D01*
X93473Y285301D01*
X93493Y284951D01*
X93513Y284599D01*
X93513Y284594D01*
X93514Y284590D01*
X93574Y284238D01*
X93632Y283896D01*
X93633Y283892D01*
X93634Y283888D01*
X93731Y283555D01*
X93829Y283212D01*
X93831Y283208D01*
X93832Y283204D01*
X93964Y282888D01*
X94102Y282554D01*
X94104Y282550D01*
X94106Y282546D01*
X94275Y282241D01*
X94447Y281930D01*
X94449Y281927D01*
X94452Y281923D01*
X94665Y281623D01*
X94859Y281349D01*
X94862Y281346D01*
X94865Y281343D01*
X95332Y280820D01*
X96521Y279632D01*
X96567Y279590D01*
X96609Y279545D01*
X96832Y279353D01*
X97052Y279157D01*
X97103Y279121D01*
X97150Y279081D01*
X97393Y278915D01*
X97633Y278745D01*
X97688Y278715D01*
X97739Y278680D01*
X97999Y278543D01*
X98257Y278400D01*
X98314Y278377D01*
X98369Y278348D01*
X98643Y278240D01*
X98915Y278128D01*
X98975Y278111D01*
X99033Y278088D01*
X99316Y278012D01*
X99600Y277931D01*
X99661Y277920D01*
X99721Y277904D01*
X100012Y277861D01*
X100302Y277812D01*
X100364Y277808D01*
X100425Y277799D01*
X100719Y277788D01*
X101013Y277772D01*
X101075Y277776D01*
X101137Y277773D01*
X101430Y277796D01*
X101725Y277812D01*
X101786Y277823D01*
X101848Y277828D01*
X102137Y277883D01*
X102427Y277932D01*
X102486Y277949D01*
X102548Y277961D01*
X102829Y278048D01*
X103111Y278130D01*
X103169Y278154D01*
X103228Y278172D01*
X103497Y278290D01*
X103769Y278403D01*
X103824Y278433D01*
X103881Y278458D01*
X104135Y278605D01*
X104393Y278748D01*
X104443Y278784D01*
X104497Y278815D01*
X104733Y278990D01*
X104973Y279161D01*
X105020Y279202D01*
X105070Y279239D01*
X105284Y279439D01*
X105504Y279636D01*
X105546Y279682D01*
X105591Y279724D01*
X105792Y279958D01*
X105978Y280167D01*
X106011Y280213D01*
X106048Y280256D01*
X106644Y281034D01*
X107586Y281976D01*
X107951Y282255D01*
X107951Y266700D01*
X107951Y251145D01*
X107586Y251424D01*
X106644Y252366D01*
X106048Y253144D01*
X106007Y253191D01*
X105971Y253242D01*
X105775Y253461D01*
X105583Y253684D01*
X105537Y253726D01*
X105496Y253772D01*
X105276Y253968D01*
X105061Y254168D01*
X105011Y254205D01*
X104964Y254247D01*
X104724Y254416D01*
X104487Y254591D01*
X104434Y254622D01*
X104383Y254658D01*
X104125Y254800D01*
X103870Y254947D01*
X103814Y254972D01*
X103759Y255002D01*
X103487Y255115D01*
X103217Y255232D01*
X103158Y255250D01*
X103100Y255274D01*
X102817Y255355D01*
X102536Y255442D01*
X102476Y255453D01*
X102416Y255470D01*
X102125Y255520D01*
X101836Y255574D01*
X101775Y255579D01*
X101713Y255589D01*
X101419Y255605D01*
X101126Y255627D01*
X101064Y255625D01*
X101002Y255628D01*
X100708Y255611D01*
X100414Y255600D01*
X100353Y255591D01*
X100291Y255587D01*
X100001Y255537D01*
X99710Y255493D01*
X99649Y255477D01*
X99588Y255467D01*
X99306Y255385D01*
X99022Y255308D01*
X98964Y255286D01*
X98904Y255268D01*
X98633Y255155D01*
X98359Y255048D01*
X98304Y255019D01*
X98246Y254995D01*
X97989Y254852D01*
X97729Y254714D01*
X97678Y254679D01*
X97623Y254649D01*
X97384Y254479D01*
X97141Y254312D01*
X97094Y254272D01*
X97043Y254236D01*
X96814Y254031D01*
X96601Y253847D01*
X96563Y253806D01*
X96521Y253768D01*
X95332Y252580D01*
X95330Y252577D01*
X95326Y252574D01*
X95088Y252307D01*
X94858Y252048D01*
X94855Y252045D01*
X94852Y252042D01*
X94646Y251751D01*
X94445Y251467D01*
X94443Y251464D01*
X94441Y251460D01*
X94266Y251143D01*
X94101Y250844D01*
X94099Y250840D01*
X94097Y250836D01*
X93965Y250515D01*
X93828Y250186D01*
X93827Y250181D01*
X93826Y250178D01*
X93731Y249848D01*
X93631Y249501D01*
X93631Y249497D01*
X93630Y249493D01*
X93572Y249147D01*
X93512Y248799D01*
X93512Y248794D01*
X93511Y248790D01*
X93473Y248090D01*
X93473Y209110D01*
X93473Y209106D01*
X93473Y209101D01*
X93493Y208751D01*
X93513Y208399D01*
X93513Y208394D01*
X93514Y208390D01*
X93574Y208038D01*
X93632Y207696D01*
X93633Y207692D01*
X93634Y207688D01*
X93731Y207355D01*
X93829Y207012D01*
X93831Y207008D01*
X93832Y207004D01*
X93964Y206688D01*
X94102Y206354D01*
X94104Y206350D01*
X94106Y206346D01*
X94275Y206041D01*
X94447Y205730D01*
X94449Y205727D01*
X94452Y205723D01*
X94665Y205423D01*
X94859Y205149D01*
X94862Y205146D01*
X94865Y205143D01*
X95332Y204620D01*
X96521Y203432D01*
X96567Y203390D01*
X96609Y203345D01*
X96832Y203153D01*
X97052Y202957D01*
X97103Y202921D01*
X97150Y202881D01*
X97393Y202715D01*
X97633Y202545D01*
X97688Y202515D01*
X97739Y202480D01*
X97999Y202343D01*
X98257Y202200D01*
X98314Y202177D01*
X98369Y202148D01*
X98643Y202040D01*
X98915Y201928D01*
X98975Y201911D01*
X99033Y201888D01*
X99316Y201812D01*
X99600Y201731D01*
X99661Y201720D01*
X99721Y201704D01*
X100012Y201661D01*
X100302Y201612D01*
X100364Y201608D01*
X100425Y201599D01*
X100719Y201588D01*
X101013Y201572D01*
X101075Y201576D01*
X101137Y201573D01*
X101430Y201596D01*
X101725Y201612D01*
X101786Y201623D01*
X101848Y201628D01*
X102137Y201683D01*
X102427Y201732D01*
X102486Y201749D01*
X102548Y201761D01*
X102829Y201848D01*
X103111Y201930D01*
X103169Y201954D01*
X103228Y201972D01*
X103497Y202090D01*
X103769Y202203D01*
X103824Y202233D01*
X103881Y202258D01*
X104135Y202405D01*
X104393Y202548D01*
X104443Y202584D01*
X104497Y202615D01*
X104733Y202790D01*
X104973Y202961D01*
X105020Y203002D01*
X105070Y203039D01*
X105284Y203239D01*
X105504Y203436D01*
X105546Y203482D01*
X105591Y203524D01*
X105792Y203758D01*
X105978Y203967D01*
X106011Y204013D01*
X106048Y204056D01*
X106644Y204834D01*
X107586Y205776D01*
X107951Y206055D01*
X107951Y190500D01*
X107951Y174945D01*
X107586Y175224D01*
X106644Y176166D01*
X106048Y176944D01*
X106007Y176991D01*
X105971Y177042D01*
X105775Y177261D01*
X105583Y177484D01*
X105537Y177526D01*
X105496Y177572D01*
X105276Y177768D01*
X105061Y177968D01*
X105011Y178005D01*
X104964Y178047D01*
X104724Y178216D01*
X104487Y178391D01*
X104434Y178422D01*
X104383Y178458D01*
X104125Y178600D01*
X103870Y178747D01*
X103814Y178772D01*
X103759Y178802D01*
X103487Y178915D01*
X103217Y179032D01*
X103158Y179050D01*
X103100Y179074D01*
X102817Y179155D01*
X102536Y179242D01*
X102476Y179253D01*
X102416Y179270D01*
X102125Y179320D01*
X101836Y179374D01*
X101775Y179379D01*
X101713Y179389D01*
X101419Y179405D01*
X101126Y179427D01*
X101064Y179425D01*
X101002Y179428D01*
X100708Y179411D01*
X100414Y179400D01*
X100353Y179391D01*
X100291Y179387D01*
X100001Y179337D01*
X99710Y179293D01*
X99649Y179277D01*
X99588Y179267D01*
X99306Y179185D01*
X99022Y179108D01*
X98964Y179086D01*
X98904Y179068D01*
X98633Y178955D01*
X98359Y178848D01*
X98304Y178819D01*
X98246Y178795D01*
X97989Y178652D01*
X97729Y178514D01*
X97678Y178479D01*
X97623Y178449D01*
X97384Y178279D01*
X97141Y178112D01*
X97094Y178072D01*
X97043Y178036D01*
X96814Y177831D01*
X96601Y177647D01*
X96563Y177606D01*
X96521Y177568D01*
X95332Y176380D01*
X95330Y176377D01*
X95326Y176374D01*
X95088Y176107D01*
X94858Y175848D01*
X94855Y175845D01*
X94852Y175842D01*
X94646Y175551D01*
X94445Y175267D01*
X94443Y175264D01*
X94441Y175260D01*
X94266Y174943D01*
X94101Y174644D01*
X94099Y174640D01*
X94097Y174636D01*
X93965Y174315D01*
X93828Y173986D01*
X93827Y173981D01*
X93826Y173978D01*
X93731Y173648D01*
X93631Y173301D01*
X93631Y173297D01*
X93630Y173293D01*
X93572Y172947D01*
X93512Y172599D01*
X93512Y172594D01*
X93511Y172590D01*
X93473Y171890D01*
X93473Y120210D01*
X93473Y120206D01*
X93473Y120201D01*
X93493Y119848D01*
X93513Y119499D01*
X93513Y119494D01*
X93514Y119490D01*
X93576Y119128D01*
X93632Y118796D01*
X93633Y118792D01*
X93634Y118788D01*
X93736Y118436D01*
X93829Y118112D01*
X93831Y118108D01*
X93832Y118104D01*
X93968Y117777D01*
X94102Y117453D01*
X94104Y117450D01*
X94106Y117446D01*
X94276Y117139D01*
X94447Y116830D01*
X94449Y116827D01*
X94452Y116823D01*
X94671Y116515D01*
X94859Y116249D01*
X94862Y116246D01*
X94865Y116242D01*
X95332Y115720D01*
X96521Y114532D01*
X96567Y114490D01*
X96609Y114445D01*
X96832Y114254D01*
X97052Y114057D01*
X97103Y114021D01*
X97150Y113981D01*
X97393Y113815D01*
X97633Y113645D01*
X97687Y113615D01*
X97739Y113580D01*
X98000Y113442D01*
X98257Y113300D01*
X98314Y113277D01*
X98369Y113248D01*
X98643Y113140D01*
X98915Y113028D01*
X98975Y113011D01*
X99033Y112988D01*
X99317Y112912D01*
X99600Y112831D01*
X99661Y112820D01*
X99721Y112804D01*
X100012Y112761D01*
X100302Y112712D01*
X100364Y112708D01*
X100425Y112699D01*
X100720Y112688D01*
X101013Y112672D01*
X101075Y112676D01*
X101137Y112673D01*
X101430Y112696D01*
X101725Y112712D01*
X101786Y112723D01*
X101848Y112728D01*
X102136Y112783D01*
X102427Y112832D01*
X102487Y112849D01*
X102548Y112861D01*
X102829Y112948D01*
X103111Y113030D01*
X103169Y113054D01*
X103228Y113072D01*
X103497Y113190D01*
X103769Y113303D01*
X103824Y113333D01*
X103881Y113358D01*
X104135Y113505D01*
X104393Y113648D01*
X104443Y113684D01*
X104497Y113715D01*
X104734Y113890D01*
X104973Y114061D01*
X105020Y114102D01*
X105070Y114139D01*
X105285Y114340D01*
X105504Y114536D01*
X105545Y114582D01*
X105591Y114624D01*
X105792Y114858D01*
X105978Y115067D01*
X106011Y115113D01*
X106048Y115156D01*
X106644Y115934D01*
X107586Y116876D01*
X107951Y117155D01*
X107951Y101600D01*
X107951Y86045D01*
X107586Y86324D01*
X106644Y87266D01*
X106048Y88044D01*
X106007Y88091D01*
X105971Y88142D01*
X105775Y88361D01*
X105583Y88584D01*
X105537Y88626D01*
X105496Y88672D01*
X105277Y88868D01*
X105061Y89068D01*
X105011Y89105D01*
X104964Y89147D01*
X104725Y89316D01*
X104487Y89491D01*
X104434Y89522D01*
X104383Y89558D01*
X104125Y89700D01*
X103870Y89847D01*
X103814Y89872D01*
X103759Y89902D01*
X103487Y90015D01*
X103217Y90132D01*
X103158Y90150D01*
X103101Y90174D01*
X102818Y90255D01*
X102536Y90342D01*
X102475Y90353D01*
X102416Y90370D01*
X102125Y90419D01*
X101836Y90474D01*
X101775Y90479D01*
X101713Y90489D01*
X101418Y90505D01*
X101126Y90527D01*
X101064Y90525D01*
X101002Y90528D01*
X100708Y90511D01*
X100414Y90500D01*
X100353Y90491D01*
X100291Y90487D01*
X100001Y90437D01*
X99710Y90393D01*
X99650Y90377D01*
X99588Y90367D01*
X99306Y90285D01*
X99022Y90208D01*
X98964Y90186D01*
X98904Y90168D01*
X98633Y90055D01*
X98359Y89948D01*
X98304Y89919D01*
X98246Y89895D01*
X97989Y89752D01*
X97729Y89614D01*
X97678Y89579D01*
X97623Y89549D01*
X97384Y89379D01*
X97141Y89212D01*
X97094Y89172D01*
X97043Y89136D01*
X96813Y88930D01*
X96601Y88747D01*
X96563Y88706D01*
X96521Y88668D01*
X94080Y86227D01*
X90719Y84835D01*
X87081Y84835D01*
G37*
%LPD*%
%LPC*%
G36*
X137881Y84835D02*
X137881Y84835D01*
X134520Y86227D01*
X132079Y88668D01*
X132033Y88710D01*
X131991Y88755D01*
X131768Y88946D01*
X131548Y89143D01*
X131497Y89179D01*
X131450Y89219D01*
X131207Y89385D01*
X130967Y89555D01*
X130913Y89585D01*
X130861Y89620D01*
X130600Y89758D01*
X130343Y89900D01*
X130286Y89923D01*
X130231Y89952D01*
X129956Y90060D01*
X129685Y90172D01*
X129625Y90189D01*
X129567Y90212D01*
X129283Y90288D01*
X129000Y90369D01*
X128939Y90380D01*
X128879Y90396D01*
X128588Y90439D01*
X128298Y90488D01*
X128236Y90492D01*
X128175Y90501D01*
X127880Y90512D01*
X127587Y90528D01*
X127525Y90524D01*
X127463Y90527D01*
X127170Y90504D01*
X126875Y90488D01*
X126814Y90477D01*
X126752Y90472D01*
X126464Y90417D01*
X126173Y90368D01*
X126113Y90351D01*
X126052Y90339D01*
X125772Y90252D01*
X125489Y90170D01*
X125431Y90146D01*
X125372Y90128D01*
X125103Y90010D01*
X124831Y89897D01*
X124776Y89867D01*
X124719Y89842D01*
X124464Y89694D01*
X124207Y89552D01*
X124157Y89516D01*
X124103Y89485D01*
X123866Y89310D01*
X123627Y89139D01*
X123580Y89098D01*
X123530Y89061D01*
X123315Y88860D01*
X123096Y88664D01*
X123055Y88618D01*
X123009Y88576D01*
X122808Y88342D01*
X122622Y88133D01*
X122589Y88087D01*
X122552Y88044D01*
X121956Y87266D01*
X121014Y86324D01*
X120649Y86045D01*
X120649Y101600D01*
X120649Y117155D01*
X121014Y116876D01*
X121956Y115934D01*
X122552Y115156D01*
X122593Y115109D01*
X122629Y115058D01*
X122825Y114839D01*
X123017Y114616D01*
X123063Y114574D01*
X123104Y114528D01*
X123324Y114332D01*
X123539Y114132D01*
X123589Y114095D01*
X123636Y114053D01*
X123876Y113884D01*
X124113Y113709D01*
X124167Y113678D01*
X124217Y113642D01*
X124475Y113500D01*
X124730Y113353D01*
X124786Y113328D01*
X124841Y113298D01*
X125114Y113185D01*
X125383Y113068D01*
X125442Y113050D01*
X125499Y113026D01*
X125783Y112945D01*
X126064Y112858D01*
X126124Y112847D01*
X126184Y112830D01*
X126475Y112780D01*
X126764Y112726D01*
X126825Y112721D01*
X126887Y112711D01*
X127182Y112695D01*
X127474Y112673D01*
X127536Y112675D01*
X127598Y112672D01*
X127892Y112689D01*
X128186Y112700D01*
X128247Y112709D01*
X128309Y112713D01*
X128599Y112763D01*
X128890Y112807D01*
X128950Y112823D01*
X129012Y112833D01*
X129294Y112915D01*
X129578Y112992D01*
X129636Y113014D01*
X129696Y113032D01*
X129968Y113145D01*
X130241Y113252D01*
X130296Y113281D01*
X130354Y113305D01*
X130611Y113448D01*
X130871Y113586D01*
X130922Y113621D01*
X130977Y113651D01*
X131216Y113821D01*
X131459Y113988D01*
X131506Y114028D01*
X131557Y114064D01*
X131786Y114270D01*
X131999Y114453D01*
X132037Y114494D01*
X132079Y114532D01*
X134284Y116736D01*
X134286Y116739D01*
X134290Y116742D01*
X134524Y117005D01*
X134758Y117267D01*
X134761Y117271D01*
X134764Y117274D01*
X134965Y117559D01*
X135171Y117848D01*
X135173Y117852D01*
X135175Y117856D01*
X135343Y118160D01*
X135515Y118472D01*
X135517Y118476D01*
X135519Y118480D01*
X135652Y118804D01*
X135788Y119130D01*
X135789Y119135D01*
X135790Y119138D01*
X135887Y119477D01*
X135985Y119815D01*
X135985Y119819D01*
X135986Y119823D01*
X136046Y120180D01*
X136104Y120517D01*
X136104Y120521D01*
X136105Y120526D01*
X136143Y121226D01*
X136143Y170874D01*
X136143Y170878D01*
X136143Y170883D01*
X136123Y171234D01*
X136103Y171585D01*
X136103Y171590D01*
X136102Y171594D01*
X136043Y171941D01*
X135984Y172288D01*
X135983Y172292D01*
X135982Y172296D01*
X135883Y172639D01*
X135787Y172972D01*
X135785Y172976D01*
X135784Y172980D01*
X135650Y173301D01*
X135514Y173630D01*
X135512Y173634D01*
X135510Y173638D01*
X135335Y173953D01*
X135169Y174254D01*
X135167Y174257D01*
X135164Y174261D01*
X134949Y174564D01*
X134757Y174835D01*
X134754Y174838D01*
X134751Y174841D01*
X134284Y175364D01*
X132079Y177568D01*
X132033Y177610D01*
X131991Y177655D01*
X131768Y177846D01*
X131548Y178043D01*
X131497Y178079D01*
X131450Y178119D01*
X131207Y178285D01*
X130967Y178455D01*
X130913Y178485D01*
X130861Y178520D01*
X130601Y178657D01*
X130343Y178800D01*
X130286Y178823D01*
X130231Y178852D01*
X129957Y178960D01*
X129685Y179072D01*
X129625Y179089D01*
X129567Y179112D01*
X129283Y179188D01*
X129000Y179269D01*
X128939Y179280D01*
X128879Y179296D01*
X128588Y179339D01*
X128298Y179388D01*
X128236Y179392D01*
X128175Y179401D01*
X127881Y179412D01*
X127587Y179428D01*
X127525Y179424D01*
X127463Y179427D01*
X127170Y179404D01*
X126875Y179388D01*
X126814Y179377D01*
X126752Y179372D01*
X126463Y179317D01*
X126173Y179268D01*
X126114Y179251D01*
X126052Y179239D01*
X125772Y179152D01*
X125489Y179070D01*
X125431Y179046D01*
X125372Y179028D01*
X125103Y178910D01*
X124831Y178797D01*
X124776Y178767D01*
X124719Y178742D01*
X124464Y178594D01*
X124207Y178452D01*
X124157Y178416D01*
X124103Y178385D01*
X123866Y178210D01*
X123627Y178039D01*
X123580Y177998D01*
X123530Y177961D01*
X123315Y177760D01*
X123096Y177564D01*
X123055Y177518D01*
X123009Y177476D01*
X122808Y177242D01*
X122622Y177033D01*
X122589Y176987D01*
X122552Y176944D01*
X121956Y176166D01*
X121014Y175224D01*
X120649Y174945D01*
X120649Y190500D01*
X120649Y206055D01*
X121014Y205776D01*
X121956Y204834D01*
X122552Y204056D01*
X122593Y204009D01*
X122629Y203958D01*
X122825Y203740D01*
X123017Y203516D01*
X123063Y203474D01*
X123104Y203428D01*
X123324Y203232D01*
X123539Y203032D01*
X123589Y202995D01*
X123636Y202953D01*
X123875Y202784D01*
X124113Y202609D01*
X124166Y202578D01*
X124217Y202542D01*
X124475Y202400D01*
X124730Y202253D01*
X124787Y202228D01*
X124841Y202198D01*
X125113Y202086D01*
X125383Y201968D01*
X125442Y201950D01*
X125500Y201926D01*
X125782Y201845D01*
X126064Y201758D01*
X126125Y201747D01*
X126184Y201730D01*
X126475Y201681D01*
X126764Y201626D01*
X126825Y201621D01*
X126887Y201611D01*
X127182Y201595D01*
X127474Y201573D01*
X127536Y201575D01*
X127598Y201572D01*
X127892Y201589D01*
X128186Y201600D01*
X128247Y201609D01*
X128309Y201613D01*
X128599Y201663D01*
X128890Y201707D01*
X128950Y201723D01*
X129012Y201733D01*
X129294Y201815D01*
X129578Y201892D01*
X129636Y201914D01*
X129696Y201932D01*
X129967Y202045D01*
X130241Y202152D01*
X130296Y202181D01*
X130354Y202205D01*
X130611Y202348D01*
X130871Y202486D01*
X130922Y202521D01*
X130977Y202551D01*
X131215Y202721D01*
X131459Y202888D01*
X131506Y202928D01*
X131557Y202964D01*
X131786Y203169D01*
X131999Y203353D01*
X132037Y203394D01*
X132079Y203432D01*
X134284Y205636D01*
X134286Y205639D01*
X134290Y205642D01*
X134528Y205910D01*
X134758Y206167D01*
X134761Y206171D01*
X134764Y206174D01*
X134967Y206462D01*
X135171Y206749D01*
X135173Y206752D01*
X135175Y206756D01*
X135342Y207058D01*
X135515Y207372D01*
X135517Y207376D01*
X135519Y207380D01*
X135650Y207699D01*
X135788Y208030D01*
X135789Y208035D01*
X135790Y208038D01*
X135884Y208367D01*
X135985Y208715D01*
X135985Y208719D01*
X135986Y208723D01*
X136045Y209074D01*
X136104Y209417D01*
X136104Y209421D01*
X136105Y209426D01*
X136143Y210126D01*
X136143Y247074D01*
X136143Y247078D01*
X136143Y247083D01*
X136123Y247434D01*
X136103Y247785D01*
X136103Y247790D01*
X136102Y247794D01*
X136043Y248141D01*
X135984Y248488D01*
X135983Y248492D01*
X135982Y248496D01*
X135883Y248839D01*
X135787Y249172D01*
X135785Y249176D01*
X135784Y249180D01*
X135650Y249501D01*
X135514Y249830D01*
X135512Y249834D01*
X135510Y249838D01*
X135335Y250153D01*
X135169Y250454D01*
X135167Y250457D01*
X135164Y250461D01*
X134949Y250764D01*
X134757Y251035D01*
X134754Y251038D01*
X134751Y251041D01*
X134284Y251564D01*
X132079Y253768D01*
X132033Y253810D01*
X131991Y253855D01*
X131768Y254046D01*
X131548Y254243D01*
X131497Y254279D01*
X131450Y254319D01*
X131207Y254485D01*
X130967Y254655D01*
X130913Y254685D01*
X130861Y254720D01*
X130601Y254857D01*
X130343Y255000D01*
X130286Y255023D01*
X130231Y255052D01*
X129957Y255160D01*
X129685Y255272D01*
X129625Y255289D01*
X129567Y255312D01*
X129283Y255388D01*
X129000Y255469D01*
X128939Y255480D01*
X128879Y255496D01*
X128588Y255539D01*
X128298Y255588D01*
X128236Y255592D01*
X128175Y255601D01*
X127881Y255612D01*
X127587Y255628D01*
X127525Y255624D01*
X127463Y255627D01*
X127170Y255604D01*
X126875Y255588D01*
X126814Y255577D01*
X126752Y255572D01*
X126463Y255517D01*
X126173Y255468D01*
X126114Y255451D01*
X126052Y255439D01*
X125772Y255352D01*
X125489Y255270D01*
X125431Y255246D01*
X125372Y255228D01*
X125103Y255110D01*
X124831Y254997D01*
X124776Y254967D01*
X124719Y254942D01*
X124464Y254794D01*
X124207Y254652D01*
X124157Y254616D01*
X124103Y254585D01*
X123866Y254410D01*
X123627Y254239D01*
X123580Y254198D01*
X123530Y254161D01*
X123315Y253960D01*
X123096Y253764D01*
X123055Y253718D01*
X123009Y253676D01*
X122808Y253442D01*
X122622Y253233D01*
X122589Y253187D01*
X122552Y253144D01*
X121956Y252366D01*
X121014Y251424D01*
X120649Y251145D01*
X120649Y266700D01*
X120649Y282255D01*
X121014Y281976D01*
X121956Y281034D01*
X122552Y280256D01*
X122593Y280209D01*
X122629Y280158D01*
X122825Y279940D01*
X123017Y279716D01*
X123063Y279674D01*
X123104Y279628D01*
X123324Y279432D01*
X123539Y279232D01*
X123589Y279195D01*
X123636Y279153D01*
X123875Y278984D01*
X124113Y278809D01*
X124166Y278778D01*
X124217Y278742D01*
X124475Y278600D01*
X124730Y278453D01*
X124787Y278428D01*
X124841Y278398D01*
X125113Y278286D01*
X125383Y278168D01*
X125442Y278150D01*
X125500Y278126D01*
X125782Y278045D01*
X126064Y277958D01*
X126125Y277947D01*
X126184Y277930D01*
X126475Y277881D01*
X126764Y277826D01*
X126825Y277821D01*
X126887Y277811D01*
X127182Y277795D01*
X127474Y277773D01*
X127536Y277775D01*
X127598Y277772D01*
X127892Y277789D01*
X128186Y277800D01*
X128247Y277809D01*
X128309Y277813D01*
X128599Y277863D01*
X128890Y277907D01*
X128950Y277923D01*
X129012Y277933D01*
X129294Y278015D01*
X129578Y278092D01*
X129636Y278114D01*
X129696Y278132D01*
X129967Y278245D01*
X130241Y278352D01*
X130296Y278381D01*
X130354Y278405D01*
X130611Y278548D01*
X130871Y278686D01*
X130922Y278721D01*
X130977Y278751D01*
X131215Y278921D01*
X131459Y279088D01*
X131506Y279128D01*
X131557Y279164D01*
X131786Y279369D01*
X131999Y279553D01*
X132037Y279594D01*
X132079Y279632D01*
X134284Y281836D01*
X134286Y281839D01*
X134290Y281842D01*
X134528Y282110D01*
X134758Y282367D01*
X134761Y282371D01*
X134764Y282374D01*
X134967Y282662D01*
X135171Y282949D01*
X135173Y282952D01*
X135175Y282956D01*
X135342Y283258D01*
X135515Y283572D01*
X135517Y283576D01*
X135519Y283580D01*
X135650Y283899D01*
X135788Y284230D01*
X135789Y284235D01*
X135790Y284238D01*
X135882Y284558D01*
X135985Y284915D01*
X135985Y284919D01*
X135986Y284923D01*
X136045Y285274D01*
X136104Y285617D01*
X136104Y285621D01*
X136105Y285626D01*
X136143Y286326D01*
X136143Y335974D01*
X136143Y335978D01*
X136143Y335983D01*
X136123Y336334D01*
X136103Y336685D01*
X136103Y336690D01*
X136102Y336694D01*
X136043Y337041D01*
X135984Y337388D01*
X135983Y337392D01*
X135982Y337396D01*
X135883Y337739D01*
X135787Y338072D01*
X135785Y338076D01*
X135784Y338080D01*
X135650Y338401D01*
X135514Y338730D01*
X135512Y338734D01*
X135510Y338738D01*
X135335Y339053D01*
X135169Y339354D01*
X135167Y339357D01*
X135164Y339361D01*
X134949Y339664D01*
X134757Y339935D01*
X134754Y339938D01*
X134751Y339941D01*
X134284Y340464D01*
X132079Y342668D01*
X132033Y342710D01*
X131991Y342755D01*
X131768Y342946D01*
X131548Y343143D01*
X131497Y343179D01*
X131450Y343219D01*
X131207Y343385D01*
X130967Y343555D01*
X130913Y343585D01*
X130861Y343620D01*
X130601Y343757D01*
X130343Y343900D01*
X130286Y343923D01*
X130231Y343952D01*
X129957Y344060D01*
X129685Y344172D01*
X129625Y344189D01*
X129567Y344212D01*
X129283Y344288D01*
X129000Y344369D01*
X128939Y344380D01*
X128879Y344396D01*
X128588Y344439D01*
X128298Y344488D01*
X128236Y344492D01*
X128175Y344501D01*
X127881Y344512D01*
X127587Y344528D01*
X127525Y344524D01*
X127463Y344527D01*
X127170Y344504D01*
X126875Y344488D01*
X126814Y344477D01*
X126752Y344472D01*
X126463Y344417D01*
X126173Y344368D01*
X126114Y344351D01*
X126052Y344339D01*
X125772Y344252D01*
X125489Y344170D01*
X125431Y344146D01*
X125372Y344128D01*
X125103Y344010D01*
X124831Y343897D01*
X124776Y343867D01*
X124719Y343842D01*
X124464Y343694D01*
X124207Y343552D01*
X124157Y343516D01*
X124103Y343485D01*
X123866Y343310D01*
X123627Y343139D01*
X123580Y343098D01*
X123530Y343061D01*
X123315Y342860D01*
X123096Y342664D01*
X123055Y342618D01*
X123009Y342576D01*
X122808Y342342D01*
X122622Y342133D01*
X122589Y342087D01*
X122552Y342044D01*
X121956Y341266D01*
X121014Y340324D01*
X120649Y340045D01*
X120649Y355600D01*
X120649Y371155D01*
X121014Y370876D01*
X121956Y369934D01*
X122552Y369156D01*
X122593Y369109D01*
X122629Y369058D01*
X122825Y368839D01*
X123017Y368616D01*
X123063Y368574D01*
X123104Y368528D01*
X123324Y368332D01*
X123539Y368132D01*
X123589Y368095D01*
X123636Y368053D01*
X123875Y367884D01*
X124113Y367709D01*
X124166Y367678D01*
X124217Y367642D01*
X124475Y367500D01*
X124730Y367353D01*
X124786Y367328D01*
X124841Y367298D01*
X125113Y367185D01*
X125383Y367068D01*
X125442Y367050D01*
X125499Y367026D01*
X125782Y366945D01*
X126064Y366858D01*
X126125Y366847D01*
X126184Y366830D01*
X126475Y366781D01*
X126764Y366726D01*
X126825Y366721D01*
X126887Y366711D01*
X127182Y366695D01*
X127474Y366673D01*
X127536Y366675D01*
X127598Y366672D01*
X127892Y366689D01*
X128186Y366700D01*
X128247Y366709D01*
X128309Y366713D01*
X128599Y366763D01*
X128890Y366807D01*
X128950Y366823D01*
X129012Y366833D01*
X129294Y366915D01*
X129578Y366992D01*
X129636Y367014D01*
X129696Y367032D01*
X129967Y367145D01*
X130241Y367252D01*
X130296Y367281D01*
X130354Y367305D01*
X130611Y367448D01*
X130871Y367586D01*
X130922Y367621D01*
X130977Y367651D01*
X131216Y367821D01*
X131459Y367988D01*
X131506Y368028D01*
X131557Y368064D01*
X131787Y368270D01*
X131999Y368453D01*
X132037Y368494D01*
X132079Y368532D01*
X134520Y370973D01*
X137881Y372365D01*
X141519Y372365D01*
X144880Y370973D01*
X147453Y368400D01*
X148845Y365039D01*
X148845Y346161D01*
X147453Y342800D01*
X145116Y340464D01*
X145114Y340461D01*
X145110Y340458D01*
X144876Y340195D01*
X144642Y339933D01*
X144639Y339929D01*
X144636Y339926D01*
X144435Y339641D01*
X144229Y339351D01*
X144227Y339348D01*
X144225Y339344D01*
X144053Y339033D01*
X143885Y338728D01*
X143883Y338724D01*
X143881Y338720D01*
X143746Y338393D01*
X143612Y338070D01*
X143611Y338065D01*
X143610Y338062D01*
X143513Y337723D01*
X143415Y337385D01*
X143415Y337381D01*
X143414Y337377D01*
X143354Y337020D01*
X143296Y336683D01*
X143296Y336678D01*
X143295Y336674D01*
X143257Y335974D01*
X143257Y286326D01*
X143257Y286322D01*
X143257Y286317D01*
X143278Y285949D01*
X143297Y285615D01*
X143297Y285610D01*
X143298Y285606D01*
X143358Y285254D01*
X143416Y284912D01*
X143417Y284908D01*
X143418Y284904D01*
X143520Y284552D01*
X143613Y284228D01*
X143615Y284224D01*
X143616Y284220D01*
X143752Y283893D01*
X143886Y283570D01*
X143888Y283566D01*
X143890Y283562D01*
X144065Y283246D01*
X144231Y282946D01*
X144233Y282943D01*
X144236Y282939D01*
X144448Y282640D01*
X144643Y282365D01*
X144646Y282362D01*
X144649Y282359D01*
X145116Y281836D01*
X147453Y279500D01*
X148845Y276139D01*
X148845Y257261D01*
X147453Y253900D01*
X145116Y251564D01*
X145114Y251561D01*
X145110Y251558D01*
X144876Y251295D01*
X144642Y251033D01*
X144639Y251029D01*
X144636Y251026D01*
X144435Y250741D01*
X144229Y250451D01*
X144227Y250448D01*
X144225Y250444D01*
X144053Y250133D01*
X143885Y249828D01*
X143883Y249824D01*
X143881Y249820D01*
X143746Y249493D01*
X143612Y249170D01*
X143611Y249165D01*
X143610Y249162D01*
X143513Y248823D01*
X143415Y248485D01*
X143415Y248481D01*
X143414Y248477D01*
X143354Y248120D01*
X143296Y247783D01*
X143296Y247778D01*
X143295Y247774D01*
X143257Y247074D01*
X143257Y210126D01*
X143257Y210122D01*
X143257Y210117D01*
X143278Y209749D01*
X143297Y209415D01*
X143297Y209410D01*
X143298Y209406D01*
X143358Y209054D01*
X143416Y208712D01*
X143417Y208708D01*
X143418Y208704D01*
X143520Y208352D01*
X143613Y208028D01*
X143615Y208024D01*
X143616Y208020D01*
X143752Y207693D01*
X143886Y207370D01*
X143888Y207366D01*
X143890Y207362D01*
X144065Y207046D01*
X144231Y206746D01*
X144233Y206743D01*
X144236Y206739D01*
X144448Y206440D01*
X144643Y206165D01*
X144646Y206162D01*
X144649Y206159D01*
X145116Y205636D01*
X147453Y203300D01*
X148845Y199939D01*
X148845Y181061D01*
X147453Y177700D01*
X145116Y175364D01*
X145114Y175361D01*
X145110Y175358D01*
X144876Y175095D01*
X144642Y174833D01*
X144639Y174829D01*
X144636Y174826D01*
X144431Y174536D01*
X144229Y174251D01*
X144227Y174248D01*
X144225Y174244D01*
X144053Y173933D01*
X143885Y173628D01*
X143883Y173624D01*
X143881Y173620D01*
X143746Y173293D01*
X143612Y172970D01*
X143611Y172965D01*
X143610Y172962D01*
X143513Y172623D01*
X143415Y172285D01*
X143415Y172281D01*
X143414Y172277D01*
X143354Y171920D01*
X143296Y171583D01*
X143296Y171578D01*
X143295Y171574D01*
X143257Y170874D01*
X143257Y121226D01*
X143257Y121222D01*
X143257Y121217D01*
X143277Y120859D01*
X143297Y120515D01*
X143297Y120510D01*
X143298Y120506D01*
X143361Y120138D01*
X143416Y119812D01*
X143417Y119808D01*
X143418Y119804D01*
X143519Y119456D01*
X143613Y119128D01*
X143615Y119124D01*
X143616Y119119D01*
X143754Y118788D01*
X143886Y118469D01*
X143888Y118466D01*
X143890Y118462D01*
X144061Y118154D01*
X144231Y117846D01*
X144233Y117843D01*
X144236Y117839D01*
X144445Y117544D01*
X144643Y117265D01*
X144646Y117262D01*
X144649Y117258D01*
X145116Y116736D01*
X147453Y114400D01*
X148845Y111039D01*
X148845Y92161D01*
X147453Y88800D01*
X144880Y86227D01*
X141519Y84835D01*
X137881Y84835D01*
G37*
%LPD*%
%LPC*%
G36*
X307561Y392075D02*
X307561Y392075D01*
X302314Y394248D01*
X298298Y398264D01*
X296125Y403511D01*
X296125Y434689D01*
X298298Y439936D01*
X302314Y443952D01*
X307561Y446125D01*
X313239Y446125D01*
X318486Y443952D01*
X322502Y439936D01*
X324334Y435512D01*
X324335Y435511D01*
X324335Y435509D01*
X324483Y435202D01*
X324643Y434870D01*
X324644Y434869D01*
X324645Y434867D01*
X324835Y434565D01*
X325022Y434267D01*
X325023Y434266D01*
X325024Y434264D01*
X325290Y433932D01*
X325467Y433710D01*
X325467Y433709D01*
X325468Y433708D01*
X325738Y433438D01*
X325970Y433206D01*
X325971Y433205D01*
X325973Y433204D01*
X326260Y432975D01*
X326528Y432762D01*
X326529Y432761D01*
X326530Y432761D01*
X326882Y432539D01*
X327131Y432383D01*
X327132Y432383D01*
X327133Y432382D01*
X327471Y432220D01*
X327773Y432075D01*
X327774Y432074D01*
X327776Y432073D01*
X328119Y431954D01*
X328445Y431840D01*
X328447Y431839D01*
X328448Y431839D01*
X328796Y431760D01*
X329140Y431681D01*
X329142Y431681D01*
X329143Y431681D01*
X329475Y431644D01*
X329848Y431602D01*
X329850Y431602D01*
X329851Y431602D01*
X330212Y431602D01*
X330561Y431603D01*
X330562Y431603D01*
X330563Y431603D01*
X330909Y431642D01*
X331268Y431683D01*
X331270Y431683D01*
X331271Y431683D01*
X331619Y431763D01*
X331963Y431842D01*
X331964Y431842D01*
X331966Y431843D01*
X332306Y431962D01*
X332635Y432078D01*
X332636Y432078D01*
X332638Y432079D01*
X332977Y432243D01*
X333277Y432388D01*
X333278Y432388D01*
X333279Y432389D01*
X333592Y432586D01*
X333879Y432767D01*
X333881Y432768D01*
X333882Y432769D01*
X334184Y433010D01*
X334436Y433212D01*
X334437Y433213D01*
X334438Y433214D01*
X334680Y433457D01*
X334939Y433716D01*
X334940Y433717D01*
X334941Y433718D01*
X335170Y434006D01*
X335383Y434274D01*
X335383Y434275D01*
X335384Y434276D01*
X335562Y434560D01*
X335761Y434878D01*
X335762Y434879D01*
X335762Y434880D01*
X336066Y435512D01*
X337898Y439936D01*
X341914Y443952D01*
X347161Y446125D01*
X352839Y446125D01*
X358086Y443952D01*
X362102Y439936D01*
X364275Y434689D01*
X364275Y403511D01*
X362102Y398264D01*
X358086Y394248D01*
X352839Y392075D01*
X347161Y392075D01*
X341914Y394248D01*
X337898Y398264D01*
X336066Y402688D01*
X336065Y402689D01*
X336065Y402691D01*
X335905Y403022D01*
X335757Y403330D01*
X335756Y403331D01*
X335755Y403333D01*
X335580Y403611D01*
X335378Y403933D01*
X335377Y403934D01*
X335376Y403936D01*
X335188Y404171D01*
X334933Y404490D01*
X334932Y404491D01*
X334932Y404492D01*
X334695Y404728D01*
X334430Y404994D01*
X334428Y404995D01*
X334427Y404996D01*
X334181Y405192D01*
X333873Y405438D01*
X333871Y405439D01*
X333870Y405439D01*
X333584Y405619D01*
X333269Y405817D01*
X333268Y405817D01*
X333267Y405818D01*
X332942Y405974D01*
X332627Y406125D01*
X332626Y406126D01*
X332624Y406127D01*
X332281Y406246D01*
X331955Y406360D01*
X331953Y406361D01*
X331952Y406361D01*
X331604Y406440D01*
X331260Y406519D01*
X331258Y406519D01*
X331257Y406519D01*
X330925Y406556D01*
X330552Y406598D01*
X330550Y406598D01*
X330549Y406598D01*
X330188Y406598D01*
X329840Y406597D01*
X329838Y406597D01*
X329837Y406597D01*
X329456Y406554D01*
X329132Y406517D01*
X329130Y406517D01*
X329129Y406517D01*
X328749Y406429D01*
X328437Y406358D01*
X328436Y406358D01*
X328434Y406357D01*
X328065Y406227D01*
X327765Y406122D01*
X327764Y406122D01*
X327762Y406121D01*
X327426Y405958D01*
X327123Y405812D01*
X327122Y405812D01*
X327121Y405811D01*
X326838Y405632D01*
X326521Y405433D01*
X326519Y405432D01*
X326518Y405431D01*
X326271Y405233D01*
X325964Y404988D01*
X325963Y404987D01*
X325962Y404986D01*
X325741Y404765D01*
X325461Y404484D01*
X325460Y404483D01*
X325459Y404482D01*
X325229Y404192D01*
X325017Y403926D01*
X325017Y403925D01*
X325016Y403924D01*
X324808Y403592D01*
X324639Y403323D01*
X324638Y403321D01*
X324638Y403320D01*
X324334Y402688D01*
X322502Y398264D01*
X318486Y394248D01*
X313239Y392075D01*
X307561Y392075D01*
G37*
%LPD*%
%LPC*%
G36*
X345661Y49175D02*
X345661Y49175D01*
X340414Y51348D01*
X336398Y55364D01*
X334225Y60611D01*
X334225Y91789D01*
X336398Y97036D01*
X340414Y101052D01*
X345661Y103225D01*
X351339Y103225D01*
X356586Y101052D01*
X360602Y97036D01*
X361884Y93939D01*
X361885Y93938D01*
X361885Y93937D01*
X362050Y93594D01*
X362193Y93297D01*
X362194Y93296D01*
X362195Y93295D01*
X362402Y92965D01*
X362572Y92694D01*
X362573Y92693D01*
X362574Y92692D01*
X362805Y92403D01*
X363017Y92137D01*
X363018Y92136D01*
X363019Y92135D01*
X363293Y91861D01*
X363521Y91634D01*
X363522Y91633D01*
X363523Y91632D01*
X363820Y91395D01*
X364078Y91190D01*
X364079Y91189D01*
X364080Y91188D01*
X364392Y90992D01*
X364681Y90811D01*
X364682Y90810D01*
X364684Y90809D01*
X364996Y90659D01*
X365323Y90502D01*
X365325Y90502D01*
X365326Y90501D01*
X365646Y90389D01*
X365996Y90267D01*
X365997Y90267D01*
X365998Y90266D01*
X366332Y90190D01*
X366690Y90109D01*
X366692Y90109D01*
X366693Y90108D01*
X367021Y90072D01*
X367398Y90030D01*
X367400Y90030D01*
X367401Y90029D01*
X367762Y90030D01*
X368111Y90030D01*
X368112Y90030D01*
X368114Y90030D01*
X368467Y90070D01*
X368818Y90110D01*
X368820Y90111D01*
X368821Y90111D01*
X369185Y90194D01*
X369513Y90269D01*
X369514Y90270D01*
X369516Y90270D01*
X369895Y90403D01*
X370185Y90505D01*
X370186Y90506D01*
X370188Y90506D01*
X370524Y90669D01*
X370827Y90815D01*
X370828Y90816D01*
X370829Y90816D01*
X371127Y91004D01*
X371430Y91195D01*
X371431Y91196D01*
X371432Y91196D01*
X371708Y91417D01*
X371986Y91639D01*
X371987Y91640D01*
X371988Y91641D01*
X372214Y91868D01*
X372489Y92144D01*
X372490Y92145D01*
X372491Y92146D01*
X372694Y92402D01*
X372933Y92701D01*
X372934Y92703D01*
X372934Y92704D01*
X373098Y92965D01*
X373311Y93305D01*
X373312Y93306D01*
X373312Y93308D01*
X373616Y93939D01*
X374357Y95727D01*
X375359Y97463D01*
X376579Y99054D01*
X377996Y100471D01*
X379587Y101691D01*
X381323Y102693D01*
X381751Y102871D01*
X381751Y76200D01*
X381751Y49529D01*
X381323Y49707D01*
X379587Y50709D01*
X377996Y51929D01*
X376579Y53346D01*
X375359Y54937D01*
X374357Y56673D01*
X373616Y58461D01*
X373615Y58462D01*
X373615Y58463D01*
X373483Y58736D01*
X373307Y59103D01*
X373306Y59104D01*
X373306Y59105D01*
X373145Y59360D01*
X372928Y59706D01*
X372927Y59707D01*
X372926Y59708D01*
X372696Y59997D01*
X372484Y60263D01*
X372483Y60264D01*
X372482Y60265D01*
X372217Y60529D01*
X371980Y60766D01*
X371979Y60767D01*
X371978Y60768D01*
X371695Y60993D01*
X371423Y61210D01*
X371421Y61211D01*
X371420Y61212D01*
X371108Y61408D01*
X370819Y61589D01*
X370818Y61590D01*
X370817Y61591D01*
X370504Y61741D01*
X370177Y61898D01*
X370176Y61898D01*
X370175Y61899D01*
X369854Y62011D01*
X369505Y62133D01*
X369503Y62133D01*
X369502Y62134D01*
X369168Y62210D01*
X368810Y62291D01*
X368808Y62291D01*
X368807Y62292D01*
X368479Y62328D01*
X368102Y62370D01*
X368101Y62370D01*
X368099Y62371D01*
X367738Y62370D01*
X367390Y62370D01*
X367388Y62370D01*
X367387Y62370D01*
X367033Y62330D01*
X366682Y62290D01*
X366680Y62289D01*
X366679Y62289D01*
X366315Y62206D01*
X365987Y62131D01*
X365986Y62130D01*
X365985Y62130D01*
X365606Y61997D01*
X365315Y61895D01*
X365314Y61894D01*
X365312Y61894D01*
X364976Y61731D01*
X364674Y61585D01*
X364672Y61584D01*
X364671Y61584D01*
X364373Y61396D01*
X364071Y61205D01*
X364070Y61204D01*
X364068Y61204D01*
X363793Y60983D01*
X363514Y60761D01*
X363513Y60760D01*
X363512Y60759D01*
X363266Y60512D01*
X363011Y60256D01*
X363010Y60255D01*
X363009Y60254D01*
X362765Y59947D01*
X362567Y59699D01*
X362567Y59698D01*
X362566Y59696D01*
X362355Y59360D01*
X362189Y59095D01*
X362189Y59094D01*
X362188Y59092D01*
X361884Y58461D01*
X361881Y58453D01*
X361881Y58452D01*
X360602Y55364D01*
X356586Y51348D01*
X351339Y49175D01*
X345661Y49175D01*
G37*
%LPD*%
%LPC*%
G36*
X226781Y59435D02*
X226781Y59435D01*
X223420Y60827D01*
X220847Y63400D01*
X219455Y66761D01*
X219455Y85639D01*
X220847Y89000D01*
X223420Y91573D01*
X226781Y92965D01*
X230419Y92965D01*
X233780Y91573D01*
X236810Y88542D01*
X236813Y88540D01*
X236814Y88538D01*
X237076Y88304D01*
X237342Y88068D01*
X237344Y88066D01*
X237346Y88064D01*
X237631Y87862D01*
X237923Y87655D01*
X237925Y87654D01*
X237928Y87652D01*
X238235Y87483D01*
X238546Y87311D01*
X238549Y87310D01*
X238551Y87308D01*
X238897Y87166D01*
X239204Y87038D01*
X239207Y87038D01*
X239210Y87036D01*
X239563Y86935D01*
X239889Y86841D01*
X239892Y86841D01*
X239895Y86840D01*
X240260Y86778D01*
X240592Y86722D01*
X240594Y86722D01*
X240597Y86722D01*
X240963Y86701D01*
X241303Y86683D01*
X241306Y86683D01*
X241309Y86683D01*
X241660Y86703D01*
X242014Y86723D01*
X242017Y86723D01*
X242020Y86723D01*
X242363Y86782D01*
X242716Y86843D01*
X242719Y86843D01*
X242722Y86844D01*
X243075Y86946D01*
X243401Y87040D01*
X243403Y87041D01*
X243406Y87042D01*
X243744Y87183D01*
X244059Y87313D01*
X244061Y87315D01*
X244064Y87316D01*
X244372Y87486D01*
X244682Y87658D01*
X244684Y87660D01*
X244687Y87661D01*
X244980Y87870D01*
X245263Y88071D01*
X245265Y88073D01*
X245267Y88075D01*
X245790Y88542D01*
X248820Y91573D01*
X252181Y92965D01*
X255819Y92965D01*
X259180Y91573D01*
X261753Y89000D01*
X263145Y85639D01*
X263145Y66761D01*
X261753Y63400D01*
X259180Y60827D01*
X255819Y59435D01*
X252181Y59435D01*
X248820Y60827D01*
X245790Y63858D01*
X245787Y63860D01*
X245786Y63862D01*
X245536Y64084D01*
X245258Y64333D01*
X245256Y64334D01*
X245254Y64336D01*
X244973Y64535D01*
X244677Y64745D01*
X244675Y64746D01*
X244672Y64748D01*
X244360Y64920D01*
X244054Y65089D01*
X244051Y65090D01*
X244049Y65092D01*
X243718Y65228D01*
X243395Y65362D01*
X243393Y65363D01*
X243390Y65364D01*
X243052Y65460D01*
X242711Y65559D01*
X242708Y65559D01*
X242705Y65560D01*
X242343Y65621D01*
X242008Y65678D01*
X242006Y65678D01*
X242003Y65678D01*
X241637Y65699D01*
X241297Y65717D01*
X241294Y65717D01*
X241291Y65717D01*
X240940Y65697D01*
X240586Y65677D01*
X240583Y65677D01*
X240580Y65677D01*
X240234Y65617D01*
X239884Y65557D01*
X239881Y65557D01*
X239878Y65556D01*
X239533Y65456D01*
X239199Y65360D01*
X239196Y65359D01*
X239194Y65358D01*
X238863Y65220D01*
X238541Y65087D01*
X238539Y65085D01*
X238536Y65084D01*
X238228Y64913D01*
X237918Y64742D01*
X237915Y64740D01*
X237913Y64739D01*
X237616Y64527D01*
X237337Y64329D01*
X237335Y64327D01*
X237333Y64325D01*
X236810Y63858D01*
X233780Y60827D01*
X230419Y59435D01*
X226781Y59435D01*
G37*
%LPD*%
%LPC*%
G36*
X394449Y82549D02*
X394449Y82549D01*
X394449Y102871D01*
X394877Y102693D01*
X396613Y101691D01*
X398204Y100471D01*
X399621Y99054D01*
X400841Y97463D01*
X401843Y95727D01*
X402610Y93876D01*
X403129Y91940D01*
X403391Y89952D01*
X403391Y82549D01*
X394449Y82549D01*
G37*
%LPD*%
%LPC*%
G36*
X394449Y69851D02*
X394449Y69851D01*
X403391Y69851D01*
X403391Y62448D01*
X403129Y60460D01*
X402610Y58524D01*
X401843Y56673D01*
X400841Y54937D01*
X399621Y53346D01*
X398204Y51929D01*
X396613Y50709D01*
X394877Y49707D01*
X394449Y49529D01*
X394449Y69851D01*
G37*
%LPD*%
D10*
X350000Y431850D02*
X350000Y406350D01*
X310400Y406350D02*
X310400Y431850D01*
X348500Y88950D02*
X348500Y63450D01*
X388100Y63450D02*
X388100Y88950D01*
D11*
X88900Y347980D02*
X88900Y363220D01*
X114300Y363220D02*
X114300Y347980D01*
X139700Y347980D02*
X139700Y363220D01*
X88900Y274320D02*
X88900Y259080D01*
X114300Y259080D02*
X114300Y274320D01*
X139700Y274320D02*
X139700Y259080D01*
X88900Y198120D02*
X88900Y182880D01*
X114300Y182880D02*
X114300Y198120D01*
X139700Y198120D02*
X139700Y182880D01*
X88900Y109220D02*
X88900Y93980D01*
X114300Y93980D02*
X114300Y109220D01*
X139700Y109220D02*
X139700Y93980D01*
X228600Y83820D02*
X228600Y68580D01*
X254000Y68580D02*
X254000Y83820D01*
D12*
X139700Y101600D02*
X139700Y190500D01*
X139700Y266700D01*
X139700Y355600D01*
D13*
X88900Y190500D02*
X88900Y101600D01*
X88900Y190500D02*
X88900Y266700D01*
X88900Y355600D01*
M02*
