G04 EAGLE Gerber RS-274X export*
G75*
%MOMM*%
%FSLAX34Y34*%
%LPD*%
%INSoldermask Top*%
%IPPOS*%
%AMOC8*
5,1,8,0,0,1.08239X$1,22.5*%
G01*
%ADD10C,4.203200*%
%ADD11C,2.753200*%
%ADD12C,1.727200*%
%ADD13R,1.303200X1.203200*%
%ADD14R,1.203200X1.303200*%
%ADD15R,5.603200X6.403200*%
%ADD16R,1.203200X1.803200*%
%ADD17R,1.619200X0.854800*%
%ADD18R,2.803200X1.603200*%


D10*
X50000Y450000D03*
X450000Y450000D03*
X50000Y50000D03*
X450000Y50000D03*
D11*
X350000Y406350D02*
X350000Y431850D01*
X310400Y431850D02*
X310400Y406350D01*
X348500Y88950D02*
X348500Y63450D01*
X388100Y63450D02*
X388100Y88950D01*
D12*
X88900Y347980D02*
X88900Y363220D01*
X114300Y363220D02*
X114300Y347980D01*
X139700Y347980D02*
X139700Y363220D01*
X88900Y274320D02*
X88900Y259080D01*
X114300Y259080D02*
X114300Y274320D01*
X139700Y274320D02*
X139700Y259080D01*
X88900Y198120D02*
X88900Y182880D01*
X114300Y182880D02*
X114300Y198120D01*
X139700Y198120D02*
X139700Y182880D01*
X88900Y109220D02*
X88900Y93980D01*
X114300Y93980D02*
X114300Y109220D01*
X139700Y109220D02*
X139700Y93980D01*
D13*
X225800Y160900D03*
X225800Y143900D03*
D14*
X122800Y406400D03*
X105800Y406400D03*
D12*
X228600Y83820D02*
X228600Y68580D01*
X254000Y68580D02*
X254000Y83820D01*
D14*
X270900Y165100D03*
X287900Y165100D03*
D15*
X279400Y291700D03*
D16*
X256600Y218700D03*
X302200Y218700D03*
D17*
X347958Y330200D03*
X312442Y330200D03*
D18*
X388800Y165100D03*
X347800Y165100D03*
D13*
X372500Y215900D03*
X389500Y215900D03*
M02*
