G04 EAGLE Gerber RS-274X export*
G75*
%MOMM*%
%FSLAX34Y34*%
%LPD*%
%INSilkscreen Top*%
%IPPOS*%
%AMOC8*
5,1,8,0,0,1.08239X$1,22.5*%
G01*
%ADD10C,0.203200*%
%ADD11C,0.101600*%
%ADD12C,0.152400*%
%ADD13C,0.127000*%
%ADD14R,0.863600X0.762000*%
%ADD15C,0.076200*%
%ADD16C,0.050800*%


D10*
X292100Y369600D02*
X310100Y369600D01*
X350050Y369600D01*
X368050Y369600D01*
X368050Y467350D01*
X292100Y467350D01*
X292100Y369600D01*
X310100Y393850D02*
X350050Y393850D01*
X310100Y393850D02*
X310100Y369600D01*
X350050Y369600D02*
X350050Y393850D01*
D11*
X375508Y391423D02*
X387192Y391423D01*
X375508Y391423D02*
X375508Y396615D01*
X380701Y396615D02*
X380701Y391423D01*
X387192Y400276D02*
X375508Y404171D01*
X387192Y408065D01*
X384271Y407092D02*
X384271Y401250D01*
X387192Y412736D02*
X375508Y412736D01*
X387192Y419227D01*
X375508Y419227D01*
X388490Y424053D02*
X388490Y429246D01*
X383946Y433691D02*
X378754Y433691D01*
X378641Y433693D01*
X378528Y433699D01*
X378415Y433709D01*
X378302Y433723D01*
X378190Y433740D01*
X378079Y433762D01*
X377969Y433787D01*
X377859Y433817D01*
X377751Y433850D01*
X377644Y433887D01*
X377538Y433927D01*
X377434Y433972D01*
X377331Y434020D01*
X377230Y434071D01*
X377131Y434126D01*
X377034Y434184D01*
X376939Y434246D01*
X376846Y434311D01*
X376756Y434379D01*
X376668Y434450D01*
X376582Y434525D01*
X376499Y434602D01*
X376419Y434682D01*
X376342Y434765D01*
X376267Y434851D01*
X376196Y434939D01*
X376128Y435029D01*
X376063Y435122D01*
X376001Y435217D01*
X375943Y435314D01*
X375888Y435413D01*
X375837Y435514D01*
X375789Y435617D01*
X375744Y435721D01*
X375704Y435827D01*
X375667Y435934D01*
X375634Y436042D01*
X375604Y436152D01*
X375579Y436262D01*
X375557Y436373D01*
X375540Y436485D01*
X375526Y436598D01*
X375516Y436711D01*
X375510Y436824D01*
X375508Y436937D01*
X375510Y437050D01*
X375516Y437163D01*
X375526Y437276D01*
X375540Y437389D01*
X375557Y437501D01*
X375579Y437612D01*
X375604Y437722D01*
X375634Y437832D01*
X375667Y437940D01*
X375704Y438047D01*
X375744Y438153D01*
X375789Y438257D01*
X375837Y438360D01*
X375888Y438461D01*
X375943Y438560D01*
X376001Y438657D01*
X376063Y438752D01*
X376128Y438845D01*
X376196Y438935D01*
X376267Y439023D01*
X376342Y439109D01*
X376419Y439192D01*
X376499Y439272D01*
X376582Y439349D01*
X376668Y439424D01*
X376756Y439495D01*
X376846Y439563D01*
X376939Y439628D01*
X377034Y439690D01*
X377131Y439748D01*
X377230Y439803D01*
X377331Y439854D01*
X377434Y439902D01*
X377538Y439947D01*
X377644Y439987D01*
X377751Y440024D01*
X377859Y440057D01*
X377969Y440087D01*
X378079Y440112D01*
X378190Y440134D01*
X378302Y440151D01*
X378415Y440165D01*
X378528Y440175D01*
X378641Y440181D01*
X378754Y440183D01*
X378754Y440182D02*
X383946Y440182D01*
X383946Y440183D02*
X384059Y440181D01*
X384172Y440175D01*
X384285Y440165D01*
X384398Y440151D01*
X384510Y440134D01*
X384621Y440112D01*
X384731Y440087D01*
X384841Y440057D01*
X384949Y440024D01*
X385056Y439987D01*
X385162Y439947D01*
X385266Y439902D01*
X385369Y439854D01*
X385470Y439803D01*
X385569Y439748D01*
X385666Y439690D01*
X385761Y439628D01*
X385854Y439563D01*
X385944Y439495D01*
X386032Y439424D01*
X386118Y439349D01*
X386201Y439272D01*
X386281Y439192D01*
X386358Y439109D01*
X386433Y439023D01*
X386504Y438935D01*
X386572Y438845D01*
X386637Y438752D01*
X386699Y438657D01*
X386757Y438560D01*
X386812Y438461D01*
X386863Y438360D01*
X386911Y438257D01*
X386956Y438153D01*
X386996Y438047D01*
X387033Y437940D01*
X387066Y437832D01*
X387096Y437722D01*
X387121Y437612D01*
X387143Y437501D01*
X387160Y437389D01*
X387174Y437276D01*
X387184Y437163D01*
X387190Y437050D01*
X387192Y436937D01*
X387190Y436824D01*
X387184Y436711D01*
X387174Y436598D01*
X387160Y436485D01*
X387143Y436373D01*
X387121Y436262D01*
X387096Y436152D01*
X387066Y436042D01*
X387033Y435934D01*
X386996Y435827D01*
X386956Y435721D01*
X386911Y435617D01*
X386863Y435514D01*
X386812Y435413D01*
X386757Y435314D01*
X386699Y435217D01*
X386637Y435122D01*
X386572Y435029D01*
X386504Y434939D01*
X386433Y434851D01*
X386358Y434765D01*
X386281Y434682D01*
X386201Y434602D01*
X386118Y434525D01*
X386032Y434450D01*
X385944Y434379D01*
X385854Y434311D01*
X385761Y434246D01*
X385666Y434184D01*
X385569Y434126D01*
X385470Y434071D01*
X385369Y434020D01*
X385266Y433972D01*
X385162Y433927D01*
X385056Y433887D01*
X384949Y433850D01*
X384841Y433817D01*
X384731Y433787D01*
X384621Y433762D01*
X384510Y433740D01*
X384398Y433723D01*
X384285Y433709D01*
X384172Y433699D01*
X384059Y433693D01*
X383946Y433691D01*
X383946Y445502D02*
X375508Y445502D01*
X383946Y445501D02*
X384059Y445503D01*
X384172Y445509D01*
X384285Y445519D01*
X384398Y445533D01*
X384510Y445550D01*
X384621Y445572D01*
X384731Y445597D01*
X384841Y445627D01*
X384949Y445660D01*
X385056Y445697D01*
X385162Y445737D01*
X385266Y445782D01*
X385369Y445830D01*
X385470Y445881D01*
X385569Y445936D01*
X385666Y445994D01*
X385761Y446056D01*
X385854Y446121D01*
X385944Y446189D01*
X386032Y446260D01*
X386118Y446335D01*
X386201Y446412D01*
X386281Y446492D01*
X386358Y446575D01*
X386433Y446661D01*
X386504Y446749D01*
X386572Y446839D01*
X386637Y446932D01*
X386699Y447027D01*
X386757Y447124D01*
X386812Y447223D01*
X386863Y447324D01*
X386911Y447427D01*
X386956Y447531D01*
X386996Y447637D01*
X387033Y447744D01*
X387066Y447852D01*
X387096Y447962D01*
X387121Y448072D01*
X387143Y448183D01*
X387160Y448295D01*
X387174Y448408D01*
X387184Y448521D01*
X387190Y448634D01*
X387192Y448747D01*
X387190Y448860D01*
X387184Y448973D01*
X387174Y449086D01*
X387160Y449199D01*
X387143Y449311D01*
X387121Y449422D01*
X387096Y449532D01*
X387066Y449642D01*
X387033Y449750D01*
X386996Y449857D01*
X386956Y449963D01*
X386911Y450067D01*
X386863Y450170D01*
X386812Y450271D01*
X386757Y450370D01*
X386699Y450467D01*
X386637Y450562D01*
X386572Y450655D01*
X386504Y450745D01*
X386433Y450833D01*
X386358Y450919D01*
X386281Y451002D01*
X386201Y451082D01*
X386118Y451159D01*
X386032Y451234D01*
X385944Y451305D01*
X385854Y451373D01*
X385761Y451438D01*
X385666Y451500D01*
X385569Y451558D01*
X385470Y451613D01*
X385369Y451664D01*
X385266Y451712D01*
X385162Y451757D01*
X385056Y451797D01*
X384949Y451834D01*
X384841Y451867D01*
X384731Y451897D01*
X384621Y451922D01*
X384510Y451944D01*
X384398Y451961D01*
X384285Y451975D01*
X384172Y451985D01*
X384059Y451991D01*
X383946Y451993D01*
X375508Y451993D01*
X375508Y459796D02*
X387192Y459796D01*
X375508Y456551D02*
X375508Y463042D01*
D10*
X388400Y125700D02*
X406400Y125700D01*
X388400Y125700D02*
X348450Y125700D01*
X330450Y125700D01*
X330450Y27950D01*
X406400Y27950D01*
X406400Y125700D01*
X388400Y101450D02*
X348450Y101450D01*
X388400Y101450D02*
X388400Y125700D01*
X348450Y125700D02*
X348450Y101450D01*
D11*
X322992Y32258D02*
X311308Y32258D01*
X311308Y35504D01*
X311310Y35617D01*
X311316Y35730D01*
X311326Y35843D01*
X311340Y35956D01*
X311357Y36068D01*
X311379Y36179D01*
X311404Y36289D01*
X311434Y36399D01*
X311467Y36507D01*
X311504Y36614D01*
X311544Y36720D01*
X311589Y36824D01*
X311637Y36927D01*
X311688Y37028D01*
X311743Y37127D01*
X311801Y37224D01*
X311863Y37319D01*
X311928Y37412D01*
X311996Y37502D01*
X312067Y37590D01*
X312142Y37676D01*
X312219Y37759D01*
X312299Y37839D01*
X312382Y37916D01*
X312468Y37991D01*
X312556Y38062D01*
X312646Y38130D01*
X312739Y38195D01*
X312834Y38257D01*
X312931Y38315D01*
X313030Y38370D01*
X313131Y38421D01*
X313234Y38469D01*
X313338Y38514D01*
X313444Y38554D01*
X313551Y38591D01*
X313659Y38624D01*
X313769Y38654D01*
X313879Y38679D01*
X313990Y38701D01*
X314102Y38718D01*
X314215Y38732D01*
X314328Y38742D01*
X314441Y38748D01*
X314554Y38750D01*
X314554Y38749D02*
X319746Y38749D01*
X319746Y38750D02*
X319859Y38748D01*
X319972Y38742D01*
X320085Y38732D01*
X320198Y38718D01*
X320310Y38701D01*
X320421Y38679D01*
X320531Y38654D01*
X320641Y38624D01*
X320749Y38591D01*
X320856Y38554D01*
X320962Y38514D01*
X321066Y38469D01*
X321169Y38421D01*
X321270Y38370D01*
X321369Y38315D01*
X321466Y38257D01*
X321561Y38195D01*
X321654Y38130D01*
X321744Y38062D01*
X321832Y37991D01*
X321918Y37916D01*
X322001Y37839D01*
X322081Y37759D01*
X322158Y37676D01*
X322233Y37590D01*
X322304Y37502D01*
X322372Y37412D01*
X322437Y37319D01*
X322499Y37224D01*
X322557Y37127D01*
X322612Y37028D01*
X322663Y36927D01*
X322711Y36824D01*
X322756Y36720D01*
X322796Y36614D01*
X322833Y36507D01*
X322866Y36399D01*
X322896Y36289D01*
X322921Y36179D01*
X322943Y36068D01*
X322960Y35956D01*
X322974Y35843D01*
X322984Y35730D01*
X322990Y35617D01*
X322992Y35504D01*
X322992Y32258D01*
X322992Y46632D02*
X322992Y49229D01*
X322992Y46632D02*
X322990Y46533D01*
X322984Y46433D01*
X322975Y46334D01*
X322962Y46236D01*
X322945Y46138D01*
X322924Y46040D01*
X322899Y45944D01*
X322871Y45849D01*
X322839Y45755D01*
X322804Y45662D01*
X322765Y45570D01*
X322722Y45480D01*
X322677Y45392D01*
X322627Y45305D01*
X322575Y45221D01*
X322519Y45138D01*
X322461Y45058D01*
X322399Y44980D01*
X322334Y44905D01*
X322266Y44832D01*
X322196Y44762D01*
X322123Y44694D01*
X322048Y44629D01*
X321970Y44567D01*
X321890Y44509D01*
X321807Y44453D01*
X321723Y44401D01*
X321636Y44351D01*
X321548Y44306D01*
X321458Y44263D01*
X321366Y44224D01*
X321273Y44189D01*
X321179Y44157D01*
X321084Y44129D01*
X320988Y44104D01*
X320890Y44083D01*
X320792Y44066D01*
X320694Y44053D01*
X320595Y44044D01*
X320495Y44038D01*
X320396Y44036D01*
X313904Y44036D01*
X313904Y44035D02*
X313805Y44037D01*
X313705Y44043D01*
X313606Y44052D01*
X313508Y44065D01*
X313410Y44083D01*
X313312Y44103D01*
X313216Y44128D01*
X313120Y44156D01*
X313026Y44188D01*
X312933Y44223D01*
X312842Y44262D01*
X312752Y44305D01*
X312663Y44350D01*
X312577Y44400D01*
X312492Y44452D01*
X312410Y44508D01*
X312330Y44567D01*
X312252Y44628D01*
X312176Y44693D01*
X312103Y44761D01*
X312033Y44831D01*
X311965Y44904D01*
X311900Y44980D01*
X311839Y45058D01*
X311780Y45138D01*
X311724Y45220D01*
X311672Y45305D01*
X311623Y45391D01*
X311577Y45480D01*
X311534Y45570D01*
X311495Y45661D01*
X311460Y45754D01*
X311428Y45848D01*
X311400Y45944D01*
X311375Y46040D01*
X311355Y46138D01*
X311337Y46236D01*
X311324Y46334D01*
X311315Y46433D01*
X311309Y46532D01*
X311307Y46632D01*
X311308Y46632D02*
X311308Y49229D01*
X324290Y53100D02*
X324290Y58293D01*
X322992Y63698D02*
X311308Y63698D01*
X322992Y62399D02*
X322992Y64996D01*
X311308Y64996D02*
X311308Y62399D01*
X311308Y69977D02*
X322992Y69977D01*
X322992Y76468D02*
X311308Y69977D01*
X311308Y76468D02*
X322992Y76468D01*
D12*
X95250Y368300D02*
X82550Y368300D01*
X95250Y368300D02*
X101600Y361950D01*
X101600Y349250D01*
X95250Y342900D01*
X101600Y361950D02*
X107950Y368300D01*
X120650Y368300D01*
X127000Y361950D01*
X127000Y349250D01*
X120650Y342900D01*
X107950Y342900D01*
X101600Y349250D01*
X76200Y349250D02*
X76200Y361950D01*
X82550Y368300D01*
X76200Y349250D02*
X82550Y342900D01*
X95250Y342900D01*
X127000Y361950D02*
X133350Y368300D01*
X146050Y368300D01*
X152400Y361950D01*
X152400Y349250D01*
X146050Y342900D01*
X133350Y342900D01*
X127000Y349250D01*
D13*
X79883Y377063D02*
X79883Y385953D01*
X79883Y377063D02*
X79881Y376963D01*
X79875Y376864D01*
X79865Y376764D01*
X79852Y376666D01*
X79834Y376567D01*
X79813Y376470D01*
X79788Y376374D01*
X79759Y376278D01*
X79726Y376184D01*
X79690Y376091D01*
X79650Y376000D01*
X79606Y375910D01*
X79559Y375822D01*
X79509Y375736D01*
X79455Y375652D01*
X79398Y375570D01*
X79338Y375491D01*
X79274Y375413D01*
X79208Y375339D01*
X79139Y375267D01*
X79067Y375198D01*
X78993Y375132D01*
X78915Y375068D01*
X78836Y375008D01*
X78754Y374951D01*
X78670Y374897D01*
X78584Y374847D01*
X78496Y374800D01*
X78406Y374756D01*
X78315Y374716D01*
X78222Y374680D01*
X78128Y374647D01*
X78032Y374618D01*
X77936Y374593D01*
X77839Y374572D01*
X77740Y374554D01*
X77642Y374541D01*
X77542Y374531D01*
X77443Y374525D01*
X77343Y374523D01*
X76073Y374523D01*
X85863Y374523D02*
X85863Y385953D01*
X89038Y385953D01*
X89149Y385951D01*
X89259Y385945D01*
X89370Y385936D01*
X89480Y385922D01*
X89589Y385905D01*
X89698Y385884D01*
X89806Y385859D01*
X89913Y385830D01*
X90019Y385798D01*
X90124Y385762D01*
X90227Y385722D01*
X90329Y385679D01*
X90430Y385632D01*
X90529Y385581D01*
X90626Y385528D01*
X90720Y385471D01*
X90813Y385410D01*
X90904Y385347D01*
X90993Y385280D01*
X91079Y385210D01*
X91162Y385137D01*
X91244Y385062D01*
X91322Y384984D01*
X91397Y384902D01*
X91470Y384819D01*
X91540Y384733D01*
X91607Y384644D01*
X91670Y384553D01*
X91731Y384460D01*
X91788Y384365D01*
X91841Y384269D01*
X91892Y384170D01*
X91939Y384069D01*
X91982Y383967D01*
X92022Y383864D01*
X92058Y383759D01*
X92090Y383653D01*
X92119Y383546D01*
X92144Y383438D01*
X92165Y383329D01*
X92182Y383220D01*
X92196Y383110D01*
X92205Y382999D01*
X92211Y382889D01*
X92213Y382778D01*
X92211Y382667D01*
X92205Y382557D01*
X92196Y382446D01*
X92182Y382336D01*
X92165Y382227D01*
X92144Y382118D01*
X92119Y382010D01*
X92090Y381903D01*
X92058Y381797D01*
X92022Y381692D01*
X91982Y381589D01*
X91939Y381487D01*
X91892Y381386D01*
X91841Y381287D01*
X91788Y381190D01*
X91731Y381096D01*
X91670Y381003D01*
X91607Y380912D01*
X91540Y380823D01*
X91470Y380737D01*
X91397Y380654D01*
X91322Y380572D01*
X91244Y380494D01*
X91162Y380419D01*
X91079Y380346D01*
X90993Y380276D01*
X90904Y380209D01*
X90813Y380146D01*
X90720Y380085D01*
X90625Y380028D01*
X90529Y379975D01*
X90430Y379924D01*
X90329Y379877D01*
X90227Y379834D01*
X90124Y379794D01*
X90019Y379758D01*
X89913Y379726D01*
X89806Y379697D01*
X89698Y379672D01*
X89589Y379651D01*
X89480Y379634D01*
X89370Y379620D01*
X89259Y379611D01*
X89149Y379605D01*
X89038Y379603D01*
X85863Y379603D01*
X96722Y374523D02*
X100532Y374523D01*
X100632Y374525D01*
X100731Y374531D01*
X100831Y374541D01*
X100929Y374554D01*
X101028Y374572D01*
X101125Y374593D01*
X101221Y374618D01*
X101317Y374647D01*
X101411Y374680D01*
X101504Y374716D01*
X101595Y374756D01*
X101685Y374800D01*
X101773Y374847D01*
X101859Y374897D01*
X101943Y374951D01*
X102025Y375008D01*
X102104Y375068D01*
X102182Y375132D01*
X102256Y375198D01*
X102328Y375267D01*
X102397Y375339D01*
X102463Y375413D01*
X102527Y375491D01*
X102587Y375570D01*
X102644Y375652D01*
X102698Y375736D01*
X102748Y375822D01*
X102795Y375910D01*
X102839Y376000D01*
X102879Y376091D01*
X102915Y376184D01*
X102948Y376278D01*
X102977Y376374D01*
X103002Y376470D01*
X103023Y376567D01*
X103041Y376666D01*
X103054Y376764D01*
X103064Y376864D01*
X103070Y376963D01*
X103072Y377063D01*
X103072Y378333D01*
X103070Y378433D01*
X103064Y378532D01*
X103054Y378632D01*
X103041Y378730D01*
X103023Y378829D01*
X103002Y378926D01*
X102977Y379022D01*
X102948Y379118D01*
X102915Y379212D01*
X102879Y379305D01*
X102839Y379396D01*
X102795Y379486D01*
X102748Y379574D01*
X102698Y379660D01*
X102644Y379744D01*
X102587Y379826D01*
X102527Y379905D01*
X102463Y379983D01*
X102397Y380057D01*
X102328Y380129D01*
X102256Y380198D01*
X102182Y380264D01*
X102104Y380328D01*
X102025Y380388D01*
X101943Y380445D01*
X101859Y380499D01*
X101773Y380549D01*
X101685Y380596D01*
X101595Y380640D01*
X101504Y380680D01*
X101411Y380716D01*
X101317Y380749D01*
X101221Y380778D01*
X101125Y380803D01*
X101028Y380824D01*
X100929Y380842D01*
X100831Y380855D01*
X100731Y380865D01*
X100632Y380871D01*
X100532Y380873D01*
X96722Y380873D01*
X96722Y385953D01*
X103072Y385953D01*
D12*
X95250Y279400D02*
X82550Y279400D01*
X95250Y279400D02*
X101600Y273050D01*
X101600Y260350D01*
X95250Y254000D01*
X101600Y273050D02*
X107950Y279400D01*
X120650Y279400D01*
X127000Y273050D01*
X127000Y260350D01*
X120650Y254000D01*
X107950Y254000D01*
X101600Y260350D01*
X76200Y260350D02*
X76200Y273050D01*
X82550Y279400D01*
X76200Y260350D02*
X82550Y254000D01*
X95250Y254000D01*
X127000Y273050D02*
X133350Y279400D01*
X146050Y279400D01*
X152400Y273050D01*
X152400Y260350D01*
X146050Y254000D01*
X133350Y254000D01*
X127000Y260350D01*
D13*
X79883Y288163D02*
X79883Y297053D01*
X79883Y288163D02*
X79881Y288063D01*
X79875Y287964D01*
X79865Y287864D01*
X79852Y287766D01*
X79834Y287667D01*
X79813Y287570D01*
X79788Y287474D01*
X79759Y287378D01*
X79726Y287284D01*
X79690Y287191D01*
X79650Y287100D01*
X79606Y287010D01*
X79559Y286922D01*
X79509Y286836D01*
X79455Y286752D01*
X79398Y286670D01*
X79338Y286591D01*
X79274Y286513D01*
X79208Y286439D01*
X79139Y286367D01*
X79067Y286298D01*
X78993Y286232D01*
X78915Y286168D01*
X78836Y286108D01*
X78754Y286051D01*
X78670Y285997D01*
X78584Y285947D01*
X78496Y285900D01*
X78406Y285856D01*
X78315Y285816D01*
X78222Y285780D01*
X78128Y285747D01*
X78032Y285718D01*
X77936Y285693D01*
X77839Y285672D01*
X77740Y285654D01*
X77642Y285641D01*
X77542Y285631D01*
X77443Y285625D01*
X77343Y285623D01*
X76073Y285623D01*
X85863Y285623D02*
X85863Y297053D01*
X89038Y297053D01*
X89149Y297051D01*
X89259Y297045D01*
X89370Y297036D01*
X89480Y297022D01*
X89589Y297005D01*
X89698Y296984D01*
X89806Y296959D01*
X89913Y296930D01*
X90019Y296898D01*
X90124Y296862D01*
X90227Y296822D01*
X90329Y296779D01*
X90430Y296732D01*
X90529Y296681D01*
X90626Y296628D01*
X90720Y296571D01*
X90813Y296510D01*
X90904Y296447D01*
X90993Y296380D01*
X91079Y296310D01*
X91162Y296237D01*
X91244Y296162D01*
X91322Y296084D01*
X91397Y296002D01*
X91470Y295919D01*
X91540Y295833D01*
X91607Y295744D01*
X91670Y295653D01*
X91731Y295560D01*
X91788Y295465D01*
X91841Y295369D01*
X91892Y295270D01*
X91939Y295169D01*
X91982Y295067D01*
X92022Y294964D01*
X92058Y294859D01*
X92090Y294753D01*
X92119Y294646D01*
X92144Y294538D01*
X92165Y294429D01*
X92182Y294320D01*
X92196Y294210D01*
X92205Y294099D01*
X92211Y293989D01*
X92213Y293878D01*
X92211Y293767D01*
X92205Y293657D01*
X92196Y293546D01*
X92182Y293436D01*
X92165Y293327D01*
X92144Y293218D01*
X92119Y293110D01*
X92090Y293003D01*
X92058Y292897D01*
X92022Y292792D01*
X91982Y292689D01*
X91939Y292587D01*
X91892Y292486D01*
X91841Y292387D01*
X91788Y292290D01*
X91731Y292196D01*
X91670Y292103D01*
X91607Y292012D01*
X91540Y291923D01*
X91470Y291837D01*
X91397Y291754D01*
X91322Y291672D01*
X91244Y291594D01*
X91162Y291519D01*
X91079Y291446D01*
X90993Y291376D01*
X90904Y291309D01*
X90813Y291246D01*
X90720Y291185D01*
X90625Y291128D01*
X90529Y291075D01*
X90430Y291024D01*
X90329Y290977D01*
X90227Y290934D01*
X90124Y290894D01*
X90019Y290858D01*
X89913Y290826D01*
X89806Y290797D01*
X89698Y290772D01*
X89589Y290751D01*
X89480Y290734D01*
X89370Y290720D01*
X89259Y290711D01*
X89149Y290705D01*
X89038Y290703D01*
X85863Y290703D01*
X96722Y288163D02*
X99262Y297053D01*
X96722Y288163D02*
X103072Y288163D01*
X101167Y290703D02*
X101167Y285623D01*
D12*
X95250Y203200D02*
X82550Y203200D01*
X95250Y203200D02*
X101600Y196850D01*
X101600Y184150D01*
X95250Y177800D01*
X101600Y196850D02*
X107950Y203200D01*
X120650Y203200D01*
X127000Y196850D01*
X127000Y184150D01*
X120650Y177800D01*
X107950Y177800D01*
X101600Y184150D01*
X76200Y184150D02*
X76200Y196850D01*
X82550Y203200D01*
X76200Y184150D02*
X82550Y177800D01*
X95250Y177800D01*
X127000Y196850D02*
X133350Y203200D01*
X146050Y203200D01*
X152400Y196850D01*
X152400Y184150D01*
X146050Y177800D01*
X133350Y177800D01*
X127000Y184150D01*
D13*
X79883Y211963D02*
X79883Y220853D01*
X79883Y211963D02*
X79881Y211863D01*
X79875Y211764D01*
X79865Y211664D01*
X79852Y211566D01*
X79834Y211467D01*
X79813Y211370D01*
X79788Y211274D01*
X79759Y211178D01*
X79726Y211084D01*
X79690Y210991D01*
X79650Y210900D01*
X79606Y210810D01*
X79559Y210722D01*
X79509Y210636D01*
X79455Y210552D01*
X79398Y210470D01*
X79338Y210391D01*
X79274Y210313D01*
X79208Y210239D01*
X79139Y210167D01*
X79067Y210098D01*
X78993Y210032D01*
X78915Y209968D01*
X78836Y209908D01*
X78754Y209851D01*
X78670Y209797D01*
X78584Y209747D01*
X78496Y209700D01*
X78406Y209656D01*
X78315Y209616D01*
X78222Y209580D01*
X78128Y209547D01*
X78032Y209518D01*
X77936Y209493D01*
X77839Y209472D01*
X77740Y209454D01*
X77642Y209441D01*
X77542Y209431D01*
X77443Y209425D01*
X77343Y209423D01*
X76073Y209423D01*
X85863Y209423D02*
X85863Y220853D01*
X89038Y220853D01*
X89149Y220851D01*
X89259Y220845D01*
X89370Y220836D01*
X89480Y220822D01*
X89589Y220805D01*
X89698Y220784D01*
X89806Y220759D01*
X89913Y220730D01*
X90019Y220698D01*
X90124Y220662D01*
X90227Y220622D01*
X90329Y220579D01*
X90430Y220532D01*
X90529Y220481D01*
X90626Y220428D01*
X90720Y220371D01*
X90813Y220310D01*
X90904Y220247D01*
X90993Y220180D01*
X91079Y220110D01*
X91162Y220037D01*
X91244Y219962D01*
X91322Y219884D01*
X91397Y219802D01*
X91470Y219719D01*
X91540Y219633D01*
X91607Y219544D01*
X91670Y219453D01*
X91731Y219360D01*
X91788Y219265D01*
X91841Y219169D01*
X91892Y219070D01*
X91939Y218969D01*
X91982Y218867D01*
X92022Y218764D01*
X92058Y218659D01*
X92090Y218553D01*
X92119Y218446D01*
X92144Y218338D01*
X92165Y218229D01*
X92182Y218120D01*
X92196Y218010D01*
X92205Y217899D01*
X92211Y217789D01*
X92213Y217678D01*
X92211Y217567D01*
X92205Y217457D01*
X92196Y217346D01*
X92182Y217236D01*
X92165Y217127D01*
X92144Y217018D01*
X92119Y216910D01*
X92090Y216803D01*
X92058Y216697D01*
X92022Y216592D01*
X91982Y216489D01*
X91939Y216387D01*
X91892Y216286D01*
X91841Y216187D01*
X91788Y216090D01*
X91731Y215996D01*
X91670Y215903D01*
X91607Y215812D01*
X91540Y215723D01*
X91470Y215637D01*
X91397Y215554D01*
X91322Y215472D01*
X91244Y215394D01*
X91162Y215319D01*
X91079Y215246D01*
X90993Y215176D01*
X90904Y215109D01*
X90813Y215046D01*
X90720Y214985D01*
X90625Y214928D01*
X90529Y214875D01*
X90430Y214824D01*
X90329Y214777D01*
X90227Y214734D01*
X90124Y214694D01*
X90019Y214658D01*
X89913Y214626D01*
X89806Y214597D01*
X89698Y214572D01*
X89589Y214551D01*
X89480Y214534D01*
X89370Y214520D01*
X89259Y214511D01*
X89149Y214505D01*
X89038Y214503D01*
X85863Y214503D01*
X96722Y209423D02*
X99897Y209423D01*
X100008Y209425D01*
X100118Y209431D01*
X100229Y209440D01*
X100339Y209454D01*
X100448Y209471D01*
X100557Y209492D01*
X100665Y209517D01*
X100772Y209546D01*
X100878Y209578D01*
X100983Y209614D01*
X101086Y209654D01*
X101188Y209697D01*
X101289Y209744D01*
X101388Y209795D01*
X101484Y209848D01*
X101579Y209905D01*
X101672Y209966D01*
X101763Y210029D01*
X101852Y210096D01*
X101938Y210166D01*
X102021Y210239D01*
X102103Y210314D01*
X102181Y210392D01*
X102256Y210474D01*
X102329Y210557D01*
X102399Y210643D01*
X102466Y210732D01*
X102529Y210823D01*
X102590Y210916D01*
X102647Y211010D01*
X102700Y211107D01*
X102751Y211206D01*
X102798Y211307D01*
X102841Y211409D01*
X102881Y211512D01*
X102917Y211617D01*
X102949Y211723D01*
X102978Y211830D01*
X103003Y211938D01*
X103024Y212047D01*
X103041Y212156D01*
X103055Y212266D01*
X103064Y212377D01*
X103070Y212487D01*
X103072Y212598D01*
X103070Y212709D01*
X103064Y212819D01*
X103055Y212930D01*
X103041Y213040D01*
X103024Y213149D01*
X103003Y213258D01*
X102978Y213366D01*
X102949Y213473D01*
X102917Y213579D01*
X102881Y213684D01*
X102841Y213787D01*
X102798Y213889D01*
X102751Y213990D01*
X102700Y214089D01*
X102647Y214185D01*
X102590Y214280D01*
X102529Y214373D01*
X102466Y214464D01*
X102399Y214553D01*
X102329Y214639D01*
X102256Y214722D01*
X102181Y214804D01*
X102103Y214882D01*
X102021Y214957D01*
X101938Y215030D01*
X101852Y215100D01*
X101763Y215167D01*
X101672Y215230D01*
X101579Y215291D01*
X101485Y215348D01*
X101388Y215401D01*
X101289Y215452D01*
X101188Y215499D01*
X101086Y215542D01*
X100983Y215582D01*
X100878Y215618D01*
X100772Y215650D01*
X100665Y215679D01*
X100557Y215704D01*
X100448Y215725D01*
X100339Y215742D01*
X100229Y215756D01*
X100118Y215765D01*
X100008Y215771D01*
X99897Y215773D01*
X100532Y220853D02*
X96722Y220853D01*
X100532Y220853D02*
X100632Y220851D01*
X100731Y220845D01*
X100831Y220835D01*
X100929Y220822D01*
X101028Y220804D01*
X101125Y220783D01*
X101221Y220758D01*
X101317Y220729D01*
X101411Y220696D01*
X101504Y220660D01*
X101595Y220620D01*
X101685Y220576D01*
X101773Y220529D01*
X101859Y220479D01*
X101943Y220425D01*
X102025Y220368D01*
X102104Y220308D01*
X102182Y220244D01*
X102256Y220178D01*
X102328Y220109D01*
X102397Y220037D01*
X102463Y219963D01*
X102527Y219885D01*
X102587Y219806D01*
X102644Y219724D01*
X102698Y219640D01*
X102748Y219554D01*
X102795Y219466D01*
X102839Y219376D01*
X102879Y219285D01*
X102915Y219192D01*
X102948Y219098D01*
X102977Y219002D01*
X103002Y218906D01*
X103023Y218809D01*
X103041Y218710D01*
X103054Y218612D01*
X103064Y218512D01*
X103070Y218413D01*
X103072Y218313D01*
X103070Y218213D01*
X103064Y218114D01*
X103054Y218014D01*
X103041Y217916D01*
X103023Y217817D01*
X103002Y217720D01*
X102977Y217624D01*
X102948Y217528D01*
X102915Y217434D01*
X102879Y217341D01*
X102839Y217250D01*
X102795Y217160D01*
X102748Y217072D01*
X102698Y216986D01*
X102644Y216902D01*
X102587Y216820D01*
X102527Y216741D01*
X102463Y216663D01*
X102397Y216589D01*
X102328Y216517D01*
X102256Y216448D01*
X102182Y216382D01*
X102104Y216318D01*
X102025Y216258D01*
X101943Y216201D01*
X101859Y216147D01*
X101773Y216097D01*
X101685Y216050D01*
X101595Y216006D01*
X101504Y215966D01*
X101411Y215930D01*
X101317Y215897D01*
X101221Y215868D01*
X101125Y215843D01*
X101028Y215822D01*
X100929Y215804D01*
X100831Y215791D01*
X100731Y215781D01*
X100632Y215775D01*
X100532Y215773D01*
X97992Y215773D01*
D12*
X95250Y114300D02*
X82550Y114300D01*
X95250Y114300D02*
X101600Y107950D01*
X101600Y95250D01*
X95250Y88900D01*
X101600Y107950D02*
X107950Y114300D01*
X120650Y114300D01*
X127000Y107950D01*
X127000Y95250D01*
X120650Y88900D01*
X107950Y88900D01*
X101600Y95250D01*
X76200Y95250D02*
X76200Y107950D01*
X82550Y114300D01*
X76200Y95250D02*
X82550Y88900D01*
X95250Y88900D01*
X127000Y107950D02*
X133350Y114300D01*
X146050Y114300D01*
X152400Y107950D01*
X152400Y95250D01*
X146050Y88900D01*
X133350Y88900D01*
X127000Y95250D01*
D13*
X79883Y123063D02*
X79883Y131953D01*
X79883Y123063D02*
X79881Y122963D01*
X79875Y122864D01*
X79865Y122764D01*
X79852Y122666D01*
X79834Y122567D01*
X79813Y122470D01*
X79788Y122374D01*
X79759Y122278D01*
X79726Y122184D01*
X79690Y122091D01*
X79650Y122000D01*
X79606Y121910D01*
X79559Y121822D01*
X79509Y121736D01*
X79455Y121652D01*
X79398Y121570D01*
X79338Y121491D01*
X79274Y121413D01*
X79208Y121339D01*
X79139Y121267D01*
X79067Y121198D01*
X78993Y121132D01*
X78915Y121068D01*
X78836Y121008D01*
X78754Y120951D01*
X78670Y120897D01*
X78584Y120847D01*
X78496Y120800D01*
X78406Y120756D01*
X78315Y120716D01*
X78222Y120680D01*
X78128Y120647D01*
X78032Y120618D01*
X77936Y120593D01*
X77839Y120572D01*
X77740Y120554D01*
X77642Y120541D01*
X77542Y120531D01*
X77443Y120525D01*
X77343Y120523D01*
X76073Y120523D01*
X85863Y120523D02*
X85863Y131953D01*
X89038Y131953D01*
X89149Y131951D01*
X89259Y131945D01*
X89370Y131936D01*
X89480Y131922D01*
X89589Y131905D01*
X89698Y131884D01*
X89806Y131859D01*
X89913Y131830D01*
X90019Y131798D01*
X90124Y131762D01*
X90227Y131722D01*
X90329Y131679D01*
X90430Y131632D01*
X90529Y131581D01*
X90626Y131528D01*
X90720Y131471D01*
X90813Y131410D01*
X90904Y131347D01*
X90993Y131280D01*
X91079Y131210D01*
X91162Y131137D01*
X91244Y131062D01*
X91322Y130984D01*
X91397Y130902D01*
X91470Y130819D01*
X91540Y130733D01*
X91607Y130644D01*
X91670Y130553D01*
X91731Y130460D01*
X91788Y130365D01*
X91841Y130269D01*
X91892Y130170D01*
X91939Y130069D01*
X91982Y129967D01*
X92022Y129864D01*
X92058Y129759D01*
X92090Y129653D01*
X92119Y129546D01*
X92144Y129438D01*
X92165Y129329D01*
X92182Y129220D01*
X92196Y129110D01*
X92205Y128999D01*
X92211Y128889D01*
X92213Y128778D01*
X92211Y128667D01*
X92205Y128557D01*
X92196Y128446D01*
X92182Y128336D01*
X92165Y128227D01*
X92144Y128118D01*
X92119Y128010D01*
X92090Y127903D01*
X92058Y127797D01*
X92022Y127692D01*
X91982Y127589D01*
X91939Y127487D01*
X91892Y127386D01*
X91841Y127287D01*
X91788Y127190D01*
X91731Y127096D01*
X91670Y127003D01*
X91607Y126912D01*
X91540Y126823D01*
X91470Y126737D01*
X91397Y126654D01*
X91322Y126572D01*
X91244Y126494D01*
X91162Y126419D01*
X91079Y126346D01*
X90993Y126276D01*
X90904Y126209D01*
X90813Y126146D01*
X90720Y126085D01*
X90625Y126028D01*
X90529Y125975D01*
X90430Y125924D01*
X90329Y125877D01*
X90227Y125834D01*
X90124Y125794D01*
X90019Y125758D01*
X89913Y125726D01*
X89806Y125697D01*
X89698Y125672D01*
X89589Y125651D01*
X89480Y125634D01*
X89370Y125620D01*
X89259Y125611D01*
X89149Y125605D01*
X89038Y125603D01*
X85863Y125603D01*
X100214Y131954D02*
X100318Y131952D01*
X100423Y131946D01*
X100527Y131937D01*
X100630Y131924D01*
X100733Y131906D01*
X100835Y131886D01*
X100937Y131861D01*
X101037Y131833D01*
X101137Y131801D01*
X101235Y131765D01*
X101332Y131726D01*
X101427Y131684D01*
X101521Y131638D01*
X101613Y131588D01*
X101703Y131536D01*
X101791Y131480D01*
X101877Y131420D01*
X101961Y131358D01*
X102042Y131293D01*
X102121Y131225D01*
X102198Y131153D01*
X102271Y131080D01*
X102343Y131003D01*
X102411Y130924D01*
X102476Y130843D01*
X102538Y130759D01*
X102598Y130673D01*
X102654Y130585D01*
X102706Y130495D01*
X102756Y130403D01*
X102802Y130309D01*
X102844Y130214D01*
X102883Y130117D01*
X102919Y130019D01*
X102951Y129919D01*
X102979Y129819D01*
X103004Y129717D01*
X103024Y129615D01*
X103042Y129512D01*
X103055Y129409D01*
X103064Y129305D01*
X103070Y129200D01*
X103072Y129096D01*
X100214Y131953D02*
X100096Y131951D01*
X99977Y131945D01*
X99859Y131936D01*
X99742Y131923D01*
X99625Y131905D01*
X99508Y131885D01*
X99392Y131860D01*
X99277Y131832D01*
X99164Y131799D01*
X99051Y131764D01*
X98939Y131724D01*
X98829Y131682D01*
X98720Y131635D01*
X98612Y131585D01*
X98507Y131532D01*
X98403Y131475D01*
X98301Y131415D01*
X98201Y131352D01*
X98103Y131285D01*
X98007Y131216D01*
X97914Y131143D01*
X97823Y131067D01*
X97734Y130989D01*
X97648Y130907D01*
X97565Y130823D01*
X97484Y130737D01*
X97407Y130647D01*
X97332Y130556D01*
X97260Y130462D01*
X97191Y130365D01*
X97126Y130267D01*
X97063Y130166D01*
X97004Y130063D01*
X96948Y129959D01*
X96896Y129853D01*
X96847Y129745D01*
X96802Y129636D01*
X96760Y129525D01*
X96722Y129413D01*
X102120Y126874D02*
X102196Y126949D01*
X102271Y127028D01*
X102342Y127109D01*
X102411Y127193D01*
X102476Y127279D01*
X102538Y127367D01*
X102598Y127457D01*
X102654Y127549D01*
X102707Y127644D01*
X102756Y127740D01*
X102802Y127838D01*
X102845Y127937D01*
X102884Y128038D01*
X102919Y128140D01*
X102951Y128243D01*
X102979Y128347D01*
X103004Y128452D01*
X103025Y128559D01*
X103042Y128665D01*
X103055Y128772D01*
X103064Y128880D01*
X103070Y128988D01*
X103072Y129096D01*
X102119Y126873D02*
X96722Y120523D01*
X103072Y120523D01*
D11*
X232658Y140395D02*
X244342Y140395D01*
X232658Y140395D02*
X232658Y143640D01*
X232660Y143753D01*
X232666Y143866D01*
X232676Y143979D01*
X232690Y144092D01*
X232707Y144204D01*
X232729Y144315D01*
X232754Y144425D01*
X232784Y144535D01*
X232817Y144643D01*
X232854Y144750D01*
X232894Y144856D01*
X232939Y144960D01*
X232987Y145063D01*
X233038Y145164D01*
X233093Y145263D01*
X233151Y145360D01*
X233213Y145455D01*
X233278Y145548D01*
X233346Y145638D01*
X233417Y145726D01*
X233492Y145812D01*
X233569Y145895D01*
X233649Y145975D01*
X233732Y146052D01*
X233818Y146127D01*
X233906Y146198D01*
X233996Y146266D01*
X234089Y146331D01*
X234184Y146393D01*
X234281Y146451D01*
X234380Y146506D01*
X234481Y146557D01*
X234584Y146605D01*
X234688Y146650D01*
X234794Y146690D01*
X234901Y146727D01*
X235009Y146760D01*
X235119Y146790D01*
X235229Y146815D01*
X235340Y146837D01*
X235452Y146854D01*
X235565Y146868D01*
X235678Y146878D01*
X235791Y146884D01*
X235904Y146886D01*
X236017Y146884D01*
X236130Y146878D01*
X236243Y146868D01*
X236356Y146854D01*
X236468Y146837D01*
X236579Y146815D01*
X236689Y146790D01*
X236799Y146760D01*
X236907Y146727D01*
X237014Y146690D01*
X237120Y146650D01*
X237224Y146605D01*
X237327Y146557D01*
X237428Y146506D01*
X237527Y146451D01*
X237624Y146393D01*
X237719Y146331D01*
X237812Y146266D01*
X237902Y146198D01*
X237990Y146127D01*
X238076Y146052D01*
X238159Y145975D01*
X238239Y145895D01*
X238316Y145812D01*
X238391Y145726D01*
X238462Y145638D01*
X238530Y145548D01*
X238595Y145455D01*
X238657Y145360D01*
X238715Y145263D01*
X238770Y145164D01*
X238821Y145063D01*
X238869Y144960D01*
X238914Y144856D01*
X238954Y144750D01*
X238991Y144643D01*
X239024Y144535D01*
X239054Y144425D01*
X239079Y144315D01*
X239101Y144204D01*
X239118Y144092D01*
X239132Y143979D01*
X239142Y143866D01*
X239148Y143753D01*
X239150Y143640D01*
X239149Y143640D02*
X239149Y140395D01*
X239149Y144289D02*
X244342Y146886D01*
X244342Y151751D02*
X244342Y154996D01*
X244340Y155109D01*
X244334Y155222D01*
X244324Y155335D01*
X244310Y155448D01*
X244293Y155560D01*
X244271Y155671D01*
X244246Y155781D01*
X244216Y155891D01*
X244183Y155999D01*
X244146Y156106D01*
X244106Y156212D01*
X244061Y156316D01*
X244013Y156419D01*
X243962Y156520D01*
X243907Y156619D01*
X243849Y156716D01*
X243787Y156811D01*
X243722Y156904D01*
X243654Y156994D01*
X243583Y157082D01*
X243508Y157168D01*
X243431Y157251D01*
X243351Y157331D01*
X243268Y157408D01*
X243182Y157483D01*
X243094Y157554D01*
X243004Y157622D01*
X242911Y157687D01*
X242816Y157749D01*
X242719Y157807D01*
X242620Y157862D01*
X242519Y157913D01*
X242416Y157961D01*
X242312Y158006D01*
X242206Y158046D01*
X242099Y158083D01*
X241991Y158116D01*
X241881Y158146D01*
X241771Y158171D01*
X241660Y158193D01*
X241548Y158210D01*
X241435Y158224D01*
X241322Y158234D01*
X241209Y158240D01*
X241096Y158242D01*
X240983Y158240D01*
X240870Y158234D01*
X240757Y158224D01*
X240644Y158210D01*
X240532Y158193D01*
X240421Y158171D01*
X240311Y158146D01*
X240201Y158116D01*
X240093Y158083D01*
X239986Y158046D01*
X239880Y158006D01*
X239776Y157961D01*
X239673Y157913D01*
X239572Y157862D01*
X239473Y157807D01*
X239376Y157749D01*
X239281Y157687D01*
X239188Y157622D01*
X239098Y157554D01*
X239010Y157483D01*
X238924Y157408D01*
X238841Y157331D01*
X238761Y157251D01*
X238684Y157168D01*
X238609Y157082D01*
X238538Y156994D01*
X238470Y156904D01*
X238405Y156811D01*
X238343Y156716D01*
X238285Y156619D01*
X238230Y156520D01*
X238179Y156419D01*
X238131Y156316D01*
X238086Y156212D01*
X238046Y156106D01*
X238009Y155999D01*
X237976Y155891D01*
X237946Y155781D01*
X237921Y155671D01*
X237899Y155560D01*
X237882Y155448D01*
X237868Y155335D01*
X237858Y155222D01*
X237852Y155109D01*
X237850Y154996D01*
X232658Y155646D02*
X232658Y151751D01*
X232658Y155646D02*
X232660Y155747D01*
X232666Y155847D01*
X232676Y155947D01*
X232689Y156047D01*
X232707Y156146D01*
X232728Y156245D01*
X232753Y156342D01*
X232782Y156439D01*
X232815Y156534D01*
X232851Y156628D01*
X232891Y156720D01*
X232934Y156811D01*
X232981Y156900D01*
X233031Y156987D01*
X233085Y157073D01*
X233142Y157156D01*
X233202Y157236D01*
X233265Y157315D01*
X233332Y157391D01*
X233401Y157464D01*
X233473Y157534D01*
X233547Y157602D01*
X233624Y157667D01*
X233704Y157728D01*
X233786Y157787D01*
X233870Y157842D01*
X233956Y157894D01*
X234044Y157943D01*
X234134Y157988D01*
X234226Y158030D01*
X234319Y158068D01*
X234414Y158102D01*
X234509Y158133D01*
X234606Y158160D01*
X234704Y158183D01*
X234803Y158203D01*
X234903Y158218D01*
X235003Y158230D01*
X235103Y158238D01*
X235204Y158242D01*
X235304Y158242D01*
X235405Y158238D01*
X235505Y158230D01*
X235605Y158218D01*
X235705Y158203D01*
X235804Y158183D01*
X235902Y158160D01*
X235999Y158133D01*
X236094Y158102D01*
X236189Y158068D01*
X236282Y158030D01*
X236374Y157988D01*
X236464Y157943D01*
X236552Y157894D01*
X236638Y157842D01*
X236722Y157787D01*
X236804Y157728D01*
X236884Y157667D01*
X236961Y157602D01*
X237035Y157534D01*
X237107Y157464D01*
X237176Y157391D01*
X237243Y157315D01*
X237306Y157236D01*
X237366Y157156D01*
X237423Y157073D01*
X237477Y156987D01*
X237527Y156900D01*
X237574Y156811D01*
X237617Y156720D01*
X237657Y156628D01*
X237693Y156534D01*
X237726Y156439D01*
X237755Y156342D01*
X237780Y156245D01*
X237801Y156146D01*
X237819Y156047D01*
X237832Y155947D01*
X237842Y155847D01*
X237848Y155747D01*
X237850Y155646D01*
X237851Y155646D02*
X237851Y153049D01*
X102295Y387858D02*
X102295Y399542D01*
X105540Y399542D01*
X105653Y399540D01*
X105766Y399534D01*
X105879Y399524D01*
X105992Y399510D01*
X106104Y399493D01*
X106215Y399471D01*
X106325Y399446D01*
X106435Y399416D01*
X106543Y399383D01*
X106650Y399346D01*
X106756Y399306D01*
X106860Y399261D01*
X106963Y399213D01*
X107064Y399162D01*
X107163Y399107D01*
X107260Y399049D01*
X107355Y398987D01*
X107448Y398922D01*
X107538Y398854D01*
X107626Y398783D01*
X107712Y398708D01*
X107795Y398631D01*
X107875Y398551D01*
X107952Y398468D01*
X108027Y398382D01*
X108098Y398294D01*
X108166Y398204D01*
X108231Y398111D01*
X108293Y398016D01*
X108351Y397919D01*
X108406Y397820D01*
X108457Y397719D01*
X108505Y397616D01*
X108550Y397512D01*
X108590Y397406D01*
X108627Y397299D01*
X108660Y397191D01*
X108690Y397081D01*
X108715Y396971D01*
X108737Y396860D01*
X108754Y396748D01*
X108768Y396635D01*
X108778Y396522D01*
X108784Y396409D01*
X108786Y396296D01*
X108784Y396183D01*
X108778Y396070D01*
X108768Y395957D01*
X108754Y395844D01*
X108737Y395732D01*
X108715Y395621D01*
X108690Y395511D01*
X108660Y395401D01*
X108627Y395293D01*
X108590Y395186D01*
X108550Y395080D01*
X108505Y394976D01*
X108457Y394873D01*
X108406Y394772D01*
X108351Y394673D01*
X108293Y394576D01*
X108231Y394481D01*
X108166Y394388D01*
X108098Y394298D01*
X108027Y394210D01*
X107952Y394124D01*
X107875Y394041D01*
X107795Y393961D01*
X107712Y393884D01*
X107626Y393809D01*
X107538Y393738D01*
X107448Y393670D01*
X107355Y393605D01*
X107260Y393543D01*
X107163Y393485D01*
X107064Y393430D01*
X106963Y393379D01*
X106860Y393331D01*
X106756Y393286D01*
X106650Y393246D01*
X106543Y393209D01*
X106435Y393176D01*
X106325Y393146D01*
X106215Y393121D01*
X106104Y393099D01*
X105992Y393082D01*
X105879Y393068D01*
X105766Y393058D01*
X105653Y393052D01*
X105540Y393050D01*
X105540Y393051D02*
X102295Y393051D01*
X106189Y393051D02*
X108786Y387858D01*
X113651Y396946D02*
X116896Y399542D01*
X116896Y387858D01*
X113651Y387858D02*
X120142Y387858D01*
D12*
X222250Y88900D02*
X234950Y88900D01*
X241300Y82550D01*
X241300Y69850D01*
X234950Y63500D01*
X215900Y69850D02*
X215900Y82550D01*
X222250Y88900D01*
X215900Y69850D02*
X222250Y63500D01*
X234950Y63500D01*
X241300Y82550D02*
X247650Y88900D01*
X260350Y88900D01*
X266700Y82550D01*
X266700Y69850D01*
X260350Y63500D01*
X247650Y63500D01*
X241300Y69850D01*
D13*
X219583Y97663D02*
X219583Y106553D01*
X219583Y97663D02*
X219581Y97563D01*
X219575Y97464D01*
X219565Y97364D01*
X219552Y97266D01*
X219534Y97167D01*
X219513Y97070D01*
X219488Y96974D01*
X219459Y96878D01*
X219426Y96784D01*
X219390Y96691D01*
X219350Y96600D01*
X219306Y96510D01*
X219259Y96422D01*
X219209Y96336D01*
X219155Y96252D01*
X219098Y96170D01*
X219038Y96091D01*
X218974Y96013D01*
X218908Y95939D01*
X218839Y95867D01*
X218767Y95798D01*
X218693Y95732D01*
X218615Y95668D01*
X218536Y95608D01*
X218454Y95551D01*
X218370Y95497D01*
X218284Y95447D01*
X218196Y95400D01*
X218106Y95356D01*
X218015Y95316D01*
X217922Y95280D01*
X217828Y95247D01*
X217732Y95218D01*
X217636Y95193D01*
X217539Y95172D01*
X217440Y95154D01*
X217342Y95141D01*
X217242Y95131D01*
X217143Y95125D01*
X217043Y95123D01*
X215773Y95123D01*
X225563Y95123D02*
X225563Y106553D01*
X228738Y106553D01*
X228849Y106551D01*
X228959Y106545D01*
X229070Y106536D01*
X229180Y106522D01*
X229289Y106505D01*
X229398Y106484D01*
X229506Y106459D01*
X229613Y106430D01*
X229719Y106398D01*
X229824Y106362D01*
X229927Y106322D01*
X230029Y106279D01*
X230130Y106232D01*
X230229Y106181D01*
X230326Y106128D01*
X230420Y106071D01*
X230513Y106010D01*
X230604Y105947D01*
X230693Y105880D01*
X230779Y105810D01*
X230862Y105737D01*
X230944Y105662D01*
X231022Y105584D01*
X231097Y105502D01*
X231170Y105419D01*
X231240Y105333D01*
X231307Y105244D01*
X231370Y105153D01*
X231431Y105060D01*
X231488Y104965D01*
X231541Y104869D01*
X231592Y104770D01*
X231639Y104669D01*
X231682Y104567D01*
X231722Y104464D01*
X231758Y104359D01*
X231790Y104253D01*
X231819Y104146D01*
X231844Y104038D01*
X231865Y103929D01*
X231882Y103820D01*
X231896Y103710D01*
X231905Y103599D01*
X231911Y103489D01*
X231913Y103378D01*
X231911Y103267D01*
X231905Y103157D01*
X231896Y103046D01*
X231882Y102936D01*
X231865Y102827D01*
X231844Y102718D01*
X231819Y102610D01*
X231790Y102503D01*
X231758Y102397D01*
X231722Y102292D01*
X231682Y102189D01*
X231639Y102087D01*
X231592Y101986D01*
X231541Y101887D01*
X231488Y101790D01*
X231431Y101696D01*
X231370Y101603D01*
X231307Y101512D01*
X231240Y101423D01*
X231170Y101337D01*
X231097Y101254D01*
X231022Y101172D01*
X230944Y101094D01*
X230862Y101019D01*
X230779Y100946D01*
X230693Y100876D01*
X230604Y100809D01*
X230513Y100746D01*
X230420Y100685D01*
X230325Y100628D01*
X230229Y100575D01*
X230130Y100524D01*
X230029Y100477D01*
X229927Y100434D01*
X229824Y100394D01*
X229719Y100358D01*
X229613Y100326D01*
X229506Y100297D01*
X229398Y100272D01*
X229289Y100251D01*
X229180Y100234D01*
X229070Y100220D01*
X228959Y100211D01*
X228849Y100205D01*
X228738Y100203D01*
X225563Y100203D01*
X236422Y104013D02*
X239597Y106553D01*
X239597Y95123D01*
X236422Y95123D02*
X242772Y95123D01*
D11*
X273558Y171958D02*
X273558Y183642D01*
X276804Y183642D01*
X276917Y183640D01*
X277030Y183634D01*
X277143Y183624D01*
X277256Y183610D01*
X277368Y183593D01*
X277479Y183571D01*
X277589Y183546D01*
X277699Y183516D01*
X277807Y183483D01*
X277914Y183446D01*
X278020Y183406D01*
X278124Y183361D01*
X278227Y183313D01*
X278328Y183262D01*
X278427Y183207D01*
X278524Y183149D01*
X278619Y183087D01*
X278712Y183022D01*
X278802Y182954D01*
X278890Y182883D01*
X278976Y182808D01*
X279059Y182731D01*
X279139Y182651D01*
X279216Y182568D01*
X279291Y182482D01*
X279362Y182394D01*
X279430Y182304D01*
X279495Y182211D01*
X279557Y182116D01*
X279615Y182019D01*
X279670Y181920D01*
X279721Y181819D01*
X279769Y181716D01*
X279814Y181612D01*
X279854Y181506D01*
X279891Y181399D01*
X279924Y181291D01*
X279954Y181181D01*
X279979Y181071D01*
X280001Y180960D01*
X280018Y180848D01*
X280032Y180735D01*
X280042Y180622D01*
X280048Y180509D01*
X280050Y180396D01*
X280048Y180283D01*
X280042Y180170D01*
X280032Y180057D01*
X280018Y179944D01*
X280001Y179832D01*
X279979Y179721D01*
X279954Y179611D01*
X279924Y179501D01*
X279891Y179393D01*
X279854Y179286D01*
X279814Y179180D01*
X279769Y179076D01*
X279721Y178973D01*
X279670Y178872D01*
X279615Y178773D01*
X279557Y178676D01*
X279495Y178581D01*
X279430Y178488D01*
X279362Y178398D01*
X279291Y178310D01*
X279216Y178224D01*
X279139Y178141D01*
X279059Y178061D01*
X278976Y177984D01*
X278890Y177909D01*
X278802Y177838D01*
X278712Y177770D01*
X278619Y177705D01*
X278524Y177643D01*
X278427Y177585D01*
X278328Y177530D01*
X278227Y177479D01*
X278124Y177431D01*
X278020Y177386D01*
X277914Y177346D01*
X277807Y177309D01*
X277699Y177276D01*
X277589Y177246D01*
X277479Y177221D01*
X277368Y177199D01*
X277256Y177182D01*
X277143Y177168D01*
X277030Y177158D01*
X276917Y177152D01*
X276804Y177150D01*
X276804Y177151D02*
X273558Y177151D01*
X277453Y177151D02*
X280049Y171958D01*
X284914Y174554D02*
X287511Y183642D01*
X284914Y174554D02*
X291405Y174554D01*
X289458Y177151D02*
X289458Y171958D01*
D10*
X312170Y245110D02*
X312166Y305054D01*
X312170Y245110D02*
X246630Y245110D01*
X246634Y305054D01*
D14*
X279400Y240284D03*
D11*
X237546Y241808D02*
X229108Y241808D01*
X237546Y241808D02*
X237659Y241810D01*
X237772Y241816D01*
X237885Y241826D01*
X237998Y241840D01*
X238110Y241857D01*
X238221Y241879D01*
X238331Y241904D01*
X238441Y241934D01*
X238549Y241967D01*
X238656Y242004D01*
X238762Y242044D01*
X238866Y242089D01*
X238969Y242137D01*
X239070Y242188D01*
X239169Y242243D01*
X239266Y242301D01*
X239361Y242363D01*
X239454Y242428D01*
X239544Y242496D01*
X239632Y242567D01*
X239718Y242642D01*
X239801Y242719D01*
X239881Y242799D01*
X239958Y242882D01*
X240033Y242968D01*
X240104Y243056D01*
X240172Y243146D01*
X240237Y243239D01*
X240299Y243334D01*
X240357Y243431D01*
X240412Y243530D01*
X240463Y243631D01*
X240511Y243734D01*
X240556Y243838D01*
X240596Y243944D01*
X240633Y244051D01*
X240666Y244159D01*
X240696Y244269D01*
X240721Y244379D01*
X240743Y244490D01*
X240760Y244602D01*
X240774Y244715D01*
X240784Y244828D01*
X240790Y244941D01*
X240792Y245054D01*
X240790Y245167D01*
X240784Y245280D01*
X240774Y245393D01*
X240760Y245506D01*
X240743Y245618D01*
X240721Y245729D01*
X240696Y245839D01*
X240666Y245949D01*
X240633Y246057D01*
X240596Y246164D01*
X240556Y246270D01*
X240511Y246374D01*
X240463Y246477D01*
X240412Y246578D01*
X240357Y246677D01*
X240299Y246774D01*
X240237Y246869D01*
X240172Y246962D01*
X240104Y247052D01*
X240033Y247140D01*
X239958Y247226D01*
X239881Y247309D01*
X239801Y247389D01*
X239718Y247466D01*
X239632Y247541D01*
X239544Y247612D01*
X239454Y247680D01*
X239361Y247745D01*
X239266Y247807D01*
X239169Y247865D01*
X239070Y247920D01*
X238969Y247971D01*
X238866Y248019D01*
X238762Y248064D01*
X238656Y248104D01*
X238549Y248141D01*
X238441Y248174D01*
X238331Y248204D01*
X238221Y248229D01*
X238110Y248251D01*
X237998Y248268D01*
X237885Y248282D01*
X237772Y248292D01*
X237659Y248298D01*
X237546Y248300D01*
X237546Y248299D02*
X229108Y248299D01*
X229108Y256103D02*
X240792Y256103D01*
X234950Y256103D02*
X233976Y254480D01*
X233977Y254479D02*
X233930Y254406D01*
X233881Y254335D01*
X233828Y254266D01*
X233772Y254199D01*
X233713Y254135D01*
X233652Y254073D01*
X233588Y254015D01*
X233521Y253959D01*
X233452Y253907D01*
X233380Y253857D01*
X233306Y253811D01*
X233231Y253768D01*
X233153Y253729D01*
X233074Y253693D01*
X232993Y253661D01*
X232911Y253632D01*
X232828Y253607D01*
X232744Y253586D01*
X232659Y253569D01*
X232573Y253555D01*
X232487Y253546D01*
X232400Y253540D01*
X232313Y253538D01*
X232226Y253540D01*
X232139Y253546D01*
X232053Y253556D01*
X231967Y253569D01*
X231882Y253587D01*
X231798Y253608D01*
X231715Y253633D01*
X231632Y253662D01*
X231552Y253694D01*
X231473Y253730D01*
X231395Y253769D01*
X231320Y253812D01*
X231246Y253859D01*
X231175Y253908D01*
X231105Y253961D01*
X231039Y254016D01*
X230975Y254075D01*
X230913Y254136D01*
X230854Y254200D01*
X230799Y254267D01*
X230746Y254336D01*
X230696Y254408D01*
X230650Y254481D01*
X230607Y254557D01*
X230568Y254634D01*
X230532Y254713D01*
X230499Y254794D01*
X230471Y254876D01*
X230445Y254959D01*
X230424Y255043D01*
X230407Y255128D01*
X230406Y255129D02*
X230382Y255269D01*
X230362Y255411D01*
X230346Y255552D01*
X230335Y255694D01*
X230327Y255837D01*
X230323Y255979D01*
X230322Y256122D01*
X230326Y256265D01*
X230334Y256407D01*
X230346Y256549D01*
X230362Y256691D01*
X230381Y256832D01*
X230405Y256973D01*
X230432Y257113D01*
X230464Y257252D01*
X230499Y257390D01*
X230538Y257528D01*
X230581Y257664D01*
X230627Y257798D01*
X230678Y257932D01*
X230731Y258064D01*
X230789Y258194D01*
X230850Y258323D01*
X230915Y258450D01*
X230983Y258576D01*
X231055Y258699D01*
X234950Y256103D02*
X235924Y257725D01*
X235923Y257726D02*
X235970Y257799D01*
X236019Y257870D01*
X236072Y257940D01*
X236128Y258006D01*
X236187Y258070D01*
X236248Y258132D01*
X236312Y258190D01*
X236379Y258246D01*
X236448Y258298D01*
X236520Y258348D01*
X236594Y258394D01*
X236669Y258437D01*
X236747Y258476D01*
X236826Y258512D01*
X236907Y258544D01*
X236989Y258573D01*
X237072Y258598D01*
X237156Y258619D01*
X237241Y258636D01*
X237327Y258650D01*
X237414Y258659D01*
X237500Y258665D01*
X237587Y258667D01*
X237674Y258665D01*
X237761Y258659D01*
X237847Y258649D01*
X237933Y258636D01*
X238018Y258618D01*
X238102Y258597D01*
X238185Y258572D01*
X238268Y258543D01*
X238348Y258511D01*
X238427Y258475D01*
X238505Y258436D01*
X238580Y258393D01*
X238654Y258346D01*
X238725Y258297D01*
X238795Y258244D01*
X238861Y258189D01*
X238925Y258130D01*
X238987Y258069D01*
X239046Y258004D01*
X239101Y257938D01*
X239154Y257869D01*
X239204Y257797D01*
X239250Y257724D01*
X239293Y257648D01*
X239332Y257571D01*
X239368Y257492D01*
X239401Y257411D01*
X239429Y257329D01*
X239455Y257246D01*
X239476Y257162D01*
X239493Y257076D01*
X239494Y257076D02*
X239518Y256936D01*
X239538Y256794D01*
X239554Y256653D01*
X239565Y256511D01*
X239573Y256368D01*
X239577Y256226D01*
X239578Y256083D01*
X239574Y255940D01*
X239566Y255798D01*
X239554Y255656D01*
X239538Y255514D01*
X239519Y255373D01*
X239495Y255232D01*
X239468Y255092D01*
X239436Y254953D01*
X239401Y254815D01*
X239362Y254677D01*
X239319Y254541D01*
X239273Y254407D01*
X239222Y254273D01*
X239169Y254141D01*
X239111Y254011D01*
X239050Y253882D01*
X238985Y253755D01*
X238917Y253629D01*
X238845Y253506D01*
X231704Y263525D02*
X229108Y266771D01*
X240792Y266771D01*
X240792Y270016D02*
X240792Y263525D01*
D12*
X314706Y338328D02*
X345694Y338328D01*
X345694Y322072D02*
X314706Y322072D01*
D15*
X360461Y327547D02*
X360461Y331526D01*
X358140Y334511D01*
X360461Y331526D02*
X362783Y334511D01*
X360461Y331526D02*
X356814Y330200D01*
X360461Y331526D02*
X364109Y330200D01*
D16*
X321448Y307086D02*
X321448Y299974D01*
X321448Y307086D02*
X323424Y307086D01*
X323510Y307084D01*
X323596Y307078D01*
X323682Y307069D01*
X323767Y307056D01*
X323852Y307039D01*
X323935Y307019D01*
X324018Y306995D01*
X324100Y306967D01*
X324180Y306936D01*
X324259Y306901D01*
X324336Y306863D01*
X324412Y306821D01*
X324486Y306777D01*
X324557Y306729D01*
X324627Y306678D01*
X324694Y306624D01*
X324759Y306567D01*
X324821Y306507D01*
X324881Y306445D01*
X324938Y306380D01*
X324992Y306313D01*
X325043Y306243D01*
X325091Y306172D01*
X325135Y306098D01*
X325177Y306022D01*
X325215Y305945D01*
X325250Y305866D01*
X325281Y305786D01*
X325309Y305704D01*
X325333Y305621D01*
X325353Y305538D01*
X325370Y305453D01*
X325383Y305368D01*
X325392Y305282D01*
X325398Y305196D01*
X325400Y305110D01*
X325399Y305110D02*
X325399Y301950D01*
X325400Y301950D02*
X325398Y301864D01*
X325392Y301778D01*
X325383Y301692D01*
X325370Y301607D01*
X325353Y301522D01*
X325333Y301439D01*
X325309Y301356D01*
X325281Y301274D01*
X325250Y301194D01*
X325215Y301115D01*
X325177Y301038D01*
X325135Y300962D01*
X325091Y300888D01*
X325043Y300817D01*
X324992Y300747D01*
X324938Y300680D01*
X324881Y300615D01*
X324821Y300553D01*
X324759Y300493D01*
X324694Y300436D01*
X324627Y300382D01*
X324557Y300331D01*
X324486Y300283D01*
X324412Y300239D01*
X324336Y300197D01*
X324259Y300159D01*
X324180Y300124D01*
X324100Y300093D01*
X324018Y300065D01*
X323935Y300041D01*
X323852Y300021D01*
X323767Y300004D01*
X323682Y299991D01*
X323596Y299982D01*
X323510Y299976D01*
X323424Y299974D01*
X321448Y299974D01*
X330708Y307086D02*
X330790Y307084D01*
X330872Y307078D01*
X330954Y307069D01*
X331035Y307056D01*
X331115Y307039D01*
X331195Y307018D01*
X331273Y306994D01*
X331350Y306966D01*
X331426Y306935D01*
X331501Y306900D01*
X331573Y306861D01*
X331644Y306820D01*
X331713Y306775D01*
X331779Y306727D01*
X331844Y306676D01*
X331906Y306622D01*
X331965Y306565D01*
X332022Y306506D01*
X332076Y306444D01*
X332127Y306379D01*
X332175Y306313D01*
X332220Y306244D01*
X332261Y306173D01*
X332300Y306101D01*
X332335Y306026D01*
X332366Y305950D01*
X332394Y305873D01*
X332418Y305795D01*
X332439Y305715D01*
X332456Y305635D01*
X332469Y305554D01*
X332478Y305472D01*
X332484Y305390D01*
X332486Y305308D01*
X330708Y307086D02*
X330615Y307084D01*
X330523Y307078D01*
X330431Y307069D01*
X330339Y307056D01*
X330248Y307039D01*
X330158Y307019D01*
X330068Y306995D01*
X329980Y306967D01*
X329892Y306935D01*
X329807Y306901D01*
X329722Y306862D01*
X329640Y306821D01*
X329559Y306776D01*
X329479Y306727D01*
X329402Y306676D01*
X329327Y306622D01*
X329255Y306564D01*
X329185Y306504D01*
X329117Y306440D01*
X329052Y306375D01*
X328989Y306306D01*
X328930Y306235D01*
X328873Y306162D01*
X328819Y306086D01*
X328769Y306009D01*
X328721Y305929D01*
X328677Y305848D01*
X328637Y305764D01*
X328599Y305680D01*
X328565Y305593D01*
X328535Y305506D01*
X331893Y303925D02*
X331954Y303986D01*
X332012Y304049D01*
X332067Y304115D01*
X332120Y304183D01*
X332169Y304254D01*
X332214Y304326D01*
X332257Y304401D01*
X332296Y304477D01*
X332332Y304556D01*
X332364Y304635D01*
X332392Y304716D01*
X332417Y304799D01*
X332438Y304882D01*
X332455Y304966D01*
X332469Y305051D01*
X332478Y305136D01*
X332484Y305222D01*
X332486Y305308D01*
X331893Y303925D02*
X328535Y299974D01*
X332486Y299974D01*
D11*
X394300Y155600D02*
X394300Y139100D01*
X355800Y139100D01*
X342300Y152600D01*
X342300Y155600D01*
X342300Y174600D02*
X342300Y177600D01*
X355800Y191100D01*
X394300Y191100D01*
X394300Y174600D01*
X391300Y156600D02*
X391086Y156043D01*
X390859Y155491D01*
X390618Y154945D01*
X390365Y154405D01*
X390098Y153871D01*
X389818Y153344D01*
X389526Y152824D01*
X389221Y152311D01*
X388903Y151806D01*
X388574Y151308D01*
X388232Y150819D01*
X387879Y150338D01*
X387514Y149866D01*
X387137Y149403D01*
X386750Y148950D01*
X386351Y148505D01*
X385942Y148071D01*
X385523Y147647D01*
X385093Y147233D01*
X384653Y146830D01*
X384204Y146437D01*
X383745Y146056D01*
X383277Y145685D01*
X382800Y145327D01*
X382315Y144980D01*
X381821Y144645D01*
X381319Y144322D01*
X380810Y144011D01*
X380293Y143713D01*
X379769Y143427D01*
X379238Y143155D01*
X378701Y142895D01*
X378157Y142649D01*
X377608Y142415D01*
X377053Y142196D01*
X376493Y141989D01*
X375929Y141797D01*
X375359Y141618D01*
X374786Y141453D01*
X374208Y141303D01*
X373628Y141166D01*
X373044Y141043D01*
X372457Y140935D01*
X371868Y140841D01*
X371276Y140761D01*
X370683Y140696D01*
X370089Y140645D01*
X369493Y140609D01*
X368897Y140587D01*
X368300Y140580D01*
X367703Y140587D01*
X367107Y140609D01*
X366511Y140645D01*
X365917Y140696D01*
X365324Y140761D01*
X364732Y140841D01*
X364143Y140935D01*
X363556Y141043D01*
X362972Y141166D01*
X362392Y141303D01*
X361814Y141453D01*
X361241Y141618D01*
X360671Y141797D01*
X360107Y141989D01*
X359547Y142196D01*
X358992Y142415D01*
X358443Y142649D01*
X357899Y142895D01*
X357362Y143155D01*
X356831Y143427D01*
X356307Y143713D01*
X355790Y144011D01*
X355281Y144322D01*
X354779Y144645D01*
X354285Y144980D01*
X353800Y145327D01*
X353323Y145685D01*
X352855Y146056D01*
X352396Y146437D01*
X351947Y146830D01*
X351507Y147233D01*
X351077Y147647D01*
X350658Y148071D01*
X350249Y148505D01*
X349850Y148950D01*
X349463Y149403D01*
X349086Y149866D01*
X348721Y150338D01*
X348368Y150819D01*
X348026Y151308D01*
X347697Y151806D01*
X347379Y152311D01*
X347074Y152824D01*
X346782Y153344D01*
X346502Y153871D01*
X346235Y154405D01*
X345982Y154945D01*
X345741Y155491D01*
X345514Y156043D01*
X345300Y156600D01*
X345300Y173600D02*
X345514Y174157D01*
X345741Y174709D01*
X345982Y175255D01*
X346235Y175795D01*
X346502Y176329D01*
X346782Y176856D01*
X347074Y177376D01*
X347379Y177889D01*
X347697Y178394D01*
X348026Y178892D01*
X348368Y179381D01*
X348721Y179862D01*
X349086Y180334D01*
X349463Y180797D01*
X349850Y181250D01*
X350249Y181695D01*
X350658Y182129D01*
X351077Y182553D01*
X351507Y182967D01*
X351947Y183370D01*
X352396Y183763D01*
X352855Y184144D01*
X353323Y184515D01*
X353800Y184873D01*
X354285Y185220D01*
X354779Y185555D01*
X355281Y185878D01*
X355790Y186189D01*
X356307Y186487D01*
X356831Y186773D01*
X357362Y187045D01*
X357899Y187305D01*
X358443Y187551D01*
X358992Y187785D01*
X359547Y188004D01*
X360107Y188211D01*
X360671Y188403D01*
X361241Y188582D01*
X361814Y188747D01*
X362392Y188897D01*
X362972Y189034D01*
X363556Y189157D01*
X364143Y189265D01*
X364732Y189359D01*
X365324Y189439D01*
X365917Y189504D01*
X366511Y189555D01*
X367107Y189591D01*
X367703Y189613D01*
X368300Y189620D01*
X368897Y189613D01*
X369493Y189591D01*
X370089Y189555D01*
X370683Y189504D01*
X371276Y189439D01*
X371868Y189359D01*
X372457Y189265D01*
X373044Y189157D01*
X373628Y189034D01*
X374208Y188897D01*
X374786Y188747D01*
X375359Y188582D01*
X375929Y188403D01*
X376493Y188211D01*
X377053Y188004D01*
X377608Y187785D01*
X378157Y187551D01*
X378701Y187305D01*
X379238Y187045D01*
X379769Y186773D01*
X380293Y186487D01*
X380810Y186189D01*
X381319Y185878D01*
X381821Y185555D01*
X382315Y185220D01*
X382800Y184873D01*
X383277Y184515D01*
X383745Y184144D01*
X384204Y183763D01*
X384653Y183370D01*
X385093Y182967D01*
X385523Y182553D01*
X385942Y182129D01*
X386351Y181695D01*
X386750Y181250D01*
X387137Y180797D01*
X387514Y180334D01*
X387879Y179862D01*
X388232Y179381D01*
X388574Y178892D01*
X388903Y178394D01*
X389221Y177889D01*
X389526Y177376D01*
X389818Y176856D01*
X390098Y176329D01*
X390365Y175795D01*
X390618Y175255D01*
X390859Y174709D01*
X391086Y174157D01*
X391300Y173600D01*
D15*
X385229Y127821D02*
X383141Y127821D01*
X383052Y127823D01*
X382964Y127829D01*
X382876Y127838D01*
X382788Y127851D01*
X382701Y127868D01*
X382615Y127888D01*
X382530Y127913D01*
X382445Y127940D01*
X382362Y127972D01*
X382281Y128006D01*
X382201Y128045D01*
X382123Y128086D01*
X382046Y128131D01*
X381972Y128179D01*
X381899Y128230D01*
X381829Y128284D01*
X381762Y128342D01*
X381696Y128402D01*
X381634Y128464D01*
X381574Y128530D01*
X381516Y128597D01*
X381462Y128667D01*
X381411Y128740D01*
X381363Y128814D01*
X381318Y128891D01*
X381277Y128969D01*
X381238Y129049D01*
X381204Y129130D01*
X381172Y129213D01*
X381145Y129298D01*
X381120Y129383D01*
X381100Y129469D01*
X381083Y129556D01*
X381070Y129644D01*
X381061Y129732D01*
X381055Y129820D01*
X381053Y129909D01*
X381052Y129909D02*
X381052Y135131D01*
X381053Y135131D02*
X381055Y135222D01*
X381061Y135313D01*
X381071Y135404D01*
X381085Y135494D01*
X381102Y135583D01*
X381124Y135671D01*
X381150Y135759D01*
X381179Y135845D01*
X381212Y135930D01*
X381249Y136013D01*
X381289Y136095D01*
X381333Y136175D01*
X381380Y136253D01*
X381431Y136329D01*
X381484Y136402D01*
X381541Y136473D01*
X381602Y136542D01*
X381665Y136607D01*
X381730Y136670D01*
X381799Y136730D01*
X381870Y136788D01*
X381943Y136841D01*
X382019Y136892D01*
X382097Y136939D01*
X382177Y136983D01*
X382259Y137023D01*
X382342Y137060D01*
X382427Y137093D01*
X382513Y137122D01*
X382601Y137148D01*
X382689Y137170D01*
X382778Y137187D01*
X382868Y137201D01*
X382959Y137211D01*
X383050Y137217D01*
X383141Y137219D01*
X385229Y137219D01*
X391570Y137220D02*
X391665Y137218D01*
X391759Y137212D01*
X391853Y137203D01*
X391947Y137190D01*
X392040Y137173D01*
X392132Y137152D01*
X392224Y137127D01*
X392314Y137099D01*
X392403Y137067D01*
X392491Y137032D01*
X392577Y136993D01*
X392662Y136951D01*
X392745Y136905D01*
X392826Y136856D01*
X392905Y136804D01*
X392982Y136749D01*
X393056Y136690D01*
X393128Y136629D01*
X393198Y136565D01*
X393265Y136498D01*
X393329Y136428D01*
X393390Y136356D01*
X393449Y136282D01*
X393504Y136205D01*
X393556Y136126D01*
X393605Y136045D01*
X393651Y135962D01*
X393693Y135877D01*
X393732Y135791D01*
X393767Y135703D01*
X393799Y135614D01*
X393827Y135524D01*
X393852Y135432D01*
X393873Y135340D01*
X393890Y135247D01*
X393903Y135153D01*
X393912Y135059D01*
X393918Y134965D01*
X393920Y134870D01*
X391570Y137219D02*
X391462Y137217D01*
X391353Y137211D01*
X391245Y137201D01*
X391138Y137188D01*
X391031Y137170D01*
X390924Y137149D01*
X390819Y137124D01*
X390714Y137095D01*
X390611Y137063D01*
X390509Y137026D01*
X390408Y136986D01*
X390309Y136943D01*
X390211Y136896D01*
X390115Y136845D01*
X390021Y136791D01*
X389929Y136734D01*
X389839Y136673D01*
X389751Y136609D01*
X389666Y136543D01*
X389583Y136473D01*
X389503Y136400D01*
X389425Y136324D01*
X389350Y136246D01*
X389278Y136165D01*
X389209Y136081D01*
X389143Y135995D01*
X389080Y135907D01*
X389021Y135816D01*
X388964Y135724D01*
X388911Y135629D01*
X388862Y135533D01*
X388816Y135434D01*
X388773Y135335D01*
X388734Y135233D01*
X388699Y135131D01*
X393136Y133042D02*
X393205Y133111D01*
X393271Y133182D01*
X393335Y133255D01*
X393396Y133331D01*
X393454Y133410D01*
X393508Y133490D01*
X393560Y133573D01*
X393608Y133657D01*
X393654Y133743D01*
X393695Y133831D01*
X393734Y133921D01*
X393769Y134012D01*
X393800Y134104D01*
X393828Y134197D01*
X393852Y134291D01*
X393872Y134386D01*
X393889Y134482D01*
X393902Y134579D01*
X393911Y134676D01*
X393917Y134773D01*
X393919Y134870D01*
X393136Y133042D02*
X388698Y127821D01*
X393919Y127821D01*
D11*
X380351Y222758D02*
X377754Y222758D01*
X377655Y222760D01*
X377555Y222766D01*
X377456Y222775D01*
X377358Y222788D01*
X377260Y222805D01*
X377162Y222826D01*
X377066Y222851D01*
X376971Y222879D01*
X376877Y222911D01*
X376784Y222946D01*
X376692Y222985D01*
X376602Y223028D01*
X376514Y223073D01*
X376427Y223123D01*
X376343Y223175D01*
X376260Y223231D01*
X376180Y223289D01*
X376102Y223351D01*
X376027Y223416D01*
X375954Y223484D01*
X375884Y223554D01*
X375816Y223627D01*
X375751Y223702D01*
X375689Y223780D01*
X375631Y223860D01*
X375575Y223943D01*
X375523Y224027D01*
X375473Y224114D01*
X375428Y224202D01*
X375385Y224292D01*
X375346Y224384D01*
X375311Y224477D01*
X375279Y224571D01*
X375251Y224666D01*
X375226Y224762D01*
X375205Y224860D01*
X375188Y224958D01*
X375175Y225056D01*
X375166Y225155D01*
X375160Y225255D01*
X375158Y225354D01*
X375158Y231846D01*
X375160Y231945D01*
X375166Y232045D01*
X375175Y232144D01*
X375188Y232242D01*
X375205Y232340D01*
X375226Y232438D01*
X375251Y232534D01*
X375279Y232629D01*
X375311Y232723D01*
X375346Y232816D01*
X375385Y232908D01*
X375428Y232998D01*
X375473Y233086D01*
X375523Y233173D01*
X375575Y233257D01*
X375631Y233340D01*
X375689Y233420D01*
X375751Y233498D01*
X375816Y233573D01*
X375884Y233646D01*
X375954Y233716D01*
X376027Y233784D01*
X376102Y233849D01*
X376180Y233911D01*
X376260Y233969D01*
X376343Y234025D01*
X376427Y234077D01*
X376514Y234127D01*
X376602Y234172D01*
X376692Y234215D01*
X376784Y234254D01*
X376876Y234289D01*
X376971Y234321D01*
X377066Y234349D01*
X377162Y234374D01*
X377260Y234395D01*
X377358Y234412D01*
X377456Y234425D01*
X377555Y234434D01*
X377655Y234440D01*
X377754Y234442D01*
X380351Y234442D01*
X384716Y222758D02*
X387962Y222758D01*
X388075Y222760D01*
X388188Y222766D01*
X388301Y222776D01*
X388414Y222790D01*
X388526Y222807D01*
X388637Y222829D01*
X388747Y222854D01*
X388857Y222884D01*
X388965Y222917D01*
X389072Y222954D01*
X389178Y222994D01*
X389282Y223039D01*
X389385Y223087D01*
X389486Y223138D01*
X389585Y223193D01*
X389682Y223251D01*
X389777Y223313D01*
X389870Y223378D01*
X389960Y223446D01*
X390048Y223517D01*
X390134Y223592D01*
X390217Y223669D01*
X390297Y223749D01*
X390374Y223832D01*
X390449Y223918D01*
X390520Y224006D01*
X390588Y224096D01*
X390653Y224189D01*
X390715Y224284D01*
X390773Y224381D01*
X390828Y224480D01*
X390879Y224581D01*
X390927Y224684D01*
X390972Y224788D01*
X391012Y224894D01*
X391049Y225001D01*
X391082Y225109D01*
X391112Y225219D01*
X391137Y225329D01*
X391159Y225440D01*
X391176Y225552D01*
X391190Y225665D01*
X391200Y225778D01*
X391206Y225891D01*
X391208Y226004D01*
X391206Y226117D01*
X391200Y226230D01*
X391190Y226343D01*
X391176Y226456D01*
X391159Y226568D01*
X391137Y226679D01*
X391112Y226789D01*
X391082Y226899D01*
X391049Y227007D01*
X391012Y227114D01*
X390972Y227220D01*
X390927Y227324D01*
X390879Y227427D01*
X390828Y227528D01*
X390773Y227627D01*
X390715Y227724D01*
X390653Y227819D01*
X390588Y227912D01*
X390520Y228002D01*
X390449Y228090D01*
X390374Y228176D01*
X390297Y228259D01*
X390217Y228339D01*
X390134Y228416D01*
X390048Y228491D01*
X389960Y228562D01*
X389870Y228630D01*
X389777Y228695D01*
X389682Y228757D01*
X389585Y228815D01*
X389486Y228870D01*
X389385Y228921D01*
X389282Y228969D01*
X389178Y229014D01*
X389072Y229054D01*
X388965Y229091D01*
X388857Y229124D01*
X388747Y229154D01*
X388637Y229179D01*
X388526Y229201D01*
X388414Y229218D01*
X388301Y229232D01*
X388188Y229242D01*
X388075Y229248D01*
X387962Y229250D01*
X388611Y234442D02*
X384716Y234442D01*
X388611Y234442D02*
X388712Y234440D01*
X388812Y234434D01*
X388912Y234424D01*
X389012Y234411D01*
X389111Y234393D01*
X389210Y234372D01*
X389307Y234347D01*
X389404Y234318D01*
X389499Y234285D01*
X389593Y234249D01*
X389685Y234209D01*
X389776Y234166D01*
X389865Y234119D01*
X389952Y234069D01*
X390038Y234015D01*
X390121Y233958D01*
X390201Y233898D01*
X390280Y233835D01*
X390356Y233768D01*
X390429Y233699D01*
X390499Y233627D01*
X390567Y233553D01*
X390632Y233476D01*
X390693Y233396D01*
X390752Y233314D01*
X390807Y233230D01*
X390859Y233144D01*
X390908Y233056D01*
X390953Y232966D01*
X390995Y232874D01*
X391033Y232781D01*
X391067Y232686D01*
X391098Y232591D01*
X391125Y232494D01*
X391148Y232396D01*
X391168Y232297D01*
X391183Y232197D01*
X391195Y232097D01*
X391203Y231997D01*
X391207Y231896D01*
X391207Y231796D01*
X391203Y231695D01*
X391195Y231595D01*
X391183Y231495D01*
X391168Y231395D01*
X391148Y231296D01*
X391125Y231198D01*
X391098Y231101D01*
X391067Y231006D01*
X391033Y230911D01*
X390995Y230818D01*
X390953Y230726D01*
X390908Y230636D01*
X390859Y230548D01*
X390807Y230462D01*
X390752Y230378D01*
X390693Y230296D01*
X390632Y230216D01*
X390567Y230139D01*
X390499Y230065D01*
X390429Y229993D01*
X390356Y229924D01*
X390280Y229857D01*
X390201Y229794D01*
X390121Y229734D01*
X390038Y229677D01*
X389952Y229623D01*
X389865Y229573D01*
X389776Y229526D01*
X389685Y229483D01*
X389593Y229443D01*
X389499Y229407D01*
X389404Y229374D01*
X389307Y229345D01*
X389210Y229320D01*
X389111Y229299D01*
X389012Y229281D01*
X388912Y229268D01*
X388812Y229258D01*
X388712Y229252D01*
X388611Y229250D01*
X388611Y229249D02*
X386014Y229249D01*
M02*
