G04 EAGLE Gerber RS-274X export*
G75*
%MOMM*%
%FSLAX34Y34*%
%LPD*%
%INTop Copper*%
%IPPOS*%
%AMOC8*
5,1,8,0,0,1.08239X$1,22.5*%
G01*
%ADD10C,2.550000*%
%ADD11C,1.524000*%
%ADD12R,1.100000X1.000000*%
%ADD13R,1.000000X1.100000*%
%ADD14R,5.400000X6.200000*%
%ADD15R,1.000000X1.600000*%
%ADD16R,1.416000X0.651600*%
%ADD17R,2.600000X1.400000*%
%ADD18C,0.609600*%
%ADD19C,0.406400*%
%ADD20C,1.270000*%

G36*
X435106Y10167D02*
X435106Y10167D01*
X435226Y10165D01*
X435461Y10187D01*
X435698Y10201D01*
X435816Y10221D01*
X435935Y10232D01*
X436167Y10280D01*
X436400Y10320D01*
X436515Y10353D01*
X436633Y10378D01*
X436858Y10452D01*
X437085Y10517D01*
X437195Y10563D01*
X437309Y10601D01*
X437524Y10700D01*
X437743Y10790D01*
X437848Y10848D01*
X437957Y10898D01*
X438160Y11021D01*
X438366Y11135D01*
X438464Y11204D01*
X438567Y11266D01*
X438755Y11411D01*
X438947Y11547D01*
X439036Y11627D01*
X439131Y11700D01*
X439302Y11865D01*
X439478Y12022D01*
X439558Y12112D01*
X439644Y12195D01*
X439795Y12377D01*
X439953Y12554D01*
X440022Y12652D01*
X440098Y12744D01*
X440227Y12942D01*
X440365Y13135D01*
X440423Y13240D01*
X440488Y13340D01*
X440594Y13551D01*
X440709Y13759D01*
X440755Y13870D01*
X440808Y13977D01*
X440890Y14198D01*
X440981Y14417D01*
X441014Y14533D01*
X441056Y14645D01*
X441112Y14874D01*
X441178Y15102D01*
X441198Y15220D01*
X441226Y15336D01*
X441257Y15571D01*
X441296Y15804D01*
X441303Y15924D01*
X441319Y16043D01*
X441323Y16279D01*
X441336Y16516D01*
X441329Y16635D01*
X441331Y16755D01*
X441309Y16991D01*
X441295Y17227D01*
X441275Y17345D01*
X441264Y17464D01*
X441215Y17696D01*
X441175Y17929D01*
X441142Y18044D01*
X441117Y18162D01*
X441043Y18386D01*
X440977Y18614D01*
X440931Y18724D01*
X440894Y18838D01*
X440794Y19053D01*
X440704Y19271D01*
X440646Y19376D01*
X440596Y19485D01*
X440473Y19687D01*
X440358Y19895D01*
X440289Y19992D01*
X440227Y20095D01*
X440083Y20282D01*
X439945Y20475D01*
X439866Y20564D01*
X439792Y20659D01*
X439628Y20830D01*
X439470Y21006D01*
X439381Y21085D01*
X439297Y21172D01*
X439115Y21322D01*
X438938Y21480D01*
X438840Y21549D01*
X438748Y21625D01*
X438545Y21758D01*
X438357Y21891D01*
X438258Y21945D01*
X438161Y22009D01*
X431481Y25865D01*
X425865Y31481D01*
X421895Y38358D01*
X419839Y46029D01*
X419839Y53971D01*
X421895Y61642D01*
X425865Y68519D01*
X431481Y74135D01*
X438358Y78105D01*
X446029Y80161D01*
X453971Y80161D01*
X461642Y78105D01*
X468519Y74135D01*
X474135Y68519D01*
X477991Y61839D01*
X478057Y61739D01*
X478115Y61634D01*
X478252Y61441D01*
X478382Y61243D01*
X478458Y61150D01*
X478528Y61053D01*
X478685Y60877D01*
X478836Y60694D01*
X478923Y60611D01*
X479002Y60522D01*
X479179Y60364D01*
X479349Y60200D01*
X479445Y60127D01*
X479534Y60047D01*
X479727Y59911D01*
X479915Y59767D01*
X480017Y59705D01*
X480115Y59635D01*
X480323Y59521D01*
X480525Y59399D01*
X480634Y59349D01*
X480739Y59291D01*
X480957Y59201D01*
X481173Y59102D01*
X481287Y59065D01*
X481397Y59019D01*
X481625Y58954D01*
X481849Y58880D01*
X481967Y58856D01*
X482082Y58822D01*
X482315Y58783D01*
X482547Y58735D01*
X482666Y58724D01*
X482784Y58704D01*
X483021Y58691D01*
X483256Y58669D01*
X483376Y58671D01*
X483496Y58664D01*
X483732Y58678D01*
X483969Y58682D01*
X484087Y58698D01*
X484207Y58705D01*
X484440Y58745D01*
X484675Y58776D01*
X484791Y58805D01*
X484909Y58825D01*
X485137Y58891D01*
X485366Y58948D01*
X485478Y58990D01*
X485594Y59023D01*
X485812Y59114D01*
X486034Y59196D01*
X486141Y59250D01*
X486251Y59296D01*
X486459Y59411D01*
X486670Y59518D01*
X486770Y59583D01*
X486875Y59642D01*
X487067Y59779D01*
X487265Y59909D01*
X487358Y59985D01*
X487455Y60055D01*
X487631Y60212D01*
X487813Y60364D01*
X487896Y60450D01*
X487986Y60530D01*
X488143Y60707D01*
X488307Y60877D01*
X488380Y60972D01*
X488460Y61062D01*
X488596Y61255D01*
X488740Y61443D01*
X488802Y61546D01*
X488871Y61643D01*
X488985Y61850D01*
X489107Y62054D01*
X489157Y62163D01*
X489215Y62268D01*
X489305Y62486D01*
X489403Y62701D01*
X489441Y62815D01*
X489486Y62926D01*
X489551Y63153D01*
X489625Y63378D01*
X489649Y63496D01*
X489682Y63611D01*
X489722Y63844D01*
X489770Y64076D01*
X489781Y64195D01*
X489801Y64314D01*
X489814Y64556D01*
X489835Y64785D01*
X489833Y64898D01*
X489839Y65014D01*
X489839Y434987D01*
X489833Y435106D01*
X489835Y435226D01*
X489813Y435461D01*
X489799Y435698D01*
X489779Y435816D01*
X489768Y435935D01*
X489719Y436167D01*
X489680Y436400D01*
X489647Y436515D01*
X489622Y436633D01*
X489548Y436858D01*
X489483Y437085D01*
X489437Y437195D01*
X489399Y437309D01*
X489300Y437524D01*
X489210Y437743D01*
X489152Y437848D01*
X489102Y437957D01*
X488980Y438159D01*
X488865Y438366D01*
X488796Y438464D01*
X488734Y438567D01*
X488589Y438755D01*
X488453Y438947D01*
X488373Y439036D01*
X488300Y439131D01*
X488135Y439302D01*
X487978Y439478D01*
X487888Y439558D01*
X487805Y439644D01*
X487623Y439795D01*
X487446Y439953D01*
X487348Y440022D01*
X487256Y440098D01*
X487058Y440228D01*
X486865Y440365D01*
X486760Y440423D01*
X486660Y440488D01*
X486448Y440594D01*
X486241Y440709D01*
X486130Y440755D01*
X486023Y440808D01*
X485802Y440890D01*
X485583Y440981D01*
X485467Y441014D01*
X485355Y441056D01*
X485126Y441112D01*
X484898Y441178D01*
X484780Y441198D01*
X484664Y441226D01*
X484429Y441257D01*
X484196Y441296D01*
X484076Y441303D01*
X483957Y441319D01*
X483721Y441323D01*
X483484Y441336D01*
X483364Y441329D01*
X483245Y441331D01*
X483009Y441309D01*
X482773Y441295D01*
X482655Y441275D01*
X482536Y441264D01*
X482304Y441215D01*
X482071Y441175D01*
X481956Y441142D01*
X481838Y441117D01*
X481614Y441043D01*
X481386Y440977D01*
X481276Y440931D01*
X481162Y440894D01*
X480947Y440794D01*
X480729Y440704D01*
X480624Y440646D01*
X480515Y440596D01*
X480312Y440473D01*
X480105Y440358D01*
X480008Y440289D01*
X479905Y440227D01*
X479718Y440082D01*
X479525Y439945D01*
X479436Y439866D01*
X479341Y439792D01*
X479170Y439628D01*
X478994Y439470D01*
X478915Y439381D01*
X478828Y439297D01*
X478678Y439115D01*
X478520Y438938D01*
X478451Y438840D01*
X478375Y438748D01*
X478242Y438545D01*
X478109Y438357D01*
X478055Y438258D01*
X477991Y438161D01*
X474135Y431481D01*
X468519Y425865D01*
X461642Y421895D01*
X453971Y419839D01*
X446029Y419839D01*
X438358Y421895D01*
X431481Y425865D01*
X425865Y431481D01*
X421895Y438358D01*
X419839Y446029D01*
X419839Y453971D01*
X421895Y461642D01*
X425865Y468519D01*
X431481Y474135D01*
X438161Y477991D01*
X438261Y478057D01*
X438366Y478115D01*
X438559Y478252D01*
X438757Y478382D01*
X438850Y478458D01*
X438947Y478528D01*
X439123Y478685D01*
X439306Y478836D01*
X439389Y478923D01*
X439478Y479002D01*
X439636Y479179D01*
X439800Y479349D01*
X439873Y479445D01*
X439953Y479534D01*
X440089Y479727D01*
X440233Y479915D01*
X440295Y480017D01*
X440365Y480115D01*
X440479Y480323D01*
X440601Y480525D01*
X440651Y480634D01*
X440709Y480739D01*
X440799Y480957D01*
X440898Y481173D01*
X440935Y481287D01*
X440981Y481397D01*
X441046Y481625D01*
X441120Y481849D01*
X441144Y481967D01*
X441178Y482082D01*
X441217Y482315D01*
X441265Y482547D01*
X441276Y482666D01*
X441296Y482784D01*
X441309Y483021D01*
X441331Y483256D01*
X441329Y483376D01*
X441336Y483496D01*
X441322Y483732D01*
X441318Y483969D01*
X441302Y484087D01*
X441295Y484207D01*
X441255Y484440D01*
X441224Y484675D01*
X441195Y484791D01*
X441175Y484909D01*
X441109Y485137D01*
X441052Y485366D01*
X441010Y485478D01*
X440977Y485594D01*
X440886Y485812D01*
X440804Y486034D01*
X440750Y486141D01*
X440704Y486251D01*
X440589Y486459D01*
X440482Y486670D01*
X440417Y486770D01*
X440358Y486875D01*
X440221Y487067D01*
X440091Y487265D01*
X440015Y487358D01*
X439945Y487455D01*
X439788Y487631D01*
X439636Y487813D01*
X439550Y487896D01*
X439470Y487986D01*
X439293Y488143D01*
X439123Y488307D01*
X439028Y488380D01*
X438938Y488460D01*
X438745Y488596D01*
X438557Y488740D01*
X438454Y488802D01*
X438357Y488871D01*
X438150Y488985D01*
X437946Y489107D01*
X437837Y489157D01*
X437732Y489215D01*
X437514Y489305D01*
X437299Y489403D01*
X437185Y489441D01*
X437074Y489486D01*
X436847Y489551D01*
X436622Y489625D01*
X436504Y489649D01*
X436389Y489682D01*
X436156Y489722D01*
X435924Y489770D01*
X435805Y489781D01*
X435686Y489801D01*
X435444Y489814D01*
X435215Y489835D01*
X435102Y489833D01*
X434986Y489839D01*
X65013Y489839D01*
X64894Y489833D01*
X64774Y489835D01*
X64539Y489813D01*
X64302Y489799D01*
X64184Y489779D01*
X64065Y489768D01*
X63833Y489719D01*
X63600Y489680D01*
X63485Y489647D01*
X63367Y489622D01*
X63142Y489548D01*
X62915Y489483D01*
X62805Y489437D01*
X62691Y489399D01*
X62476Y489300D01*
X62257Y489210D01*
X62152Y489152D01*
X62043Y489102D01*
X61841Y488979D01*
X61634Y488865D01*
X61536Y488796D01*
X61433Y488734D01*
X61245Y488589D01*
X61053Y488453D01*
X60964Y488373D01*
X60869Y488300D01*
X60698Y488135D01*
X60522Y487978D01*
X60442Y487888D01*
X60356Y487805D01*
X60205Y487623D01*
X60047Y487446D01*
X59978Y487348D01*
X59902Y487256D01*
X59772Y487058D01*
X59635Y486865D01*
X59577Y486760D01*
X59512Y486660D01*
X59406Y486448D01*
X59291Y486241D01*
X59245Y486130D01*
X59192Y486023D01*
X59110Y485802D01*
X59019Y485583D01*
X58986Y485467D01*
X58944Y485355D01*
X58888Y485126D01*
X58822Y484898D01*
X58802Y484780D01*
X58774Y484664D01*
X58743Y484429D01*
X58704Y484196D01*
X58697Y484076D01*
X58681Y483957D01*
X58677Y483721D01*
X58664Y483484D01*
X58671Y483364D01*
X58669Y483245D01*
X58691Y483009D01*
X58705Y482773D01*
X58725Y482655D01*
X58736Y482536D01*
X58785Y482304D01*
X58825Y482071D01*
X58858Y481956D01*
X58883Y481838D01*
X58957Y481614D01*
X59023Y481386D01*
X59069Y481276D01*
X59106Y481162D01*
X59206Y480947D01*
X59296Y480729D01*
X59354Y480624D01*
X59404Y480515D01*
X59527Y480312D01*
X59642Y480105D01*
X59711Y480008D01*
X59773Y479905D01*
X59918Y479718D01*
X60055Y479525D01*
X60134Y479436D01*
X60208Y479341D01*
X60372Y479170D01*
X60530Y478994D01*
X60619Y478915D01*
X60703Y478828D01*
X60885Y478678D01*
X61062Y478520D01*
X61160Y478451D01*
X61252Y478375D01*
X61455Y478242D01*
X61643Y478109D01*
X61742Y478055D01*
X61839Y477991D01*
X68519Y474135D01*
X74135Y468519D01*
X78105Y461642D01*
X80161Y453971D01*
X80161Y446029D01*
X78105Y438358D01*
X74135Y431481D01*
X68519Y425865D01*
X61642Y421895D01*
X53971Y419839D01*
X46029Y419839D01*
X38358Y421895D01*
X31481Y425865D01*
X25865Y431481D01*
X22009Y438161D01*
X21943Y438261D01*
X21885Y438366D01*
X21748Y438559D01*
X21618Y438757D01*
X21542Y438850D01*
X21472Y438947D01*
X21315Y439123D01*
X21164Y439306D01*
X21077Y439389D01*
X20998Y439478D01*
X20821Y439636D01*
X20651Y439800D01*
X20555Y439873D01*
X20466Y439953D01*
X20273Y440089D01*
X20085Y440233D01*
X19983Y440295D01*
X19885Y440365D01*
X19677Y440479D01*
X19475Y440601D01*
X19366Y440651D01*
X19261Y440709D01*
X19043Y440799D01*
X18827Y440898D01*
X18713Y440935D01*
X18603Y440981D01*
X18375Y441046D01*
X18151Y441120D01*
X18033Y441144D01*
X17918Y441178D01*
X17685Y441217D01*
X17453Y441265D01*
X17334Y441276D01*
X17216Y441296D01*
X16979Y441309D01*
X16744Y441331D01*
X16624Y441329D01*
X16504Y441336D01*
X16268Y441322D01*
X16031Y441318D01*
X15913Y441302D01*
X15793Y441295D01*
X15560Y441255D01*
X15325Y441224D01*
X15209Y441195D01*
X15091Y441175D01*
X14863Y441109D01*
X14634Y441052D01*
X14522Y441010D01*
X14406Y440977D01*
X14188Y440886D01*
X13966Y440804D01*
X13859Y440750D01*
X13749Y440704D01*
X13541Y440589D01*
X13330Y440482D01*
X13230Y440417D01*
X13125Y440358D01*
X12933Y440221D01*
X12735Y440091D01*
X12642Y440015D01*
X12545Y439945D01*
X12369Y439788D01*
X12187Y439636D01*
X12104Y439550D01*
X12014Y439470D01*
X11857Y439293D01*
X11693Y439123D01*
X11620Y439028D01*
X11540Y438938D01*
X11404Y438745D01*
X11260Y438557D01*
X11198Y438454D01*
X11129Y438357D01*
X11015Y438150D01*
X10893Y437946D01*
X10843Y437837D01*
X10785Y437732D01*
X10695Y437514D01*
X10597Y437299D01*
X10559Y437185D01*
X10514Y437074D01*
X10449Y436847D01*
X10375Y436622D01*
X10351Y436504D01*
X10318Y436389D01*
X10278Y436156D01*
X10230Y435924D01*
X10219Y435805D01*
X10199Y435686D01*
X10186Y435444D01*
X10165Y435215D01*
X10167Y435102D01*
X10161Y434986D01*
X10161Y65014D01*
X10167Y64894D01*
X10165Y64774D01*
X10187Y64539D01*
X10201Y64302D01*
X10221Y64184D01*
X10232Y64065D01*
X10280Y63833D01*
X10320Y63600D01*
X10353Y63485D01*
X10378Y63367D01*
X10452Y63142D01*
X10517Y62915D01*
X10563Y62805D01*
X10601Y62691D01*
X10700Y62476D01*
X10790Y62257D01*
X10848Y62152D01*
X10898Y62043D01*
X11021Y61840D01*
X11135Y61634D01*
X11204Y61536D01*
X11266Y61433D01*
X11411Y61245D01*
X11547Y61053D01*
X11627Y60964D01*
X11700Y60869D01*
X11865Y60698D01*
X12022Y60522D01*
X12112Y60442D01*
X12195Y60356D01*
X12377Y60205D01*
X12554Y60047D01*
X12652Y59978D01*
X12744Y59902D01*
X12942Y59773D01*
X13135Y59635D01*
X13240Y59577D01*
X13340Y59512D01*
X13551Y59406D01*
X13759Y59291D01*
X13870Y59245D01*
X13977Y59192D01*
X14198Y59110D01*
X14417Y59019D01*
X14533Y58986D01*
X14645Y58944D01*
X14874Y58888D01*
X15102Y58822D01*
X15220Y58802D01*
X15336Y58774D01*
X15571Y58743D01*
X15804Y58704D01*
X15924Y58697D01*
X16043Y58681D01*
X16279Y58677D01*
X16516Y58664D01*
X16636Y58671D01*
X16755Y58669D01*
X16991Y58691D01*
X17227Y58705D01*
X17345Y58725D01*
X17464Y58736D01*
X17696Y58785D01*
X17929Y58825D01*
X18044Y58858D01*
X18162Y58883D01*
X18386Y58957D01*
X18614Y59023D01*
X18724Y59069D01*
X18838Y59106D01*
X19053Y59206D01*
X19271Y59296D01*
X19376Y59354D01*
X19485Y59404D01*
X19687Y59527D01*
X19895Y59642D01*
X19992Y59711D01*
X20095Y59773D01*
X20282Y59917D01*
X20475Y60055D01*
X20564Y60134D01*
X20659Y60208D01*
X20830Y60372D01*
X21006Y60530D01*
X21085Y60619D01*
X21172Y60703D01*
X21322Y60885D01*
X21480Y61062D01*
X21549Y61160D01*
X21625Y61252D01*
X21758Y61455D01*
X21891Y61643D01*
X21945Y61742D01*
X22009Y61839D01*
X25865Y68519D01*
X31481Y74135D01*
X38358Y78105D01*
X46029Y80161D01*
X53971Y80161D01*
X61642Y78105D01*
X68519Y74135D01*
X74135Y68519D01*
X78105Y61642D01*
X80161Y53971D01*
X80161Y46029D01*
X78105Y38358D01*
X74135Y31481D01*
X68519Y25865D01*
X61839Y22009D01*
X61739Y21943D01*
X61634Y21885D01*
X61441Y21748D01*
X61243Y21618D01*
X61150Y21542D01*
X61053Y21472D01*
X60877Y21315D01*
X60694Y21164D01*
X60611Y21077D01*
X60522Y20998D01*
X60364Y20821D01*
X60200Y20651D01*
X60127Y20556D01*
X60047Y20466D01*
X59910Y20273D01*
X59767Y20085D01*
X59705Y19983D01*
X59635Y19885D01*
X59521Y19677D01*
X59399Y19475D01*
X59349Y19366D01*
X59291Y19261D01*
X59201Y19042D01*
X59102Y18827D01*
X59065Y18714D01*
X59019Y18603D01*
X58954Y18375D01*
X58880Y18151D01*
X58855Y18033D01*
X58822Y17918D01*
X58783Y17685D01*
X58735Y17453D01*
X58724Y17334D01*
X58704Y17216D01*
X58691Y16979D01*
X58669Y16744D01*
X58671Y16624D01*
X58664Y16504D01*
X58678Y16268D01*
X58682Y16031D01*
X58698Y15913D01*
X58705Y15793D01*
X58745Y15560D01*
X58776Y15325D01*
X58805Y15209D01*
X58825Y15091D01*
X58891Y14864D01*
X58948Y14634D01*
X58990Y14521D01*
X59023Y14406D01*
X59114Y14188D01*
X59196Y13966D01*
X59250Y13859D01*
X59296Y13749D01*
X59411Y13542D01*
X59518Y13330D01*
X59583Y13230D01*
X59642Y13125D01*
X59779Y12933D01*
X59909Y12735D01*
X59985Y12642D01*
X60055Y12545D01*
X60212Y12369D01*
X60364Y12187D01*
X60450Y12104D01*
X60530Y12014D01*
X60706Y11857D01*
X60877Y11693D01*
X60972Y11620D01*
X61062Y11540D01*
X61255Y11404D01*
X61443Y11260D01*
X61546Y11198D01*
X61643Y11129D01*
X61851Y11015D01*
X62054Y10893D01*
X62162Y10843D01*
X62267Y10785D01*
X62486Y10695D01*
X62701Y10597D01*
X62815Y10559D01*
X62926Y10514D01*
X63154Y10449D01*
X63378Y10375D01*
X63496Y10351D01*
X63611Y10318D01*
X63844Y10278D01*
X64076Y10230D01*
X64195Y10219D01*
X64314Y10199D01*
X64556Y10186D01*
X64785Y10165D01*
X64898Y10167D01*
X65013Y10161D01*
X434986Y10161D01*
X435106Y10167D01*
G37*
%LPC*%
G36*
X345661Y49175D02*
X345661Y49175D01*
X340414Y51348D01*
X336398Y55364D01*
X334225Y60611D01*
X334225Y91789D01*
X336398Y97036D01*
X338766Y99403D01*
X338768Y99406D01*
X338772Y99409D01*
X339006Y99672D01*
X339240Y99934D01*
X339243Y99938D01*
X339246Y99941D01*
X339441Y100218D01*
X339653Y100515D01*
X339655Y100519D01*
X339657Y100523D01*
X339828Y100833D01*
X339997Y101139D01*
X339999Y101143D01*
X340001Y101147D01*
X340135Y101471D01*
X340270Y101797D01*
X340271Y101801D01*
X340272Y101805D01*
X340368Y102140D01*
X340467Y102482D01*
X340467Y102486D01*
X340468Y102490D01*
X340527Y102839D01*
X340586Y103184D01*
X340586Y103188D01*
X340587Y103193D01*
X340625Y103893D01*
X340625Y150226D01*
X340625Y150229D01*
X340625Y150232D01*
X340606Y150566D01*
X340585Y150937D01*
X340585Y150940D01*
X340585Y150943D01*
X340526Y151283D01*
X340466Y151640D01*
X340465Y151642D01*
X340465Y151645D01*
X340365Y151990D01*
X340269Y152324D01*
X340267Y152327D01*
X340267Y152330D01*
X340133Y152652D01*
X339996Y152982D01*
X339994Y152985D01*
X339993Y152987D01*
X339824Y153294D01*
X339651Y153606D01*
X339649Y153608D01*
X339648Y153611D01*
X339441Y153901D01*
X339239Y154187D01*
X339237Y154189D01*
X339235Y154191D01*
X339004Y154449D01*
X338764Y154718D01*
X338761Y154720D01*
X338760Y154722D01*
X338497Y154956D01*
X338232Y155192D01*
X338230Y155194D01*
X338228Y155196D01*
X337947Y155394D01*
X337651Y155604D01*
X337648Y155606D01*
X337646Y155607D01*
X337350Y155770D01*
X337027Y155948D01*
X337024Y155949D01*
X337022Y155951D01*
X336704Y156082D01*
X336369Y156220D01*
X336366Y156221D01*
X336363Y156222D01*
X336034Y156317D01*
X335684Y156417D01*
X335681Y156418D01*
X335679Y156418D01*
X335325Y156478D01*
X334982Y156536D01*
X334979Y156536D01*
X334976Y156537D01*
X334531Y156561D01*
X333936Y156807D01*
X333507Y157236D01*
X333275Y157797D01*
X333275Y172403D01*
X333507Y172964D01*
X333936Y173393D01*
X334806Y173753D01*
X334990Y173784D01*
X334992Y173785D01*
X334995Y173785D01*
X335340Y173885D01*
X335674Y173981D01*
X335677Y173983D01*
X335680Y173983D01*
X335992Y174113D01*
X336332Y174254D01*
X336335Y174256D01*
X336337Y174257D01*
X336643Y174426D01*
X336956Y174599D01*
X336958Y174601D01*
X336961Y174602D01*
X337258Y174813D01*
X337537Y175011D01*
X337539Y175013D01*
X337541Y175015D01*
X337808Y175254D01*
X338068Y175486D01*
X338070Y175489D01*
X338072Y175490D01*
X338310Y175758D01*
X338542Y176018D01*
X338544Y176020D01*
X338546Y176022D01*
X338741Y176299D01*
X338954Y176599D01*
X338956Y176602D01*
X338957Y176604D01*
X339120Y176899D01*
X339298Y177223D01*
X339299Y177226D01*
X339301Y177228D01*
X339431Y177543D01*
X339570Y177881D01*
X339571Y177884D01*
X339572Y177887D01*
X339664Y178208D01*
X339767Y178566D01*
X339768Y178569D01*
X339768Y178571D01*
X339827Y178921D01*
X339886Y179268D01*
X339886Y179271D01*
X339887Y179274D01*
X339925Y179974D01*
X339925Y323995D01*
X339915Y324178D01*
X339915Y324361D01*
X339895Y324533D01*
X339885Y324706D01*
X339855Y324887D01*
X339834Y325069D01*
X339795Y325238D01*
X339766Y325408D01*
X339715Y325584D01*
X339674Y325763D01*
X339616Y325929D01*
X339569Y326093D01*
X339502Y326254D01*
X339442Y326425D01*
X339353Y326639D01*
X339353Y333761D01*
X339585Y334322D01*
X340266Y335002D01*
X340268Y335005D01*
X340272Y335008D01*
X340506Y335271D01*
X340740Y335533D01*
X340743Y335537D01*
X340746Y335540D01*
X340947Y335825D01*
X341153Y336114D01*
X341155Y336118D01*
X341157Y336121D01*
X341325Y336427D01*
X341497Y336738D01*
X341499Y336742D01*
X341501Y336746D01*
X341635Y337070D01*
X341770Y337396D01*
X341771Y337400D01*
X341772Y337404D01*
X341869Y337743D01*
X341967Y338081D01*
X341967Y338085D01*
X341968Y338089D01*
X342028Y338445D01*
X342086Y338783D01*
X342086Y338787D01*
X342087Y338792D01*
X342125Y339492D01*
X342125Y391407D01*
X342125Y391412D01*
X342125Y391416D01*
X342105Y391770D01*
X342085Y392119D01*
X342085Y392123D01*
X342084Y392127D01*
X342024Y392482D01*
X341966Y392821D01*
X341965Y392825D01*
X341964Y392829D01*
X341863Y393177D01*
X341769Y393505D01*
X341767Y393509D01*
X341766Y393514D01*
X341631Y393838D01*
X341496Y394164D01*
X341494Y394167D01*
X341492Y394171D01*
X341321Y394479D01*
X341151Y394787D01*
X341149Y394790D01*
X341146Y394794D01*
X340942Y395081D01*
X340739Y395368D01*
X340736Y395371D01*
X340733Y395375D01*
X340266Y395897D01*
X337898Y398264D01*
X336066Y402688D01*
X336065Y402689D01*
X336065Y402691D01*
X335911Y403010D01*
X335757Y403330D01*
X335756Y403331D01*
X335755Y403333D01*
X335580Y403611D01*
X335378Y403933D01*
X335377Y403934D01*
X335376Y403936D01*
X335188Y404171D01*
X334933Y404490D01*
X334932Y404491D01*
X334932Y404492D01*
X334696Y404727D01*
X334430Y404994D01*
X334428Y404995D01*
X334427Y404996D01*
X334181Y405192D01*
X333873Y405438D01*
X333871Y405439D01*
X333870Y405439D01*
X333584Y405619D01*
X333269Y405817D01*
X333268Y405817D01*
X333267Y405818D01*
X332942Y405974D01*
X332627Y406125D01*
X332626Y406126D01*
X332624Y406127D01*
X332281Y406246D01*
X331955Y406360D01*
X331953Y406361D01*
X331952Y406361D01*
X331604Y406440D01*
X331260Y406519D01*
X331258Y406519D01*
X331257Y406519D01*
X330925Y406556D01*
X330552Y406598D01*
X330550Y406598D01*
X330549Y406598D01*
X330188Y406598D01*
X329840Y406597D01*
X329838Y406597D01*
X329837Y406597D01*
X329456Y406554D01*
X329132Y406517D01*
X329130Y406517D01*
X329129Y406517D01*
X328749Y406429D01*
X328437Y406358D01*
X328436Y406358D01*
X328434Y406357D01*
X328065Y406227D01*
X327765Y406122D01*
X327764Y406122D01*
X327762Y406121D01*
X327423Y405957D01*
X327123Y405812D01*
X327122Y405812D01*
X327121Y405811D01*
X326838Y405632D01*
X326521Y405433D01*
X326519Y405432D01*
X326518Y405431D01*
X326271Y405233D01*
X325964Y404988D01*
X325963Y404987D01*
X325962Y404986D01*
X325741Y404765D01*
X325461Y404484D01*
X325460Y404483D01*
X325459Y404482D01*
X325229Y404192D01*
X325017Y403926D01*
X325017Y403925D01*
X325016Y403924D01*
X324808Y403592D01*
X324639Y403323D01*
X324638Y403321D01*
X324638Y403320D01*
X324334Y402688D01*
X322502Y398264D01*
X320134Y395897D01*
X320132Y395894D01*
X320128Y395891D01*
X319893Y395627D01*
X319660Y395366D01*
X319657Y395362D01*
X319654Y395359D01*
X319450Y395070D01*
X319248Y394785D01*
X319245Y394781D01*
X319243Y394777D01*
X319073Y394468D01*
X318903Y394161D01*
X318901Y394157D01*
X318899Y394153D01*
X318765Y393827D01*
X318631Y393503D01*
X318629Y393499D01*
X318628Y393495D01*
X318529Y393152D01*
X318433Y392818D01*
X318433Y392814D01*
X318432Y392810D01*
X318372Y392457D01*
X318314Y392116D01*
X318314Y392112D01*
X318313Y392107D01*
X318275Y391407D01*
X318275Y339492D01*
X318275Y339487D01*
X318275Y339483D01*
X318295Y339130D01*
X318315Y338780D01*
X318315Y338776D01*
X318316Y338772D01*
X318376Y338421D01*
X318434Y338078D01*
X318435Y338074D01*
X318436Y338070D01*
X318540Y337709D01*
X318631Y337393D01*
X318633Y337390D01*
X318634Y337385D01*
X318775Y337046D01*
X318904Y336735D01*
X318906Y336731D01*
X318908Y336727D01*
X319078Y336421D01*
X319249Y336112D01*
X319251Y336108D01*
X319254Y336105D01*
X319470Y335801D01*
X319661Y335531D01*
X319664Y335528D01*
X319667Y335524D01*
X320134Y335002D01*
X320815Y334322D01*
X321047Y333761D01*
X321047Y326639D01*
X320800Y326043D01*
X320740Y325870D01*
X320670Y325701D01*
X320622Y325534D01*
X320565Y325371D01*
X320524Y325192D01*
X320474Y325016D01*
X320445Y324845D01*
X320406Y324676D01*
X320386Y324494D01*
X320355Y324313D01*
X320346Y324138D01*
X320327Y323968D01*
X320327Y323793D01*
X320317Y323613D01*
X320317Y323176D01*
X319118Y320281D01*
X309784Y310948D01*
X309782Y310945D01*
X309778Y310942D01*
X309544Y310679D01*
X309310Y310417D01*
X309307Y310413D01*
X309304Y310410D01*
X309103Y310125D01*
X308897Y309836D01*
X308895Y309832D01*
X308893Y309828D01*
X308722Y309518D01*
X308553Y309212D01*
X308551Y309208D01*
X308549Y309204D01*
X308415Y308879D01*
X308280Y308554D01*
X308279Y308549D01*
X308278Y308546D01*
X308181Y308207D01*
X308083Y307869D01*
X308083Y307865D01*
X308082Y307861D01*
X308022Y307504D01*
X307964Y307167D01*
X307964Y307163D01*
X307963Y307158D01*
X307925Y306458D01*
X307925Y260397D01*
X307693Y259836D01*
X307264Y259407D01*
X306703Y259175D01*
X252097Y259175D01*
X251536Y259407D01*
X251107Y259836D01*
X250875Y260397D01*
X250875Y323003D01*
X251107Y323564D01*
X251536Y323993D01*
X252097Y324225D01*
X296176Y324225D01*
X296179Y324225D01*
X296182Y324225D01*
X296529Y324245D01*
X296887Y324265D01*
X296890Y324265D01*
X296893Y324265D01*
X297233Y324324D01*
X297590Y324384D01*
X297592Y324385D01*
X297595Y324385D01*
X297940Y324485D01*
X298274Y324581D01*
X298277Y324583D01*
X298280Y324583D01*
X298604Y324718D01*
X298932Y324854D01*
X298935Y324856D01*
X298937Y324857D01*
X299245Y325027D01*
X299556Y325199D01*
X299558Y325201D01*
X299561Y325202D01*
X299850Y325408D01*
X300137Y325611D01*
X300139Y325613D01*
X300141Y325615D01*
X300409Y325855D01*
X300668Y326086D01*
X300670Y326089D01*
X300672Y326090D01*
X300910Y326358D01*
X301142Y326618D01*
X301144Y326620D01*
X301146Y326622D01*
X301336Y326892D01*
X301554Y327199D01*
X301556Y327202D01*
X301557Y327204D01*
X301720Y327500D01*
X301898Y327823D01*
X301899Y327826D01*
X301901Y327828D01*
X302032Y328146D01*
X302170Y328481D01*
X302171Y328484D01*
X302172Y328487D01*
X302259Y328790D01*
X302367Y329166D01*
X302368Y329169D01*
X302368Y329171D01*
X302428Y329525D01*
X302486Y329868D01*
X302486Y329871D01*
X302487Y329874D01*
X302525Y330574D01*
X302525Y391407D01*
X302525Y391412D01*
X302525Y391416D01*
X302505Y391770D01*
X302485Y392119D01*
X302485Y392123D01*
X302484Y392127D01*
X302424Y392482D01*
X302366Y392821D01*
X302365Y392825D01*
X302364Y392829D01*
X302263Y393177D01*
X302169Y393505D01*
X302167Y393509D01*
X302166Y393514D01*
X302031Y393838D01*
X301896Y394164D01*
X301894Y394167D01*
X301892Y394171D01*
X301721Y394479D01*
X301551Y394787D01*
X301549Y394790D01*
X301546Y394794D01*
X301342Y395081D01*
X301139Y395368D01*
X301136Y395371D01*
X301133Y395375D01*
X300666Y395897D01*
X298298Y398264D01*
X296125Y403511D01*
X296125Y434689D01*
X298298Y439936D01*
X302314Y443952D01*
X307561Y446125D01*
X313239Y446125D01*
X318486Y443952D01*
X322502Y439936D01*
X324334Y435512D01*
X324335Y435511D01*
X324335Y435509D01*
X324483Y435202D01*
X324643Y434870D01*
X324644Y434869D01*
X324645Y434867D01*
X324835Y434565D01*
X325022Y434267D01*
X325023Y434266D01*
X325024Y434264D01*
X325290Y433932D01*
X325467Y433710D01*
X325467Y433709D01*
X325468Y433708D01*
X325738Y433438D01*
X325970Y433206D01*
X325971Y433205D01*
X325973Y433204D01*
X326260Y432975D01*
X326528Y432762D01*
X326529Y432761D01*
X326530Y432761D01*
X326882Y432539D01*
X327131Y432383D01*
X327132Y432383D01*
X327133Y432382D01*
X327471Y432220D01*
X327773Y432075D01*
X327774Y432074D01*
X327776Y432073D01*
X328119Y431954D01*
X328445Y431840D01*
X328447Y431839D01*
X328448Y431839D01*
X328796Y431760D01*
X329140Y431681D01*
X329142Y431681D01*
X329143Y431681D01*
X329475Y431644D01*
X329848Y431602D01*
X329850Y431602D01*
X329851Y431602D01*
X330212Y431602D01*
X330561Y431603D01*
X330562Y431603D01*
X330563Y431603D01*
X330909Y431642D01*
X331268Y431683D01*
X331270Y431683D01*
X331271Y431683D01*
X331619Y431763D01*
X331963Y431842D01*
X331964Y431842D01*
X331966Y431843D01*
X332306Y431962D01*
X332635Y432078D01*
X332636Y432078D01*
X332638Y432079D01*
X332977Y432243D01*
X333277Y432388D01*
X333278Y432388D01*
X333279Y432389D01*
X333592Y432586D01*
X333879Y432767D01*
X333881Y432768D01*
X333882Y432769D01*
X334184Y433010D01*
X334436Y433212D01*
X334437Y433213D01*
X334438Y433214D01*
X334680Y433457D01*
X334939Y433716D01*
X334940Y433717D01*
X334941Y433718D01*
X335170Y434006D01*
X335383Y434274D01*
X335383Y434275D01*
X335384Y434276D01*
X335562Y434560D01*
X335761Y434878D01*
X335762Y434879D01*
X335762Y434880D01*
X336066Y435512D01*
X337898Y439936D01*
X341914Y443952D01*
X347161Y446125D01*
X352839Y446125D01*
X358086Y443952D01*
X362102Y439936D01*
X364275Y434689D01*
X364275Y403511D01*
X362102Y398264D01*
X359734Y395897D01*
X359732Y395894D01*
X359728Y395891D01*
X359493Y395627D01*
X359260Y395366D01*
X359257Y395362D01*
X359254Y395359D01*
X359050Y395070D01*
X358848Y394785D01*
X358845Y394781D01*
X358843Y394777D01*
X358673Y394468D01*
X358503Y394161D01*
X358501Y394157D01*
X358499Y394153D01*
X358365Y393827D01*
X358231Y393503D01*
X358229Y393499D01*
X358228Y393495D01*
X358129Y393152D01*
X358033Y392818D01*
X358033Y392814D01*
X358032Y392810D01*
X357972Y392457D01*
X357914Y392116D01*
X357914Y392112D01*
X357913Y392107D01*
X357875Y391407D01*
X357875Y330676D01*
X357046Y328675D01*
X356986Y328502D01*
X356916Y328333D01*
X356868Y328166D01*
X356811Y328003D01*
X356770Y327824D01*
X356720Y327648D01*
X356691Y327477D01*
X356652Y327308D01*
X356632Y327126D01*
X356601Y326945D01*
X356592Y326770D01*
X356582Y326686D01*
X356158Y325662D01*
X356098Y325489D01*
X356028Y325319D01*
X355980Y325153D01*
X355923Y324989D01*
X355882Y324810D01*
X355832Y324634D01*
X355803Y324464D01*
X355764Y324295D01*
X355744Y324112D01*
X355713Y323932D01*
X355704Y323756D01*
X355685Y323587D01*
X355685Y323412D01*
X355675Y323232D01*
X355675Y227059D01*
X355675Y227058D01*
X355675Y227056D01*
X355696Y226675D01*
X355715Y226348D01*
X355715Y226347D01*
X355715Y226345D01*
X355776Y225988D01*
X355834Y225646D01*
X355835Y225644D01*
X355835Y225643D01*
X355935Y225294D01*
X356031Y224961D01*
X356032Y224960D01*
X356032Y224958D01*
X356170Y224627D01*
X356304Y224303D01*
X356305Y224302D01*
X356306Y224300D01*
X356479Y223987D01*
X356649Y223680D01*
X356650Y223679D01*
X356651Y223677D01*
X356888Y223343D01*
X357061Y223099D01*
X357062Y223098D01*
X357063Y223096D01*
X357337Y222791D01*
X357536Y222568D01*
X357538Y222567D01*
X357539Y222566D01*
X357796Y222336D01*
X358068Y222093D01*
X358069Y222092D01*
X358070Y222091D01*
X358326Y221911D01*
X358649Y221681D01*
X358651Y221681D01*
X358652Y221680D01*
X358933Y221525D01*
X359273Y221337D01*
X359274Y221337D01*
X359276Y221336D01*
X359593Y221205D01*
X359931Y221065D01*
X359933Y221065D01*
X359934Y221064D01*
X360256Y220972D01*
X360616Y220868D01*
X360618Y220868D01*
X360619Y220868D01*
X360955Y220811D01*
X361318Y220750D01*
X361320Y220749D01*
X361321Y220749D01*
X361684Y220729D01*
X362030Y220710D01*
X362031Y220710D01*
X362033Y220710D01*
X362393Y220731D01*
X362741Y220751D01*
X362742Y220751D01*
X362744Y220751D01*
X363089Y220810D01*
X363443Y220871D01*
X363445Y220871D01*
X363446Y220872D01*
X363800Y220974D01*
X364128Y221069D01*
X364129Y221069D01*
X364130Y221070D01*
X364492Y221220D01*
X364785Y221342D01*
X364787Y221343D01*
X364788Y221343D01*
X365103Y221518D01*
X365409Y221688D01*
X365410Y221688D01*
X365411Y221689D01*
X365720Y221909D01*
X365989Y222101D01*
X365990Y222101D01*
X365991Y222102D01*
X366054Y222159D01*
X366697Y222425D01*
X378935Y222425D01*
X379177Y222391D01*
X379261Y222389D01*
X379345Y222379D01*
X379617Y222379D01*
X379889Y222372D01*
X379973Y222379D01*
X380057Y222379D01*
X380327Y222410D01*
X380599Y222433D01*
X380682Y222450D01*
X380765Y222459D01*
X381030Y222520D01*
X381298Y222574D01*
X381378Y222599D01*
X381459Y222618D01*
X381716Y222708D01*
X381976Y222791D01*
X382053Y222826D01*
X382132Y222854D01*
X382377Y222972D01*
X382546Y223048D01*
X383151Y223298D01*
X383151Y215900D01*
X383151Y208502D01*
X382563Y208745D01*
X382367Y208833D01*
X382121Y208951D01*
X382041Y208979D01*
X381964Y209013D01*
X381706Y209096D01*
X381448Y209185D01*
X381366Y209204D01*
X381286Y209229D01*
X381019Y209282D01*
X380753Y209343D01*
X380670Y209352D01*
X380587Y209368D01*
X380316Y209391D01*
X380045Y209421D01*
X379961Y209421D01*
X379877Y209428D01*
X379605Y209420D01*
X379333Y209420D01*
X379249Y209410D01*
X379165Y209408D01*
X378933Y209375D01*
X366697Y209375D01*
X366053Y209642D01*
X365983Y209705D01*
X365981Y209706D01*
X365980Y209707D01*
X365694Y209910D01*
X365401Y210117D01*
X365400Y210118D01*
X365399Y210119D01*
X365096Y210286D01*
X364778Y210461D01*
X364776Y210462D01*
X364775Y210463D01*
X364461Y210593D01*
X364120Y210734D01*
X364118Y210734D01*
X364117Y210735D01*
X363769Y210835D01*
X363435Y210931D01*
X363434Y210931D01*
X363432Y210932D01*
X363097Y210988D01*
X362733Y211050D01*
X362731Y211050D01*
X362730Y211050D01*
X362405Y211068D01*
X362021Y211090D01*
X362020Y211090D01*
X362018Y211090D01*
X361661Y211069D01*
X361310Y211050D01*
X361309Y211049D01*
X361307Y211049D01*
X360965Y210991D01*
X360608Y210930D01*
X360606Y210929D01*
X360605Y210929D01*
X360263Y210830D01*
X359923Y210732D01*
X359922Y210732D01*
X359920Y210731D01*
X359570Y210586D01*
X359265Y210459D01*
X359264Y210458D01*
X359263Y210458D01*
X358942Y210280D01*
X358642Y210114D01*
X358641Y210113D01*
X358639Y210112D01*
X358354Y209909D01*
X358061Y209701D01*
X358060Y209700D01*
X358059Y209699D01*
X357797Y209465D01*
X357530Y209226D01*
X357529Y209225D01*
X357528Y209224D01*
X357290Y208956D01*
X357056Y208695D01*
X357055Y208693D01*
X357054Y208692D01*
X356835Y208383D01*
X356645Y208113D01*
X356644Y208112D01*
X356643Y208111D01*
X356470Y207797D01*
X356301Y207489D01*
X356300Y207488D01*
X356299Y207487D01*
X356167Y207166D01*
X356029Y206831D01*
X356028Y206829D01*
X356028Y206828D01*
X355931Y206492D01*
X355832Y206146D01*
X355832Y206144D01*
X355832Y206143D01*
X355770Y205777D01*
X355714Y205444D01*
X355714Y205442D01*
X355713Y205440D01*
X355675Y204741D01*
X355675Y179974D01*
X355675Y179971D01*
X355675Y179968D01*
X355695Y179618D01*
X355715Y179263D01*
X355715Y179260D01*
X355715Y179257D01*
X355776Y178903D01*
X355834Y178560D01*
X355835Y178558D01*
X355835Y178555D01*
X355942Y178187D01*
X356031Y177876D01*
X356033Y177873D01*
X356033Y177870D01*
X356172Y177536D01*
X356304Y177218D01*
X356306Y177215D01*
X356307Y177213D01*
X356483Y176895D01*
X356649Y176594D01*
X356651Y176592D01*
X356652Y176589D01*
X356866Y176289D01*
X357061Y176013D01*
X357063Y176011D01*
X357065Y176009D01*
X357313Y175732D01*
X357536Y175482D01*
X357539Y175480D01*
X357540Y175478D01*
X357811Y175237D01*
X358068Y175008D01*
X358070Y175006D01*
X358072Y175004D01*
X358359Y174802D01*
X358649Y174596D01*
X358652Y174594D01*
X358654Y174593D01*
X358963Y174423D01*
X359273Y174252D01*
X359276Y174251D01*
X359278Y174249D01*
X359599Y174117D01*
X359931Y173980D01*
X359934Y173979D01*
X359937Y173978D01*
X360266Y173883D01*
X360616Y173783D01*
X360619Y173782D01*
X360621Y173782D01*
X360795Y173752D01*
X361664Y173393D01*
X362158Y172898D01*
X362193Y172825D01*
X362194Y172824D01*
X362195Y172822D01*
X362389Y172514D01*
X362572Y172222D01*
X362573Y172221D01*
X362574Y172219D01*
X362802Y171934D01*
X363017Y171665D01*
X363018Y171664D01*
X363019Y171663D01*
X363264Y171418D01*
X363520Y171161D01*
X363522Y171160D01*
X363523Y171159D01*
X363802Y170937D01*
X364078Y170717D01*
X364079Y170716D01*
X364080Y170715D01*
X364371Y170533D01*
X364681Y170338D01*
X364682Y170338D01*
X364684Y170337D01*
X365002Y170184D01*
X365323Y170030D01*
X365324Y170029D01*
X365326Y170028D01*
X365671Y169908D01*
X365995Y169795D01*
X365997Y169794D01*
X365998Y169794D01*
X366371Y169709D01*
X366690Y169636D01*
X366692Y169636D01*
X366693Y169636D01*
X367073Y169594D01*
X367398Y169557D01*
X367400Y169557D01*
X367401Y169557D01*
X367794Y169557D01*
X368111Y169558D01*
X368112Y169558D01*
X368114Y169558D01*
X368477Y169599D01*
X368818Y169638D01*
X368820Y169638D01*
X368821Y169638D01*
X369176Y169720D01*
X369513Y169797D01*
X369514Y169797D01*
X369516Y169798D01*
X369842Y169912D01*
X370185Y170033D01*
X370187Y170034D01*
X370188Y170034D01*
X370480Y170175D01*
X370827Y170342D01*
X370828Y170343D01*
X370829Y170344D01*
X371106Y170518D01*
X371429Y170722D01*
X371431Y170723D01*
X371432Y170724D01*
X371696Y170935D01*
X371986Y171167D01*
X371987Y171168D01*
X371988Y171169D01*
X372236Y171418D01*
X372489Y171671D01*
X372490Y171672D01*
X372491Y171673D01*
X372696Y171931D01*
X372933Y172229D01*
X372934Y172230D01*
X372935Y172231D01*
X373108Y172509D01*
X373311Y172832D01*
X373312Y172834D01*
X373313Y172835D01*
X373510Y173246D01*
X373827Y173720D01*
X374180Y174073D01*
X374596Y174352D01*
X375059Y174543D01*
X375550Y174641D01*
X382451Y174641D01*
X382451Y165100D01*
X382451Y155559D01*
X375550Y155559D01*
X375059Y155657D01*
X374596Y155848D01*
X374180Y156127D01*
X373827Y156480D01*
X373509Y156955D01*
X373459Y157059D01*
X373307Y157375D01*
X373306Y157376D01*
X373306Y157378D01*
X373130Y157656D01*
X372928Y157978D01*
X372927Y157979D01*
X372926Y157981D01*
X372715Y158246D01*
X372484Y158535D01*
X372483Y158536D01*
X372482Y158537D01*
X372244Y158775D01*
X371980Y159039D01*
X371978Y159040D01*
X371977Y159041D01*
X371726Y159241D01*
X371423Y159483D01*
X371421Y159484D01*
X371420Y159485D01*
X371146Y159656D01*
X370819Y159862D01*
X370818Y159862D01*
X370817Y159863D01*
X370499Y160016D01*
X370177Y160170D01*
X370176Y160171D01*
X370174Y160172D01*
X369829Y160292D01*
X369505Y160405D01*
X369503Y160406D01*
X369502Y160406D01*
X369133Y160490D01*
X368810Y160564D01*
X368809Y160564D01*
X368807Y160564D01*
X368428Y160606D01*
X368102Y160643D01*
X368101Y160643D01*
X368099Y160643D01*
X367706Y160643D01*
X367390Y160642D01*
X367388Y160642D01*
X367387Y160642D01*
X367023Y160601D01*
X366682Y160562D01*
X366680Y160562D01*
X366679Y160562D01*
X366325Y160480D01*
X365987Y160403D01*
X365986Y160403D01*
X365984Y160402D01*
X365667Y160291D01*
X365315Y160167D01*
X365314Y160166D01*
X365312Y160166D01*
X365014Y160022D01*
X364674Y159858D01*
X364672Y159857D01*
X364671Y159856D01*
X364374Y159669D01*
X364071Y159478D01*
X364070Y159477D01*
X364068Y159476D01*
X363793Y159256D01*
X363514Y159033D01*
X363513Y159032D01*
X363512Y159031D01*
X363256Y158774D01*
X363011Y158529D01*
X363010Y158528D01*
X363009Y158527D01*
X362786Y158246D01*
X362568Y157971D01*
X362567Y157970D01*
X362566Y157969D01*
X362370Y157656D01*
X362189Y157368D01*
X362189Y157366D01*
X362188Y157365D01*
X362157Y157300D01*
X361664Y156807D01*
X360294Y156240D01*
X360130Y156161D01*
X359963Y156091D01*
X359810Y156007D01*
X359652Y155931D01*
X359498Y155834D01*
X359339Y155746D01*
X359197Y155645D01*
X359049Y155552D01*
X358907Y155439D01*
X358759Y155333D01*
X358629Y155217D01*
X358492Y155108D01*
X358364Y154979D01*
X358228Y154858D01*
X358112Y154727D01*
X357989Y154604D01*
X357875Y154462D01*
X357754Y154326D01*
X357653Y154183D01*
X357545Y154047D01*
X357448Y153893D01*
X357343Y153744D01*
X357259Y153591D01*
X357166Y153443D01*
X357087Y153280D01*
X356999Y153120D01*
X356933Y152959D01*
X356857Y152801D01*
X356797Y152630D01*
X356728Y152462D01*
X356680Y152294D01*
X356622Y152129D01*
X356582Y151951D01*
X356532Y151777D01*
X356503Y151604D01*
X356464Y151434D01*
X356444Y151254D01*
X356413Y151074D01*
X356404Y150897D01*
X356384Y150726D01*
X356385Y150553D01*
X356375Y150374D01*
X356375Y103893D01*
X356375Y103888D01*
X356375Y103884D01*
X356396Y103512D01*
X356415Y103181D01*
X356415Y103177D01*
X356416Y103173D01*
X356476Y102821D01*
X356534Y102479D01*
X356535Y102475D01*
X356536Y102471D01*
X356638Y102119D01*
X356731Y101795D01*
X356733Y101791D01*
X356734Y101786D01*
X356870Y101460D01*
X357004Y101136D01*
X357006Y101132D01*
X357008Y101129D01*
X357178Y100822D01*
X357349Y100513D01*
X357351Y100510D01*
X357354Y100506D01*
X357573Y100198D01*
X357761Y99932D01*
X357764Y99929D01*
X357767Y99925D01*
X358234Y99403D01*
X360602Y97036D01*
X361884Y93939D01*
X361885Y93938D01*
X361885Y93937D01*
X362050Y93594D01*
X362193Y93297D01*
X362194Y93296D01*
X362195Y93295D01*
X362402Y92965D01*
X362572Y92694D01*
X362573Y92693D01*
X362574Y92692D01*
X362805Y92403D01*
X363017Y92137D01*
X363018Y92136D01*
X363019Y92135D01*
X363293Y91861D01*
X363521Y91634D01*
X363522Y91633D01*
X363523Y91632D01*
X363820Y91395D01*
X364078Y91190D01*
X364079Y91189D01*
X364080Y91188D01*
X364392Y90992D01*
X364681Y90811D01*
X364682Y90810D01*
X364684Y90809D01*
X364996Y90659D01*
X365323Y90502D01*
X365325Y90502D01*
X365326Y90501D01*
X365646Y90389D01*
X365996Y90267D01*
X365997Y90267D01*
X365998Y90266D01*
X366332Y90190D01*
X366690Y90109D01*
X366692Y90109D01*
X366693Y90108D01*
X367021Y90072D01*
X367398Y90030D01*
X367400Y90030D01*
X367401Y90029D01*
X367762Y90030D01*
X368111Y90030D01*
X368112Y90030D01*
X368114Y90030D01*
X368467Y90070D01*
X368818Y90110D01*
X368820Y90111D01*
X368821Y90111D01*
X369185Y90194D01*
X369513Y90269D01*
X369514Y90270D01*
X369516Y90270D01*
X369895Y90403D01*
X370185Y90505D01*
X370186Y90506D01*
X370188Y90506D01*
X370524Y90669D01*
X370827Y90815D01*
X370828Y90816D01*
X370829Y90816D01*
X371127Y91004D01*
X371430Y91195D01*
X371431Y91196D01*
X371432Y91196D01*
X371708Y91417D01*
X371986Y91639D01*
X371987Y91640D01*
X371988Y91641D01*
X372214Y91868D01*
X372489Y92144D01*
X372490Y92145D01*
X372491Y92146D01*
X372694Y92402D01*
X372933Y92701D01*
X372934Y92703D01*
X372934Y92704D01*
X373098Y92965D01*
X373311Y93305D01*
X373312Y93306D01*
X373312Y93308D01*
X373616Y93939D01*
X374357Y95727D01*
X375359Y97463D01*
X376579Y99054D01*
X377996Y100471D01*
X379587Y101691D01*
X381323Y102693D01*
X381751Y102871D01*
X381751Y76200D01*
X381751Y49529D01*
X381323Y49707D01*
X379587Y50709D01*
X377996Y51929D01*
X376579Y53346D01*
X375359Y54937D01*
X374357Y56673D01*
X373616Y58461D01*
X373615Y58462D01*
X373615Y58463D01*
X373483Y58736D01*
X373307Y59103D01*
X373306Y59104D01*
X373306Y59105D01*
X373145Y59360D01*
X372928Y59706D01*
X372927Y59707D01*
X372926Y59708D01*
X372696Y59997D01*
X372484Y60263D01*
X372483Y60264D01*
X372482Y60265D01*
X372217Y60529D01*
X371980Y60766D01*
X371979Y60767D01*
X371978Y60768D01*
X371695Y60993D01*
X371423Y61210D01*
X371421Y61211D01*
X371420Y61212D01*
X371108Y61408D01*
X370819Y61589D01*
X370818Y61590D01*
X370817Y61591D01*
X370504Y61741D01*
X370177Y61898D01*
X370176Y61898D01*
X370175Y61899D01*
X369854Y62011D01*
X369505Y62133D01*
X369503Y62133D01*
X369502Y62134D01*
X369168Y62210D01*
X368810Y62291D01*
X368808Y62291D01*
X368807Y62292D01*
X368479Y62328D01*
X368102Y62370D01*
X368101Y62370D01*
X368099Y62371D01*
X367738Y62370D01*
X367390Y62370D01*
X367388Y62370D01*
X367387Y62370D01*
X367033Y62330D01*
X366682Y62290D01*
X366680Y62289D01*
X366679Y62289D01*
X366315Y62206D01*
X365987Y62131D01*
X365986Y62130D01*
X365985Y62130D01*
X365606Y61997D01*
X365315Y61895D01*
X365314Y61894D01*
X365312Y61894D01*
X364976Y61731D01*
X364674Y61585D01*
X364672Y61584D01*
X364671Y61584D01*
X364373Y61396D01*
X364071Y61205D01*
X364070Y61204D01*
X364068Y61204D01*
X363793Y60983D01*
X363514Y60761D01*
X363513Y60760D01*
X363512Y60759D01*
X363266Y60512D01*
X363011Y60256D01*
X363010Y60255D01*
X363009Y60254D01*
X362765Y59947D01*
X362567Y59699D01*
X362567Y59698D01*
X362566Y59696D01*
X362355Y59360D01*
X362189Y59095D01*
X362189Y59094D01*
X362188Y59092D01*
X361884Y58461D01*
X361881Y58453D01*
X361881Y58452D01*
X360602Y55364D01*
X356586Y51348D01*
X351339Y49175D01*
X345661Y49175D01*
G37*
%LPD*%
%LPC*%
G36*
X226781Y59435D02*
X226781Y59435D01*
X223420Y60827D01*
X220847Y63400D01*
X219455Y66761D01*
X219455Y85639D01*
X220899Y89123D01*
X221068Y89362D01*
X221270Y89648D01*
X221273Y89652D01*
X221275Y89656D01*
X221445Y89964D01*
X221615Y90272D01*
X221617Y90276D01*
X221619Y90280D01*
X221750Y90597D01*
X221887Y90930D01*
X221889Y90934D01*
X221890Y90938D01*
X221987Y91276D01*
X222084Y91615D01*
X222085Y91619D01*
X222086Y91623D01*
X222144Y91964D01*
X222204Y92317D01*
X222204Y92321D01*
X222205Y92326D01*
X222243Y93026D01*
X222243Y132202D01*
X222233Y132385D01*
X222233Y132567D01*
X222213Y132740D01*
X222203Y132914D01*
X222173Y133094D01*
X222152Y133275D01*
X222113Y133444D01*
X222084Y133616D01*
X222033Y133791D01*
X221992Y133969D01*
X221935Y134133D01*
X221887Y134300D01*
X221817Y134469D01*
X221756Y134641D01*
X221680Y134798D01*
X221614Y134959D01*
X221525Y135119D01*
X221446Y135283D01*
X221353Y135430D01*
X221269Y135582D01*
X221163Y135731D01*
X221066Y135885D01*
X220957Y136021D01*
X220857Y136163D01*
X220735Y136299D01*
X220621Y136442D01*
X220497Y136565D01*
X220382Y136694D01*
X220245Y136815D01*
X220116Y136944D01*
X220035Y137009D01*
X219007Y138036D01*
X218775Y138597D01*
X218775Y149203D01*
X219093Y149970D01*
X219094Y149974D01*
X219096Y149978D01*
X219211Y150307D01*
X219328Y150643D01*
X219329Y150647D01*
X219331Y150651D01*
X219404Y150975D01*
X219487Y151337D01*
X219487Y151342D01*
X219488Y151346D01*
X219526Y151685D01*
X219566Y152045D01*
X219566Y152050D01*
X219567Y152054D01*
X219566Y152412D01*
X219566Y152758D01*
X219566Y152762D01*
X219566Y152766D01*
X219525Y153126D01*
X219486Y153466D01*
X219485Y153470D01*
X219485Y153474D01*
X219408Y153809D01*
X219327Y154160D01*
X219326Y154164D01*
X219325Y154168D01*
X219093Y154830D01*
X218775Y155597D01*
X218775Y166203D01*
X219007Y166764D01*
X220037Y167794D01*
X220125Y167863D01*
X220254Y167992D01*
X220390Y168114D01*
X220505Y168244D01*
X220628Y168367D01*
X220742Y168510D01*
X220864Y168646D01*
X220964Y168788D01*
X221073Y168924D01*
X221170Y169079D01*
X221275Y169228D01*
X221359Y169380D01*
X221451Y169527D01*
X221531Y169692D01*
X221619Y169852D01*
X221685Y170012D01*
X221760Y170169D01*
X221821Y170342D01*
X221890Y170510D01*
X221938Y170677D01*
X221996Y170842D01*
X222036Y171020D01*
X222086Y171195D01*
X222115Y171367D01*
X222154Y171536D01*
X222174Y171718D01*
X222205Y171898D01*
X222214Y172074D01*
X222233Y172244D01*
X222233Y172418D01*
X222243Y172598D01*
X222243Y188607D01*
X222785Y189915D01*
X248216Y215346D01*
X248218Y215349D01*
X248222Y215352D01*
X248456Y215614D01*
X248690Y215877D01*
X248693Y215880D01*
X248696Y215884D01*
X248897Y216168D01*
X249103Y216458D01*
X249105Y216462D01*
X249107Y216465D01*
X249278Y216776D01*
X249447Y217081D01*
X249449Y217085D01*
X249451Y217089D01*
X249584Y217412D01*
X249720Y217740D01*
X249721Y217744D01*
X249722Y217748D01*
X249819Y218086D01*
X249917Y218424D01*
X249917Y218428D01*
X249918Y218433D01*
X249977Y218779D01*
X250036Y219127D01*
X250036Y219131D01*
X250037Y219135D01*
X250075Y219835D01*
X250075Y227003D01*
X250307Y227564D01*
X250736Y227993D01*
X251297Y228225D01*
X261903Y228225D01*
X262464Y227993D01*
X262893Y227564D01*
X263125Y227003D01*
X263125Y210397D01*
X262893Y209836D01*
X262464Y209407D01*
X261903Y209175D01*
X254735Y209175D01*
X254731Y209175D01*
X254727Y209175D01*
X254373Y209155D01*
X254024Y209135D01*
X254020Y209135D01*
X254015Y209134D01*
X253663Y209074D01*
X253322Y209016D01*
X253318Y209015D01*
X253313Y209014D01*
X252961Y208912D01*
X252637Y208819D01*
X252633Y208817D01*
X252629Y208816D01*
X252299Y208678D01*
X251979Y208546D01*
X251975Y208544D01*
X251971Y208542D01*
X251664Y208372D01*
X251355Y208201D01*
X251352Y208199D01*
X251348Y208196D01*
X251049Y207983D01*
X250775Y207789D01*
X250772Y207786D01*
X250768Y207783D01*
X250246Y207316D01*
X231216Y188286D01*
X231214Y188283D01*
X231210Y188280D01*
X230976Y188018D01*
X230742Y187755D01*
X230739Y187752D01*
X230736Y187748D01*
X230535Y187464D01*
X230329Y187174D01*
X230327Y187170D01*
X230325Y187167D01*
X230154Y186856D01*
X229985Y186551D01*
X229983Y186547D01*
X229981Y186543D01*
X229847Y186218D01*
X229712Y185892D01*
X229711Y185888D01*
X229710Y185884D01*
X229611Y185541D01*
X229515Y185208D01*
X229515Y185204D01*
X229514Y185199D01*
X229454Y184843D01*
X229396Y184505D01*
X229396Y184501D01*
X229395Y184497D01*
X229357Y183797D01*
X229357Y175006D01*
X229357Y175003D01*
X229357Y175000D01*
X229377Y174641D01*
X229397Y174295D01*
X229397Y174292D01*
X229397Y174289D01*
X229456Y173949D01*
X229516Y173592D01*
X229517Y173590D01*
X229517Y173587D01*
X229617Y173242D01*
X229713Y172908D01*
X229715Y172905D01*
X229715Y172902D01*
X229856Y172564D01*
X229986Y172250D01*
X229988Y172247D01*
X229989Y172245D01*
X230163Y171931D01*
X230331Y171626D01*
X230333Y171624D01*
X230334Y171621D01*
X230557Y171308D01*
X230743Y171045D01*
X230745Y171043D01*
X230747Y171041D01*
X230996Y170763D01*
X231218Y170514D01*
X231221Y170512D01*
X231222Y170510D01*
X231498Y170264D01*
X231750Y170040D01*
X231752Y170038D01*
X231754Y170036D01*
X232035Y169838D01*
X232331Y169628D01*
X232334Y169626D01*
X232336Y169625D01*
X232644Y169455D01*
X232955Y169284D01*
X232958Y169283D01*
X232960Y169281D01*
X233278Y169150D01*
X233613Y169012D01*
X233616Y169011D01*
X233619Y169010D01*
X233951Y168915D01*
X234298Y168815D01*
X234301Y168814D01*
X234303Y168814D01*
X234657Y168754D01*
X235000Y168696D01*
X235003Y168696D01*
X235006Y168695D01*
X235706Y168657D01*
X259202Y168657D01*
X259385Y168667D01*
X259567Y168667D01*
X259740Y168687D01*
X259914Y168697D01*
X260094Y168727D01*
X260275Y168748D01*
X260444Y168787D01*
X260616Y168816D01*
X260791Y168867D01*
X260969Y168908D01*
X261133Y168965D01*
X261300Y169013D01*
X261469Y169083D01*
X261641Y169144D01*
X261798Y169220D01*
X261959Y169286D01*
X262119Y169375D01*
X262283Y169454D01*
X262430Y169547D01*
X262582Y169631D01*
X262731Y169737D01*
X262885Y169834D01*
X263021Y169943D01*
X263163Y170043D01*
X263299Y170165D01*
X263442Y170279D01*
X263565Y170403D01*
X263694Y170518D01*
X263815Y170655D01*
X263944Y170784D01*
X264009Y170865D01*
X265036Y171893D01*
X265597Y172125D01*
X276261Y172125D01*
X276297Y172111D01*
X276379Y172090D01*
X276460Y172062D01*
X276724Y172001D01*
X276987Y171934D01*
X277071Y171922D01*
X277154Y171903D01*
X277424Y171873D01*
X277693Y171835D01*
X277778Y171833D01*
X277862Y171824D01*
X278134Y171824D01*
X278405Y171816D01*
X278489Y171824D01*
X278575Y171824D01*
X278845Y171854D01*
X279114Y171877D01*
X279198Y171894D01*
X279283Y171904D01*
X279547Y171964D01*
X279813Y172017D01*
X279894Y172043D01*
X279977Y172062D01*
X280233Y172152D01*
X280491Y172235D01*
X280569Y172270D01*
X280649Y172298D01*
X280893Y172416D01*
X281141Y172527D01*
X281215Y172571D01*
X281291Y172607D01*
X281508Y172744D01*
X281551Y172769D01*
X281551Y165100D01*
X281551Y157431D01*
X281511Y157454D01*
X281281Y157598D01*
X281205Y157635D01*
X281131Y157678D01*
X280883Y157789D01*
X280639Y157906D01*
X280559Y157934D01*
X280481Y157969D01*
X280222Y158051D01*
X279966Y158141D01*
X279883Y158160D01*
X279802Y158185D01*
X279536Y158238D01*
X279271Y158298D01*
X279187Y158308D01*
X279103Y158324D01*
X278833Y158347D01*
X278563Y158377D01*
X278478Y158377D01*
X278393Y158384D01*
X278122Y158376D01*
X277851Y158376D01*
X277766Y158366D01*
X277681Y158364D01*
X277413Y158326D01*
X277143Y158295D01*
X277060Y158276D01*
X276976Y158264D01*
X276713Y158196D01*
X276449Y158135D01*
X276368Y158107D01*
X276286Y158086D01*
X276259Y158075D01*
X265597Y158075D01*
X265036Y158307D01*
X264006Y159337D01*
X263937Y159425D01*
X263808Y159554D01*
X263686Y159690D01*
X263556Y159805D01*
X263433Y159928D01*
X263290Y160042D01*
X263154Y160164D01*
X263012Y160264D01*
X262876Y160373D01*
X262721Y160470D01*
X262572Y160575D01*
X262420Y160659D01*
X262273Y160751D01*
X262108Y160831D01*
X261948Y160919D01*
X261788Y160985D01*
X261631Y161060D01*
X261458Y161121D01*
X261290Y161190D01*
X261123Y161238D01*
X260958Y161296D01*
X260780Y161336D01*
X260605Y161386D01*
X260433Y161415D01*
X260264Y161454D01*
X260082Y161474D01*
X259902Y161505D01*
X259726Y161514D01*
X259556Y161533D01*
X259382Y161533D01*
X259202Y161543D01*
X239174Y161543D01*
X239171Y161543D01*
X239168Y161543D01*
X238821Y161523D01*
X238463Y161503D01*
X238460Y161503D01*
X238457Y161503D01*
X238117Y161444D01*
X237760Y161384D01*
X237758Y161383D01*
X237755Y161383D01*
X237408Y161282D01*
X237076Y161187D01*
X237073Y161185D01*
X237070Y161185D01*
X236746Y161050D01*
X236418Y160914D01*
X236415Y160912D01*
X236413Y160911D01*
X236101Y160739D01*
X235794Y160569D01*
X235792Y160567D01*
X235789Y160566D01*
X235492Y160355D01*
X235213Y160157D01*
X235211Y160155D01*
X235209Y160153D01*
X234941Y159913D01*
X234682Y159682D01*
X234680Y159679D01*
X234678Y159678D01*
X234440Y159410D01*
X234208Y159150D01*
X234206Y159148D01*
X234204Y159146D01*
X234004Y158863D01*
X233796Y158569D01*
X233794Y158566D01*
X233793Y158564D01*
X233625Y158259D01*
X233452Y157945D01*
X233451Y157942D01*
X233449Y157940D01*
X233310Y157603D01*
X233180Y157287D01*
X233179Y157284D01*
X233178Y157281D01*
X233079Y156937D01*
X232983Y156602D01*
X232982Y156599D01*
X232982Y156597D01*
X232922Y156240D01*
X232864Y155900D01*
X232864Y155897D01*
X232863Y155894D01*
X232850Y155659D01*
X232507Y154830D01*
X232506Y154826D01*
X232504Y154822D01*
X232389Y154491D01*
X232272Y154157D01*
X232271Y154153D01*
X232269Y154149D01*
X232190Y153800D01*
X232113Y153463D01*
X232113Y153459D01*
X232112Y153454D01*
X232072Y153095D01*
X232034Y152755D01*
X232034Y152751D01*
X232033Y152746D01*
X232034Y152389D01*
X232034Y152042D01*
X232034Y152038D01*
X232034Y152034D01*
X232074Y151685D01*
X232114Y151335D01*
X232115Y151330D01*
X232115Y151326D01*
X232196Y150975D01*
X232273Y150640D01*
X232274Y150636D01*
X232275Y150632D01*
X232507Y149970D01*
X232825Y149203D01*
X232825Y138597D01*
X232593Y138036D01*
X231563Y137006D01*
X231475Y136937D01*
X231346Y136808D01*
X231210Y136686D01*
X231095Y136556D01*
X230972Y136433D01*
X230858Y136290D01*
X230736Y136154D01*
X230636Y136012D01*
X230527Y135876D01*
X230430Y135721D01*
X230325Y135572D01*
X230241Y135420D01*
X230149Y135273D01*
X230069Y135108D01*
X229981Y134948D01*
X229915Y134788D01*
X229840Y134631D01*
X229779Y134458D01*
X229710Y134290D01*
X229662Y134123D01*
X229604Y133958D01*
X229564Y133780D01*
X229514Y133605D01*
X229485Y133433D01*
X229446Y133264D01*
X229426Y133082D01*
X229395Y132902D01*
X229386Y132726D01*
X229367Y132556D01*
X229367Y132382D01*
X229357Y132202D01*
X229357Y97647D01*
X229367Y97466D01*
X229367Y97284D01*
X229387Y97110D01*
X229397Y96936D01*
X229427Y96757D01*
X229448Y96576D01*
X229487Y96406D01*
X229516Y96234D01*
X229566Y96059D01*
X229607Y95882D01*
X229665Y95716D01*
X229713Y95549D01*
X229783Y95381D01*
X229843Y95209D01*
X229919Y95052D01*
X229986Y94891D01*
X230074Y94732D01*
X230153Y94568D01*
X230247Y94420D01*
X230331Y94267D01*
X230436Y94120D01*
X230533Y93965D01*
X230643Y93829D01*
X230743Y93687D01*
X230864Y93551D01*
X230978Y93409D01*
X231102Y93286D01*
X231218Y93156D01*
X231354Y93035D01*
X231483Y92906D01*
X231620Y92797D01*
X231750Y92681D01*
X231898Y92576D01*
X232041Y92463D01*
X232188Y92370D01*
X232331Y92269D01*
X232491Y92181D01*
X232644Y92085D01*
X232804Y92008D01*
X232955Y91925D01*
X233115Y91859D01*
X233276Y91781D01*
X233780Y91573D01*
X236810Y88542D01*
X236813Y88540D01*
X236814Y88538D01*
X237076Y88304D01*
X237342Y88068D01*
X237344Y88066D01*
X237346Y88064D01*
X237631Y87862D01*
X237923Y87655D01*
X237925Y87654D01*
X237928Y87652D01*
X238235Y87483D01*
X238546Y87311D01*
X238549Y87310D01*
X238551Y87308D01*
X238897Y87166D01*
X239204Y87038D01*
X239207Y87038D01*
X239210Y87036D01*
X239563Y86935D01*
X239889Y86841D01*
X239892Y86841D01*
X239895Y86840D01*
X240260Y86778D01*
X240592Y86722D01*
X240594Y86722D01*
X240597Y86722D01*
X240963Y86701D01*
X241303Y86683D01*
X241306Y86683D01*
X241309Y86683D01*
X241660Y86703D01*
X242014Y86723D01*
X242017Y86723D01*
X242020Y86723D01*
X242363Y86782D01*
X242716Y86843D01*
X242719Y86843D01*
X242722Y86844D01*
X243075Y86946D01*
X243401Y87040D01*
X243403Y87041D01*
X243406Y87042D01*
X243744Y87183D01*
X244059Y87313D01*
X244061Y87315D01*
X244064Y87316D01*
X244372Y87486D01*
X244682Y87658D01*
X244684Y87660D01*
X244687Y87661D01*
X244980Y87870D01*
X245263Y88071D01*
X245265Y88073D01*
X245267Y88075D01*
X245790Y88542D01*
X248820Y91573D01*
X252181Y92965D01*
X255819Y92965D01*
X259180Y91573D01*
X261753Y89000D01*
X263145Y85639D01*
X263145Y66761D01*
X261753Y63400D01*
X259180Y60827D01*
X255819Y59435D01*
X252181Y59435D01*
X248820Y60827D01*
X245790Y63858D01*
X245787Y63860D01*
X245786Y63862D01*
X245536Y64084D01*
X245258Y64333D01*
X245256Y64334D01*
X245254Y64336D01*
X244973Y64535D01*
X244677Y64745D01*
X244675Y64746D01*
X244672Y64748D01*
X244360Y64920D01*
X244054Y65089D01*
X244051Y65090D01*
X244049Y65092D01*
X243718Y65228D01*
X243395Y65362D01*
X243393Y65363D01*
X243390Y65364D01*
X243052Y65460D01*
X242711Y65559D01*
X242708Y65559D01*
X242705Y65560D01*
X242343Y65621D01*
X242008Y65678D01*
X242006Y65678D01*
X242003Y65678D01*
X241637Y65699D01*
X241297Y65717D01*
X241294Y65717D01*
X241291Y65717D01*
X240940Y65697D01*
X240586Y65677D01*
X240583Y65677D01*
X240580Y65677D01*
X240234Y65617D01*
X239884Y65557D01*
X239881Y65557D01*
X239878Y65556D01*
X239533Y65456D01*
X239199Y65360D01*
X239196Y65359D01*
X239194Y65358D01*
X238863Y65220D01*
X238541Y65087D01*
X238539Y65085D01*
X238536Y65084D01*
X238228Y64913D01*
X237918Y64742D01*
X237915Y64740D01*
X237913Y64739D01*
X237616Y64527D01*
X237337Y64329D01*
X237335Y64327D01*
X237333Y64325D01*
X236810Y63858D01*
X233780Y60827D01*
X230419Y59435D01*
X226781Y59435D01*
G37*
%LPD*%
%LPC*%
G36*
X87081Y338835D02*
X87081Y338835D01*
X83720Y340227D01*
X81147Y342800D01*
X79755Y346161D01*
X79755Y365039D01*
X81147Y368400D01*
X82468Y369720D01*
X82470Y369723D01*
X82474Y369726D01*
X82707Y369988D01*
X82942Y370251D01*
X82945Y370255D01*
X82948Y370258D01*
X83149Y370543D01*
X83355Y370833D01*
X83357Y370836D01*
X83359Y370840D01*
X83530Y371150D01*
X83699Y371456D01*
X83701Y371460D01*
X83703Y371464D01*
X83837Y371789D01*
X83972Y372114D01*
X83973Y372119D01*
X83974Y372122D01*
X84071Y372461D01*
X84169Y372799D01*
X84169Y372803D01*
X84170Y372807D01*
X84230Y373164D01*
X84288Y373501D01*
X84288Y373506D01*
X84289Y373510D01*
X84327Y374210D01*
X84327Y403110D01*
X85023Y404790D01*
X90510Y410277D01*
X92190Y410973D01*
X95086Y410973D01*
X95091Y410973D01*
X95095Y410973D01*
X95448Y410993D01*
X95798Y411013D01*
X95802Y411013D01*
X95806Y411014D01*
X96157Y411074D01*
X96500Y411132D01*
X96504Y411133D01*
X96508Y411134D01*
X96861Y411236D01*
X97185Y411329D01*
X97188Y411331D01*
X97193Y411332D01*
X97518Y411468D01*
X97843Y411602D01*
X97847Y411604D01*
X97851Y411606D01*
X98157Y411776D01*
X98466Y411947D01*
X98470Y411949D01*
X98473Y411952D01*
X98769Y412162D01*
X99047Y412359D01*
X99050Y412362D01*
X99054Y412365D01*
X99576Y412832D01*
X99936Y413193D01*
X100497Y413425D01*
X111103Y413425D01*
X111870Y413107D01*
X111874Y413106D01*
X111878Y413104D01*
X112215Y412986D01*
X112543Y412872D01*
X112547Y412871D01*
X112551Y412869D01*
X112893Y412792D01*
X113237Y412713D01*
X113242Y412713D01*
X113246Y412712D01*
X113594Y412673D01*
X113945Y412634D01*
X113950Y412634D01*
X113954Y412633D01*
X114312Y412634D01*
X114658Y412634D01*
X114662Y412634D01*
X114666Y412634D01*
X115030Y412676D01*
X115366Y412714D01*
X115370Y412715D01*
X115374Y412715D01*
X115719Y412794D01*
X116060Y412873D01*
X116064Y412874D01*
X116068Y412875D01*
X116730Y413107D01*
X117497Y413425D01*
X128103Y413425D01*
X128664Y413193D01*
X129024Y412832D01*
X129027Y412830D01*
X129030Y412826D01*
X129293Y412592D01*
X129555Y412358D01*
X129559Y412355D01*
X129562Y412352D01*
X129847Y412151D01*
X130136Y411945D01*
X130140Y411943D01*
X130143Y411941D01*
X130463Y411765D01*
X130760Y411601D01*
X130764Y411599D01*
X130768Y411597D01*
X131092Y411463D01*
X131418Y411328D01*
X131422Y411327D01*
X131426Y411326D01*
X131765Y411229D01*
X132103Y411131D01*
X132107Y411131D01*
X132111Y411130D01*
X132467Y411070D01*
X132805Y411012D01*
X132809Y411012D01*
X132814Y411011D01*
X133514Y410973D01*
X136410Y410973D01*
X138090Y410277D01*
X140270Y408097D01*
X141397Y406970D01*
X141397Y406969D01*
X141403Y406964D01*
X141404Y406963D01*
X143577Y404790D01*
X144273Y403110D01*
X144273Y374210D01*
X144273Y374206D01*
X144273Y374201D01*
X144293Y373848D01*
X144313Y373499D01*
X144313Y373494D01*
X144314Y373490D01*
X144376Y373126D01*
X144432Y372796D01*
X144433Y372792D01*
X144434Y372788D01*
X144536Y372436D01*
X144629Y372112D01*
X144631Y372108D01*
X144632Y372104D01*
X144768Y371777D01*
X144902Y371454D01*
X144904Y371450D01*
X144906Y371446D01*
X145076Y371139D01*
X145247Y370830D01*
X145249Y370827D01*
X145252Y370823D01*
X145464Y370524D01*
X145659Y370249D01*
X145662Y370246D01*
X145665Y370243D01*
X146132Y369720D01*
X147453Y368400D01*
X148845Y365039D01*
X148845Y346161D01*
X147453Y342800D01*
X144880Y340227D01*
X141519Y338835D01*
X137881Y338835D01*
X134520Y340227D01*
X132079Y342668D01*
X132033Y342710D01*
X131991Y342755D01*
X131768Y342946D01*
X131548Y343143D01*
X131497Y343179D01*
X131450Y343219D01*
X131207Y343385D01*
X130967Y343555D01*
X130913Y343585D01*
X130861Y343620D01*
X130600Y343758D01*
X130343Y343900D01*
X130286Y343923D01*
X130231Y343952D01*
X129956Y344060D01*
X129685Y344172D01*
X129625Y344189D01*
X129567Y344212D01*
X129283Y344288D01*
X129000Y344369D01*
X128939Y344380D01*
X128879Y344396D01*
X128588Y344439D01*
X128298Y344488D01*
X128236Y344492D01*
X128175Y344501D01*
X127880Y344512D01*
X127587Y344528D01*
X127525Y344524D01*
X127463Y344527D01*
X127170Y344504D01*
X126875Y344488D01*
X126814Y344477D01*
X126752Y344472D01*
X126464Y344417D01*
X126173Y344368D01*
X126113Y344351D01*
X126052Y344339D01*
X125772Y344252D01*
X125489Y344170D01*
X125431Y344146D01*
X125372Y344128D01*
X125103Y344010D01*
X124831Y343897D01*
X124776Y343867D01*
X124719Y343842D01*
X124464Y343694D01*
X124207Y343552D01*
X124157Y343516D01*
X124103Y343485D01*
X123866Y343310D01*
X123627Y343139D01*
X123580Y343098D01*
X123530Y343061D01*
X123315Y342860D01*
X123096Y342664D01*
X123055Y342618D01*
X123009Y342576D01*
X122808Y342342D01*
X122622Y342133D01*
X122589Y342087D01*
X122552Y342044D01*
X121956Y341266D01*
X121014Y340324D01*
X120649Y340045D01*
X120649Y355600D01*
X120649Y371155D01*
X121014Y370876D01*
X121956Y369934D01*
X122552Y369156D01*
X122593Y369109D01*
X122629Y369058D01*
X122825Y368839D01*
X123017Y368616D01*
X123063Y368574D01*
X123104Y368528D01*
X123324Y368332D01*
X123539Y368132D01*
X123589Y368095D01*
X123636Y368053D01*
X123876Y367884D01*
X124113Y367709D01*
X124166Y367678D01*
X124217Y367642D01*
X124475Y367500D01*
X124730Y367353D01*
X124786Y367328D01*
X124841Y367298D01*
X125113Y367185D01*
X125383Y367068D01*
X125442Y367050D01*
X125500Y367026D01*
X125783Y366945D01*
X126064Y366858D01*
X126124Y366847D01*
X126184Y366830D01*
X126475Y366780D01*
X126764Y366726D01*
X126825Y366721D01*
X126887Y366711D01*
X127181Y366695D01*
X127474Y366673D01*
X127536Y366675D01*
X127598Y366672D01*
X127892Y366689D01*
X128186Y366700D01*
X128247Y366709D01*
X128309Y366713D01*
X128599Y366763D01*
X128890Y366807D01*
X128951Y366823D01*
X129012Y366833D01*
X129294Y366915D01*
X129578Y366992D01*
X129636Y367014D01*
X129696Y367032D01*
X129967Y367145D01*
X130241Y367252D01*
X130296Y367281D01*
X130354Y367305D01*
X130611Y367448D01*
X130871Y367586D01*
X130922Y367621D01*
X130977Y367651D01*
X131216Y367821D01*
X131459Y367988D01*
X131506Y368028D01*
X131557Y368064D01*
X131786Y368269D01*
X131999Y368453D01*
X132037Y368494D01*
X132079Y368532D01*
X133268Y369720D01*
X133270Y369723D01*
X133274Y369726D01*
X133507Y369988D01*
X133742Y370252D01*
X133745Y370255D01*
X133748Y370258D01*
X133954Y370549D01*
X134155Y370833D01*
X134157Y370836D01*
X134159Y370840D01*
X134331Y371152D01*
X134499Y371456D01*
X134501Y371460D01*
X134503Y371464D01*
X134635Y371785D01*
X134772Y372114D01*
X134773Y372119D01*
X134774Y372122D01*
X134869Y372452D01*
X134969Y372799D01*
X134969Y372803D01*
X134970Y372807D01*
X135028Y373151D01*
X135088Y373501D01*
X135088Y373506D01*
X135089Y373510D01*
X135127Y374210D01*
X135127Y393026D01*
X135127Y393029D01*
X135127Y393032D01*
X135107Y393378D01*
X135087Y393737D01*
X135087Y393740D01*
X135087Y393743D01*
X135029Y394080D01*
X134968Y394440D01*
X134967Y394442D01*
X134967Y394445D01*
X134868Y394787D01*
X134771Y395124D01*
X134769Y395127D01*
X134769Y395130D01*
X134634Y395453D01*
X134498Y395782D01*
X134496Y395785D01*
X134495Y395787D01*
X134330Y396085D01*
X134153Y396406D01*
X134151Y396408D01*
X134150Y396411D01*
X133945Y396698D01*
X133741Y396987D01*
X133739Y396989D01*
X133737Y396991D01*
X133500Y397256D01*
X133266Y397518D01*
X133263Y397520D01*
X133262Y397522D01*
X132998Y397757D01*
X132734Y397992D01*
X132732Y397994D01*
X132730Y397996D01*
X132449Y398194D01*
X132153Y398404D01*
X132150Y398406D01*
X132148Y398407D01*
X131859Y398566D01*
X131529Y398748D01*
X131526Y398749D01*
X131524Y398751D01*
X131206Y398882D01*
X130871Y399020D01*
X130868Y399021D01*
X130865Y399022D01*
X130536Y399117D01*
X130186Y399217D01*
X130183Y399218D01*
X130181Y399218D01*
X129827Y399278D01*
X129484Y399336D01*
X129481Y399336D01*
X129478Y399337D01*
X128778Y399375D01*
X117497Y399375D01*
X116730Y399693D01*
X116726Y399694D01*
X116722Y399696D01*
X116395Y399810D01*
X116057Y399928D01*
X116053Y399929D01*
X116049Y399931D01*
X115707Y400008D01*
X115363Y400087D01*
X115359Y400087D01*
X115354Y400088D01*
X114995Y400128D01*
X114655Y400166D01*
X114651Y400166D01*
X114646Y400167D01*
X114289Y400166D01*
X113942Y400166D01*
X113938Y400166D01*
X113934Y400166D01*
X113592Y400127D01*
X113235Y400086D01*
X113230Y400085D01*
X113226Y400085D01*
X112890Y400007D01*
X112540Y399927D01*
X112536Y399926D01*
X112532Y399925D01*
X111870Y399693D01*
X111868Y399692D01*
X111867Y399692D01*
X111103Y399375D01*
X99822Y399375D01*
X99819Y399375D01*
X99816Y399375D01*
X99469Y399355D01*
X99111Y399335D01*
X99108Y399335D01*
X99105Y399335D01*
X98765Y399276D01*
X98408Y399216D01*
X98406Y399215D01*
X98403Y399215D01*
X98058Y399115D01*
X97724Y399019D01*
X97721Y399017D01*
X97718Y399017D01*
X97394Y398882D01*
X97066Y398746D01*
X97063Y398744D01*
X97061Y398743D01*
X96741Y398566D01*
X96442Y398401D01*
X96440Y398399D01*
X96437Y398398D01*
X96140Y398187D01*
X95861Y397989D01*
X95859Y397987D01*
X95857Y397985D01*
X95589Y397745D01*
X95330Y397514D01*
X95328Y397511D01*
X95326Y397510D01*
X95088Y397242D01*
X94856Y396982D01*
X94854Y396980D01*
X94852Y396978D01*
X94654Y396697D01*
X94444Y396401D01*
X94442Y396398D01*
X94441Y396396D01*
X94266Y396078D01*
X94100Y395777D01*
X94099Y395774D01*
X94097Y395772D01*
X93966Y395453D01*
X93828Y395119D01*
X93827Y395116D01*
X93826Y395113D01*
X93729Y394777D01*
X93631Y394434D01*
X93630Y394431D01*
X93630Y394429D01*
X93570Y394075D01*
X93512Y393732D01*
X93512Y393729D01*
X93511Y393726D01*
X93473Y393026D01*
X93473Y374210D01*
X93473Y374206D01*
X93473Y374201D01*
X93493Y373851D01*
X93513Y373499D01*
X93513Y373494D01*
X93514Y373490D01*
X93572Y373149D01*
X93632Y372796D01*
X93633Y372792D01*
X93634Y372788D01*
X93731Y372455D01*
X93829Y372112D01*
X93831Y372108D01*
X93832Y372104D01*
X93964Y371788D01*
X94102Y371454D01*
X94104Y371450D01*
X94106Y371446D01*
X94275Y371141D01*
X94447Y370830D01*
X94449Y370827D01*
X94452Y370823D01*
X94665Y370523D01*
X94859Y370249D01*
X94862Y370246D01*
X94865Y370243D01*
X95332Y369720D01*
X96521Y368532D01*
X96567Y368490D01*
X96609Y368445D01*
X96832Y368253D01*
X97052Y368057D01*
X97103Y368021D01*
X97150Y367981D01*
X97393Y367815D01*
X97633Y367645D01*
X97688Y367615D01*
X97739Y367580D01*
X97999Y367443D01*
X98257Y367300D01*
X98314Y367277D01*
X98369Y367248D01*
X98643Y367140D01*
X98915Y367028D01*
X98975Y367011D01*
X99033Y366988D01*
X99316Y366912D01*
X99600Y366831D01*
X99661Y366820D01*
X99721Y366804D01*
X100012Y366761D01*
X100302Y366712D01*
X100364Y366708D01*
X100425Y366699D01*
X100719Y366688D01*
X101013Y366672D01*
X101075Y366676D01*
X101137Y366673D01*
X101430Y366696D01*
X101725Y366712D01*
X101786Y366723D01*
X101848Y366728D01*
X102137Y366783D01*
X102427Y366832D01*
X102486Y366849D01*
X102548Y366861D01*
X102829Y366948D01*
X103111Y367030D01*
X103169Y367054D01*
X103228Y367072D01*
X103497Y367190D01*
X103769Y367303D01*
X103824Y367333D01*
X103881Y367358D01*
X104135Y367505D01*
X104393Y367648D01*
X104443Y367684D01*
X104497Y367715D01*
X104733Y367890D01*
X104973Y368061D01*
X105020Y368102D01*
X105070Y368139D01*
X105284Y368339D01*
X105504Y368536D01*
X105546Y368582D01*
X105591Y368624D01*
X105792Y368858D01*
X105978Y369067D01*
X106011Y369113D01*
X106048Y369156D01*
X106644Y369934D01*
X107586Y370876D01*
X107951Y371155D01*
X107951Y355600D01*
X107951Y340045D01*
X107586Y340324D01*
X106644Y341266D01*
X106048Y342044D01*
X106007Y342091D01*
X105971Y342142D01*
X105775Y342361D01*
X105583Y342584D01*
X105537Y342626D01*
X105496Y342672D01*
X105276Y342868D01*
X105061Y343068D01*
X105011Y343105D01*
X104964Y343147D01*
X104725Y343316D01*
X104487Y343491D01*
X104434Y343522D01*
X104383Y343558D01*
X104125Y343700D01*
X103870Y343847D01*
X103814Y343872D01*
X103759Y343902D01*
X103487Y344015D01*
X103217Y344132D01*
X103158Y344150D01*
X103101Y344174D01*
X102818Y344255D01*
X102536Y344342D01*
X102475Y344353D01*
X102416Y344370D01*
X102125Y344419D01*
X101836Y344474D01*
X101775Y344479D01*
X101713Y344489D01*
X101418Y344505D01*
X101126Y344527D01*
X101064Y344525D01*
X101002Y344528D01*
X100708Y344511D01*
X100414Y344500D01*
X100353Y344491D01*
X100291Y344487D01*
X100001Y344437D01*
X99710Y344393D01*
X99650Y344377D01*
X99588Y344367D01*
X99306Y344285D01*
X99022Y344208D01*
X98964Y344186D01*
X98904Y344168D01*
X98633Y344055D01*
X98359Y343948D01*
X98304Y343919D01*
X98246Y343895D01*
X97989Y343752D01*
X97729Y343614D01*
X97678Y343579D01*
X97623Y343549D01*
X97384Y343379D01*
X97141Y343212D01*
X97094Y343172D01*
X97043Y343136D01*
X96813Y342930D01*
X96601Y342747D01*
X96563Y342706D01*
X96521Y342668D01*
X94080Y340227D01*
X90719Y338835D01*
X87081Y338835D01*
G37*
%LPD*%
%LPC*%
G36*
X137881Y173735D02*
X137881Y173735D01*
X134520Y175127D01*
X132079Y177568D01*
X132033Y177610D01*
X131991Y177655D01*
X131768Y177846D01*
X131548Y178043D01*
X131497Y178079D01*
X131450Y178119D01*
X131207Y178285D01*
X130967Y178455D01*
X130913Y178485D01*
X130861Y178520D01*
X130600Y178658D01*
X130343Y178800D01*
X130286Y178823D01*
X130231Y178852D01*
X129956Y178960D01*
X129685Y179072D01*
X129625Y179089D01*
X129567Y179112D01*
X129283Y179188D01*
X129000Y179269D01*
X128939Y179280D01*
X128879Y179296D01*
X128588Y179339D01*
X128298Y179388D01*
X128236Y179392D01*
X128175Y179401D01*
X127880Y179412D01*
X127587Y179428D01*
X127525Y179424D01*
X127463Y179427D01*
X127170Y179404D01*
X126875Y179388D01*
X126814Y179377D01*
X126752Y179372D01*
X126464Y179317D01*
X126173Y179268D01*
X126113Y179251D01*
X126052Y179239D01*
X125772Y179152D01*
X125489Y179070D01*
X125431Y179046D01*
X125372Y179028D01*
X125103Y178910D01*
X124831Y178797D01*
X124776Y178767D01*
X124719Y178742D01*
X124464Y178594D01*
X124207Y178452D01*
X124157Y178416D01*
X124103Y178385D01*
X123866Y178210D01*
X123627Y178039D01*
X123580Y177998D01*
X123530Y177961D01*
X123315Y177760D01*
X123096Y177564D01*
X123055Y177518D01*
X123009Y177476D01*
X122808Y177242D01*
X122622Y177033D01*
X122589Y176987D01*
X122552Y176944D01*
X121956Y176166D01*
X121014Y175224D01*
X120649Y174945D01*
X120649Y190500D01*
X120649Y206055D01*
X121014Y205776D01*
X121956Y204834D01*
X122552Y204056D01*
X122593Y204009D01*
X122629Y203958D01*
X122825Y203739D01*
X123017Y203516D01*
X123063Y203474D01*
X123104Y203428D01*
X123324Y203232D01*
X123539Y203032D01*
X123589Y202995D01*
X123636Y202953D01*
X123875Y202784D01*
X124113Y202609D01*
X124166Y202578D01*
X124217Y202542D01*
X124475Y202400D01*
X124730Y202253D01*
X124786Y202228D01*
X124841Y202198D01*
X125113Y202085D01*
X125383Y201968D01*
X125442Y201950D01*
X125499Y201926D01*
X125782Y201845D01*
X126064Y201758D01*
X126125Y201747D01*
X126184Y201730D01*
X126475Y201681D01*
X126764Y201626D01*
X126825Y201621D01*
X126887Y201611D01*
X127182Y201595D01*
X127474Y201573D01*
X127536Y201575D01*
X127598Y201572D01*
X127892Y201589D01*
X128186Y201600D01*
X128247Y201609D01*
X128309Y201613D01*
X128599Y201663D01*
X128890Y201707D01*
X128950Y201723D01*
X129012Y201733D01*
X129294Y201815D01*
X129578Y201892D01*
X129636Y201914D01*
X129696Y201932D01*
X129967Y202045D01*
X130241Y202152D01*
X130296Y202181D01*
X130354Y202205D01*
X130611Y202348D01*
X130871Y202486D01*
X130922Y202521D01*
X130977Y202551D01*
X131216Y202721D01*
X131459Y202888D01*
X131506Y202928D01*
X131557Y202964D01*
X131787Y203170D01*
X131999Y203353D01*
X132037Y203394D01*
X132079Y203432D01*
X134520Y205873D01*
X137881Y207265D01*
X141519Y207265D01*
X144880Y205873D01*
X147453Y203300D01*
X148845Y199939D01*
X148845Y181061D01*
X147453Y177700D01*
X144880Y175127D01*
X141519Y173735D01*
X137881Y173735D01*
G37*
%LPD*%
%LPC*%
G36*
X137881Y249935D02*
X137881Y249935D01*
X134520Y251327D01*
X132079Y253768D01*
X132033Y253810D01*
X131991Y253855D01*
X131768Y254046D01*
X131548Y254243D01*
X131497Y254279D01*
X131450Y254319D01*
X131207Y254485D01*
X130967Y254655D01*
X130913Y254685D01*
X130861Y254720D01*
X130600Y254858D01*
X130343Y255000D01*
X130286Y255023D01*
X130231Y255052D01*
X129956Y255160D01*
X129685Y255272D01*
X129625Y255289D01*
X129567Y255312D01*
X129283Y255388D01*
X129000Y255469D01*
X128939Y255480D01*
X128879Y255496D01*
X128588Y255539D01*
X128298Y255588D01*
X128236Y255592D01*
X128175Y255601D01*
X127880Y255612D01*
X127587Y255628D01*
X127525Y255624D01*
X127463Y255627D01*
X127170Y255604D01*
X126875Y255588D01*
X126814Y255577D01*
X126752Y255572D01*
X126464Y255517D01*
X126173Y255468D01*
X126113Y255451D01*
X126052Y255439D01*
X125772Y255352D01*
X125489Y255270D01*
X125431Y255246D01*
X125372Y255228D01*
X125103Y255110D01*
X124831Y254997D01*
X124776Y254967D01*
X124719Y254942D01*
X124464Y254794D01*
X124207Y254652D01*
X124157Y254616D01*
X124103Y254585D01*
X123866Y254410D01*
X123627Y254239D01*
X123580Y254198D01*
X123530Y254161D01*
X123315Y253960D01*
X123096Y253764D01*
X123055Y253718D01*
X123009Y253676D01*
X122808Y253442D01*
X122622Y253233D01*
X122589Y253187D01*
X122552Y253144D01*
X121956Y252366D01*
X121014Y251424D01*
X120649Y251145D01*
X120649Y266700D01*
X120649Y282255D01*
X121014Y281976D01*
X121956Y281034D01*
X122552Y280256D01*
X122593Y280209D01*
X122629Y280158D01*
X122825Y279939D01*
X123017Y279716D01*
X123063Y279674D01*
X123104Y279628D01*
X123324Y279432D01*
X123539Y279232D01*
X123589Y279195D01*
X123636Y279153D01*
X123875Y278984D01*
X124113Y278809D01*
X124166Y278778D01*
X124217Y278742D01*
X124475Y278600D01*
X124730Y278453D01*
X124786Y278428D01*
X124841Y278398D01*
X125113Y278285D01*
X125383Y278168D01*
X125442Y278150D01*
X125499Y278126D01*
X125782Y278045D01*
X126064Y277958D01*
X126125Y277947D01*
X126184Y277930D01*
X126475Y277881D01*
X126764Y277826D01*
X126825Y277821D01*
X126887Y277811D01*
X127182Y277795D01*
X127474Y277773D01*
X127536Y277775D01*
X127598Y277772D01*
X127892Y277789D01*
X128186Y277800D01*
X128247Y277809D01*
X128309Y277813D01*
X128599Y277863D01*
X128890Y277907D01*
X128950Y277923D01*
X129012Y277933D01*
X129294Y278015D01*
X129578Y278092D01*
X129636Y278114D01*
X129696Y278132D01*
X129967Y278245D01*
X130241Y278352D01*
X130296Y278381D01*
X130354Y278405D01*
X130611Y278548D01*
X130871Y278686D01*
X130922Y278721D01*
X130977Y278751D01*
X131216Y278921D01*
X131459Y279088D01*
X131506Y279128D01*
X131557Y279164D01*
X131787Y279370D01*
X131999Y279553D01*
X132037Y279594D01*
X132079Y279632D01*
X134520Y282073D01*
X137881Y283465D01*
X141519Y283465D01*
X144880Y282073D01*
X147453Y279500D01*
X148845Y276139D01*
X148845Y257261D01*
X147453Y253900D01*
X144880Y251327D01*
X141519Y249935D01*
X137881Y249935D01*
G37*
%LPD*%
%LPC*%
G36*
X137881Y84835D02*
X137881Y84835D01*
X134520Y86227D01*
X132079Y88668D01*
X132033Y88710D01*
X131991Y88755D01*
X131768Y88946D01*
X131548Y89143D01*
X131497Y89179D01*
X131450Y89219D01*
X131207Y89385D01*
X130967Y89555D01*
X130913Y89585D01*
X130861Y89620D01*
X130600Y89758D01*
X130343Y89900D01*
X130286Y89923D01*
X130231Y89952D01*
X129956Y90060D01*
X129685Y90172D01*
X129625Y90189D01*
X129567Y90212D01*
X129283Y90288D01*
X129000Y90369D01*
X128939Y90380D01*
X128879Y90396D01*
X128588Y90439D01*
X128298Y90488D01*
X128236Y90492D01*
X128175Y90501D01*
X127880Y90512D01*
X127587Y90528D01*
X127525Y90524D01*
X127463Y90527D01*
X127170Y90504D01*
X126875Y90488D01*
X126814Y90477D01*
X126752Y90472D01*
X126464Y90417D01*
X126173Y90368D01*
X126113Y90351D01*
X126052Y90339D01*
X125772Y90252D01*
X125489Y90170D01*
X125431Y90146D01*
X125372Y90128D01*
X125103Y90010D01*
X124831Y89897D01*
X124776Y89867D01*
X124719Y89842D01*
X124464Y89694D01*
X124207Y89552D01*
X124157Y89516D01*
X124103Y89485D01*
X123866Y89310D01*
X123627Y89139D01*
X123580Y89098D01*
X123530Y89061D01*
X123315Y88860D01*
X123096Y88664D01*
X123055Y88618D01*
X123009Y88576D01*
X122808Y88342D01*
X122622Y88133D01*
X122589Y88087D01*
X122552Y88044D01*
X121956Y87266D01*
X121014Y86324D01*
X120649Y86045D01*
X120649Y101600D01*
X120649Y117155D01*
X121014Y116876D01*
X121956Y115934D01*
X122552Y115156D01*
X122593Y115109D01*
X122629Y115058D01*
X122825Y114839D01*
X123017Y114616D01*
X123063Y114574D01*
X123104Y114528D01*
X123324Y114332D01*
X123539Y114132D01*
X123589Y114095D01*
X123636Y114053D01*
X123875Y113884D01*
X124113Y113709D01*
X124166Y113678D01*
X124217Y113642D01*
X124475Y113500D01*
X124730Y113353D01*
X124786Y113328D01*
X124841Y113298D01*
X125113Y113185D01*
X125383Y113068D01*
X125442Y113050D01*
X125499Y113026D01*
X125782Y112945D01*
X126064Y112858D01*
X126125Y112847D01*
X126184Y112830D01*
X126475Y112781D01*
X126764Y112726D01*
X126825Y112721D01*
X126887Y112711D01*
X127182Y112695D01*
X127474Y112673D01*
X127536Y112675D01*
X127598Y112672D01*
X127892Y112689D01*
X128186Y112700D01*
X128247Y112709D01*
X128309Y112713D01*
X128599Y112763D01*
X128890Y112807D01*
X128950Y112823D01*
X129012Y112833D01*
X129294Y112915D01*
X129578Y112992D01*
X129636Y113014D01*
X129696Y113032D01*
X129967Y113145D01*
X130241Y113252D01*
X130296Y113281D01*
X130354Y113305D01*
X130611Y113448D01*
X130871Y113586D01*
X130922Y113621D01*
X130977Y113651D01*
X131216Y113821D01*
X131459Y113988D01*
X131506Y114028D01*
X131557Y114064D01*
X131787Y114270D01*
X131999Y114453D01*
X132037Y114494D01*
X132079Y114532D01*
X134520Y116973D01*
X137881Y118365D01*
X141519Y118365D01*
X144880Y116973D01*
X147453Y114400D01*
X148845Y111039D01*
X148845Y92161D01*
X147453Y88800D01*
X144880Y86227D01*
X141519Y84835D01*
X137881Y84835D01*
G37*
%LPD*%
%LPC*%
G36*
X87081Y249935D02*
X87081Y249935D01*
X83720Y251327D01*
X81147Y253900D01*
X79755Y257261D01*
X79755Y276139D01*
X81147Y279500D01*
X83720Y282073D01*
X87081Y283465D01*
X90719Y283465D01*
X94080Y282073D01*
X96521Y279632D01*
X96567Y279590D01*
X96609Y279545D01*
X96832Y279354D01*
X97052Y279157D01*
X97103Y279121D01*
X97150Y279081D01*
X97393Y278915D01*
X97633Y278745D01*
X97687Y278715D01*
X97739Y278680D01*
X98000Y278542D01*
X98257Y278400D01*
X98314Y278377D01*
X98369Y278348D01*
X98644Y278240D01*
X98915Y278128D01*
X98975Y278111D01*
X99033Y278088D01*
X99317Y278012D01*
X99600Y277931D01*
X99661Y277920D01*
X99721Y277904D01*
X100012Y277861D01*
X100302Y277812D01*
X100364Y277808D01*
X100425Y277799D01*
X100720Y277788D01*
X101013Y277772D01*
X101075Y277776D01*
X101137Y277773D01*
X101430Y277796D01*
X101725Y277812D01*
X101786Y277823D01*
X101848Y277828D01*
X102136Y277883D01*
X102427Y277932D01*
X102487Y277949D01*
X102548Y277961D01*
X102828Y278048D01*
X103111Y278130D01*
X103169Y278154D01*
X103228Y278172D01*
X103497Y278290D01*
X103769Y278403D01*
X103824Y278433D01*
X103881Y278458D01*
X104136Y278606D01*
X104393Y278748D01*
X104443Y278784D01*
X104497Y278815D01*
X104734Y278990D01*
X104973Y279161D01*
X105020Y279202D01*
X105070Y279239D01*
X105285Y279440D01*
X105504Y279636D01*
X105545Y279682D01*
X105591Y279724D01*
X105792Y279958D01*
X105978Y280167D01*
X106011Y280213D01*
X106048Y280256D01*
X106644Y281034D01*
X107586Y281976D01*
X107951Y282255D01*
X107951Y266700D01*
X107951Y251145D01*
X107586Y251424D01*
X106644Y252366D01*
X106048Y253144D01*
X106007Y253191D01*
X105971Y253242D01*
X105775Y253461D01*
X105583Y253684D01*
X105537Y253726D01*
X105496Y253772D01*
X105276Y253968D01*
X105061Y254168D01*
X105011Y254205D01*
X104964Y254247D01*
X104725Y254416D01*
X104487Y254591D01*
X104434Y254622D01*
X104383Y254658D01*
X104125Y254800D01*
X103870Y254947D01*
X103814Y254972D01*
X103759Y255002D01*
X103487Y255115D01*
X103217Y255232D01*
X103158Y255250D01*
X103101Y255274D01*
X102818Y255355D01*
X102536Y255442D01*
X102475Y255453D01*
X102416Y255470D01*
X102125Y255519D01*
X101836Y255574D01*
X101775Y255579D01*
X101713Y255589D01*
X101418Y255605D01*
X101126Y255627D01*
X101064Y255625D01*
X101002Y255628D01*
X100708Y255611D01*
X100414Y255600D01*
X100353Y255591D01*
X100291Y255587D01*
X100001Y255537D01*
X99710Y255493D01*
X99650Y255477D01*
X99588Y255467D01*
X99306Y255385D01*
X99022Y255308D01*
X98964Y255286D01*
X98904Y255268D01*
X98633Y255155D01*
X98359Y255048D01*
X98304Y255019D01*
X98246Y254995D01*
X97989Y254852D01*
X97729Y254714D01*
X97678Y254679D01*
X97623Y254649D01*
X97384Y254479D01*
X97141Y254312D01*
X97094Y254272D01*
X97043Y254236D01*
X96813Y254030D01*
X96601Y253847D01*
X96563Y253806D01*
X96521Y253768D01*
X94080Y251327D01*
X90719Y249935D01*
X87081Y249935D01*
G37*
%LPD*%
%LPC*%
G36*
X87081Y173735D02*
X87081Y173735D01*
X83720Y175127D01*
X81147Y177700D01*
X79755Y181061D01*
X79755Y199939D01*
X81147Y203300D01*
X83720Y205873D01*
X87081Y207265D01*
X90719Y207265D01*
X94080Y205873D01*
X96521Y203432D01*
X96567Y203390D01*
X96609Y203345D01*
X96832Y203154D01*
X97052Y202957D01*
X97103Y202921D01*
X97150Y202881D01*
X97393Y202715D01*
X97633Y202545D01*
X97687Y202515D01*
X97739Y202480D01*
X98000Y202342D01*
X98257Y202200D01*
X98314Y202177D01*
X98369Y202148D01*
X98644Y202040D01*
X98915Y201928D01*
X98975Y201911D01*
X99033Y201888D01*
X99317Y201812D01*
X99600Y201731D01*
X99661Y201720D01*
X99721Y201704D01*
X100012Y201661D01*
X100302Y201612D01*
X100364Y201608D01*
X100425Y201599D01*
X100720Y201588D01*
X101013Y201572D01*
X101075Y201576D01*
X101137Y201573D01*
X101430Y201596D01*
X101725Y201612D01*
X101786Y201623D01*
X101848Y201628D01*
X102136Y201683D01*
X102427Y201732D01*
X102487Y201749D01*
X102548Y201761D01*
X102828Y201848D01*
X103111Y201930D01*
X103169Y201954D01*
X103228Y201972D01*
X103497Y202090D01*
X103769Y202203D01*
X103824Y202233D01*
X103881Y202258D01*
X104136Y202406D01*
X104393Y202548D01*
X104443Y202584D01*
X104497Y202615D01*
X104734Y202790D01*
X104973Y202961D01*
X105020Y203002D01*
X105070Y203039D01*
X105285Y203240D01*
X105504Y203436D01*
X105545Y203482D01*
X105591Y203524D01*
X105792Y203758D01*
X105978Y203967D01*
X106011Y204013D01*
X106048Y204056D01*
X106644Y204834D01*
X107586Y205776D01*
X107951Y206055D01*
X107951Y190500D01*
X107951Y174945D01*
X107586Y175224D01*
X106644Y176166D01*
X106048Y176944D01*
X106007Y176991D01*
X105971Y177042D01*
X105775Y177261D01*
X105583Y177484D01*
X105537Y177526D01*
X105496Y177572D01*
X105276Y177768D01*
X105061Y177968D01*
X105011Y178005D01*
X104964Y178047D01*
X104725Y178216D01*
X104487Y178391D01*
X104434Y178422D01*
X104383Y178458D01*
X104125Y178600D01*
X103870Y178747D01*
X103814Y178772D01*
X103759Y178802D01*
X103487Y178915D01*
X103217Y179032D01*
X103158Y179050D01*
X103101Y179074D01*
X102818Y179155D01*
X102536Y179242D01*
X102475Y179253D01*
X102416Y179270D01*
X102125Y179319D01*
X101836Y179374D01*
X101775Y179379D01*
X101713Y179389D01*
X101418Y179405D01*
X101126Y179427D01*
X101064Y179425D01*
X101002Y179428D01*
X100708Y179411D01*
X100414Y179400D01*
X100353Y179391D01*
X100291Y179387D01*
X100001Y179337D01*
X99710Y179293D01*
X99650Y179277D01*
X99588Y179267D01*
X99306Y179185D01*
X99022Y179108D01*
X98964Y179086D01*
X98904Y179068D01*
X98633Y178955D01*
X98359Y178848D01*
X98304Y178819D01*
X98246Y178795D01*
X97989Y178652D01*
X97729Y178514D01*
X97678Y178479D01*
X97623Y178449D01*
X97384Y178279D01*
X97141Y178112D01*
X97094Y178072D01*
X97043Y178036D01*
X96813Y177830D01*
X96601Y177647D01*
X96563Y177606D01*
X96521Y177568D01*
X94080Y175127D01*
X90719Y173735D01*
X87081Y173735D01*
G37*
%LPD*%
%LPC*%
G36*
X87081Y84835D02*
X87081Y84835D01*
X83720Y86227D01*
X81147Y88800D01*
X79755Y92161D01*
X79755Y111039D01*
X81147Y114400D01*
X83720Y116973D01*
X87081Y118365D01*
X90719Y118365D01*
X94080Y116973D01*
X96521Y114532D01*
X96567Y114490D01*
X96609Y114445D01*
X96832Y114254D01*
X97052Y114057D01*
X97103Y114021D01*
X97150Y113981D01*
X97393Y113815D01*
X97633Y113645D01*
X97687Y113615D01*
X97739Y113580D01*
X98000Y113442D01*
X98257Y113300D01*
X98314Y113277D01*
X98369Y113248D01*
X98644Y113140D01*
X98915Y113028D01*
X98975Y113011D01*
X99033Y112988D01*
X99317Y112912D01*
X99600Y112831D01*
X99661Y112820D01*
X99721Y112804D01*
X100012Y112761D01*
X100302Y112712D01*
X100364Y112708D01*
X100425Y112699D01*
X100720Y112688D01*
X101013Y112672D01*
X101075Y112676D01*
X101137Y112673D01*
X101430Y112696D01*
X101725Y112712D01*
X101786Y112723D01*
X101848Y112728D01*
X102136Y112783D01*
X102427Y112832D01*
X102487Y112849D01*
X102548Y112861D01*
X102828Y112948D01*
X103111Y113030D01*
X103169Y113054D01*
X103228Y113072D01*
X103497Y113190D01*
X103769Y113303D01*
X103824Y113333D01*
X103881Y113358D01*
X104136Y113506D01*
X104393Y113648D01*
X104443Y113684D01*
X104497Y113715D01*
X104734Y113890D01*
X104973Y114061D01*
X105020Y114102D01*
X105070Y114139D01*
X105285Y114340D01*
X105504Y114536D01*
X105545Y114582D01*
X105591Y114624D01*
X105792Y114858D01*
X105978Y115067D01*
X106011Y115113D01*
X106048Y115156D01*
X106644Y115934D01*
X107586Y116876D01*
X107951Y117155D01*
X107951Y101600D01*
X107951Y86045D01*
X107586Y86324D01*
X106644Y87266D01*
X106048Y88044D01*
X106007Y88091D01*
X105971Y88142D01*
X105775Y88361D01*
X105583Y88584D01*
X105537Y88626D01*
X105496Y88672D01*
X105277Y88868D01*
X105061Y89068D01*
X105011Y89105D01*
X104964Y89147D01*
X104725Y89316D01*
X104487Y89491D01*
X104434Y89522D01*
X104383Y89558D01*
X104125Y89700D01*
X103870Y89847D01*
X103814Y89872D01*
X103759Y89902D01*
X103487Y90015D01*
X103217Y90132D01*
X103158Y90150D01*
X103101Y90174D01*
X102818Y90255D01*
X102536Y90342D01*
X102475Y90353D01*
X102416Y90370D01*
X102125Y90419D01*
X101836Y90474D01*
X101775Y90479D01*
X101713Y90489D01*
X101418Y90505D01*
X101126Y90527D01*
X101064Y90525D01*
X101002Y90528D01*
X100708Y90511D01*
X100414Y90500D01*
X100353Y90491D01*
X100291Y90487D01*
X100001Y90437D01*
X99710Y90393D01*
X99650Y90377D01*
X99588Y90367D01*
X99306Y90285D01*
X99022Y90208D01*
X98964Y90186D01*
X98904Y90168D01*
X98633Y90055D01*
X98359Y89948D01*
X98304Y89919D01*
X98246Y89895D01*
X97989Y89752D01*
X97729Y89614D01*
X97678Y89579D01*
X97623Y89549D01*
X97384Y89379D01*
X97141Y89212D01*
X97094Y89172D01*
X97043Y89136D01*
X96813Y88930D01*
X96601Y88747D01*
X96563Y88706D01*
X96521Y88668D01*
X94080Y86227D01*
X90719Y84835D01*
X87081Y84835D01*
G37*
%LPD*%
%LPC*%
G36*
X394449Y82549D02*
X394449Y82549D01*
X394449Y102871D01*
X394877Y102693D01*
X396613Y101691D01*
X398204Y100471D01*
X399621Y99054D01*
X400841Y97463D01*
X401843Y95727D01*
X402610Y93876D01*
X403129Y91940D01*
X403391Y89952D01*
X403391Y82549D01*
X394449Y82549D01*
G37*
%LPD*%
%LPC*%
G36*
X394449Y69851D02*
X394449Y69851D01*
X403391Y69851D01*
X403391Y62448D01*
X403129Y60460D01*
X402610Y58524D01*
X401843Y56673D01*
X400841Y54937D01*
X399621Y53346D01*
X398204Y51929D01*
X396613Y50709D01*
X394877Y49707D01*
X394449Y49529D01*
X394449Y69851D01*
G37*
%LPD*%
%LPC*%
G36*
X395149Y171449D02*
X395149Y171449D01*
X395149Y174641D01*
X402050Y174641D01*
X402541Y174543D01*
X403004Y174352D01*
X403420Y174073D01*
X403773Y173720D01*
X404052Y173304D01*
X404243Y172841D01*
X404341Y172350D01*
X404341Y171449D01*
X395149Y171449D01*
G37*
%LPD*%
%LPC*%
G36*
X395149Y155559D02*
X395149Y155559D01*
X395149Y158751D01*
X404341Y158751D01*
X404341Y157850D01*
X404243Y157359D01*
X404052Y156896D01*
X403773Y156480D01*
X403420Y156127D01*
X403004Y155848D01*
X402541Y155657D01*
X402050Y155559D01*
X395149Y155559D01*
G37*
%LPD*%
%LPC*%
G36*
X308549Y225049D02*
X308549Y225049D01*
X308549Y228854D01*
X308820Y228673D01*
X309173Y228320D01*
X309452Y227904D01*
X309643Y227441D01*
X309741Y226950D01*
X309741Y225049D01*
X308549Y225049D01*
G37*
%LPD*%
%LPC*%
G36*
X308549Y212351D02*
X308549Y212351D01*
X309741Y212351D01*
X309741Y210450D01*
X309643Y209959D01*
X309452Y209496D01*
X309173Y209080D01*
X308820Y208727D01*
X308549Y208546D01*
X308549Y212351D01*
G37*
%LPD*%
%LPC*%
G36*
X294659Y225049D02*
X294659Y225049D01*
X294659Y226950D01*
X294757Y227441D01*
X294948Y227904D01*
X295227Y228320D01*
X295580Y228673D01*
X295851Y228854D01*
X295851Y225049D01*
X294659Y225049D01*
G37*
%LPD*%
%LPC*%
G36*
X295580Y208727D02*
X295580Y208727D01*
X295227Y209080D01*
X294948Y209496D01*
X294757Y209959D01*
X294659Y210450D01*
X294659Y212351D01*
X295851Y212351D01*
X295851Y208546D01*
X295580Y208727D01*
G37*
%LPD*%
%LPC*%
G36*
X395849Y222249D02*
X395849Y222249D01*
X395849Y223298D01*
X396204Y223152D01*
X396620Y222873D01*
X396973Y222520D01*
X397154Y222249D01*
X395849Y222249D01*
G37*
%LPD*%
%LPC*%
G36*
X294249Y171449D02*
X294249Y171449D01*
X294249Y172754D01*
X294520Y172573D01*
X294873Y172220D01*
X295152Y171804D01*
X295298Y171449D01*
X294249Y171449D01*
G37*
%LPD*%
%LPC*%
G36*
X294249Y158751D02*
X294249Y158751D01*
X295298Y158751D01*
X295152Y158396D01*
X294873Y157980D01*
X294520Y157627D01*
X294249Y157446D01*
X294249Y158751D01*
G37*
%LPD*%
%LPC*%
G36*
X395849Y209551D02*
X395849Y209551D01*
X397154Y209551D01*
X396973Y209280D01*
X396620Y208927D01*
X396204Y208648D01*
X395849Y208502D01*
X395849Y209551D01*
G37*
%LPD*%
D10*
X350000Y431850D02*
X350000Y406350D01*
X310400Y406350D02*
X310400Y431850D01*
X348500Y88950D02*
X348500Y63450D01*
X388100Y63450D02*
X388100Y88950D01*
D11*
X88900Y347980D02*
X88900Y363220D01*
X114300Y363220D02*
X114300Y347980D01*
X139700Y347980D02*
X139700Y363220D01*
X88900Y274320D02*
X88900Y259080D01*
X114300Y259080D02*
X114300Y274320D01*
X139700Y274320D02*
X139700Y259080D01*
X88900Y198120D02*
X88900Y182880D01*
X114300Y182880D02*
X114300Y198120D01*
X139700Y198120D02*
X139700Y182880D01*
X88900Y109220D02*
X88900Y93980D01*
X114300Y93980D02*
X114300Y109220D01*
X139700Y109220D02*
X139700Y93980D01*
D12*
X225800Y160900D03*
X225800Y143900D03*
D13*
X122800Y406400D03*
X105800Y406400D03*
D11*
X228600Y83820D02*
X228600Y68580D01*
X254000Y68580D02*
X254000Y83820D01*
D13*
X270900Y165100D03*
X287900Y165100D03*
D14*
X279400Y291700D03*
D15*
X256600Y218700D03*
X302200Y218700D03*
D16*
X347958Y330200D03*
X312442Y330200D03*
D17*
X388800Y165100D03*
X347800Y165100D03*
D12*
X372500Y215900D03*
X389500Y215900D03*
D18*
X139700Y402200D02*
X135500Y406400D01*
X122800Y406400D01*
X139700Y402200D02*
X139700Y355600D01*
X289500Y166700D02*
X287900Y165100D01*
D19*
X388100Y76200D02*
X406400Y76200D01*
D18*
X91000Y404300D02*
X93100Y406400D01*
X91000Y404300D02*
X88900Y402200D01*
X88900Y355600D01*
X93100Y406400D02*
X105800Y406400D01*
D20*
X350000Y419100D02*
X350000Y332242D01*
X347958Y330200D01*
X348500Y164400D02*
X348500Y76200D01*
X348500Y164400D02*
X347800Y165100D01*
X347800Y215900D01*
X347800Y330042D01*
X347958Y330200D01*
D18*
X347800Y215900D02*
X372500Y215900D01*
D20*
X310400Y332242D02*
X310400Y419100D01*
X310400Y332242D02*
X312442Y330200D01*
X312442Y324742D01*
X279400Y291700D01*
D19*
X225800Y187900D02*
X225800Y160900D01*
X225800Y187900D02*
X256600Y218700D01*
X270900Y165100D02*
X230000Y165100D01*
X225800Y160900D01*
D18*
X225800Y79000D02*
X228600Y76200D01*
D19*
X225800Y79000D02*
X225800Y143900D01*
M02*
